<svg xmlns="http://www.w3.org/2000/svg" fill="none" viewBox="0 0 24 24"><path stroke="#121212" stroke-linecap="round" stroke-linejoin="round" stroke-width="1.5" d="M9.75 3.75h-4.5a.75.75 0 0 0-.75.75v15c0 .414.336.75.75.75h4.5a.75.75 0 0 0 .75-.75v-15a.75.75 0 0 0-.75-.75m10.657 15.54-4.389.938a.75.75 0 0 1-.89-.582l-3.111-14.79a.756.756 0 0 1 .576-.897l4.389-.937a.75.75 0 0 1 .89.582l3.111 14.79a.756.756 0 0 1-.576.897M4.5 6.75h6m-6 10.5h6m1.984-10.174 5.855-1.258m-5.234 4.217 5.856-1.258m-4.299 8.655 5.854-1.258"/></svg>