<svg width="136" height="136" viewBox="0 0 136 136" fill="none" xmlns="http://www.w3.org/2000/svg">
<path fill-rule="evenodd" clip-rule="evenodd" d="M133.845 67.4161C133.845 73.8859 132.958 80.1589 131.28 86.0752C127.96 97.9815 121.513 108.523 112.908 116.739C106.76 122.631 99.4976 127.305 91.504 130.417C84.2535 133.246 76.4157 134.783 68.1945 134.783C67.032 134.783 65.8575 134.758 64.707 134.685H64.695C62.9813 134.599 61.2675 134.426 59.5897 134.217C46.9102 132.508 35.3933 127.108 26.0574 119.051C22.546 116.05 19.3702 112.668 16.5538 108.965C14.4206 106.198 12.4911 103.246 10.8013 100.134C10.3939 99.396 10.0104 98.6457 9.62687 97.8831C9.62687 97.8585 9.6149 97.8462 9.60291 97.8093C9.19545 96.9975 8.82392 96.1857 8.46439 95.3616H8.45241C7.31389 92.7909 6.31919 90.1341 5.51624 87.3913C4.90504 85.4233 4.38971 83.4061 3.98225 81.3643C3.97026 81.352 3.97025 81.3274 3.97025 81.3028C3.68263 79.8637 3.43095 78.4123 3.2392 76.9486C2.79578 73.8244 2.58008 70.6387 2.58008 67.3915C2.58008 65.5342 2.65198 63.6646 2.81976 61.8442C2.90365 60.6757 3.0235 59.5318 3.1793 58.3756C4.03019 51.746 5.82783 45.4361 8.42843 39.5567C9.69878 36.6662 11.1728 33.8987 12.8267 31.2419C15.5711 26.8016 18.8069 22.7426 22.4741 19.0772C34.2907 7.26928 50.4336 0 68.2304 0C68.9255 0 69.6206 0.0123 70.2917 0.0245999C71.0228 0.0491999 71.7658 0.0860998 72.4968 0.1353C76.2599 0.393599 79.9511 0.959397 83.5105 1.84499C85.5838 2.36159 87.6211 2.95199 89.6225 3.66539C90.9767 4.13279 92.307 4.66169 93.6253 5.22749C94.608 5.65798 95.5667 6.10078 96.5255 6.56818C96.6933 6.65428 96.861 6.72808 97.0288 6.81418C103.404 10.0122 109.181 14.2188 114.202 19.274C114.921 19.9874 115.617 20.7254 116.312 21.4757C116.767 21.9923 117.222 22.5089 117.666 23.0378C118.433 23.9234 119.164 24.8459 119.883 25.7684C122.508 29.1755 124.797 32.8532 126.726 36.7523C128.979 41.2787 130.753 46.1003 131.963 51.1433C133.222 56.3461 133.893 61.7827 133.893 67.3792L133.845 67.4161Z" fill="url(#paint0_radial_2521_4348)"/>
<g opacity="0.4" style="mix-blend-mode:multiply">
<path fill-rule="evenodd" clip-rule="evenodd" d="M2.55859 67.416C2.55859 67.416 18.0424 95.6076 32.9989 99.9863C47.9673 104.353 65.057 101.585 70.8934 103.812C76.7298 106.05 79.9176 115.201 79.9176 115.201L82.0988 116.481C82.0988 116.481 87.0963 108.523 90.1523 113.221C90.1523 113.221 88.9299 106.555 92.6091 98.4489C96.2883 90.3432 98.7331 81.6225 103.287 78.8427C107.841 76.0629 116.158 74.7591 122.762 77.4528C129.365 80.1342 132.781 79.6176 132.781 79.6176L133.272 76.4319L133.763 73.6152C133.763 73.6152 127.448 74.6484 122.366 71.3151C122.366 71.3151 123.061 72.5574 127.004 65.0175C130.935 57.4654 130.492 50.6635 130.492 50.6635L129.928 44.3905C129.928 44.3905 127.819 66.1368 118.879 72.4467C118.879 72.4467 98.9608 68.2155 90.5358 92.3481C90.5358 92.3481 89.0977 108.486 80.7446 108.043C72.4035 107.588 75.2797 97.0344 63.2114 96.936C51.1312 96.8253 43.8088 101.93 31.8484 94.9311C19.888 87.9324 2.57057 67.4283 2.57057 67.4283L2.55859 67.416Z" fill="#7D72B3"/>
</g>
<g opacity="0.4" style="mix-blend-mode:multiply">
<path fill-rule="evenodd" clip-rule="evenodd" d="M64.7105 134.685C64.7105 134.685 72.9917 121.991 82.0998 122.065C91.2079 122.139 95.4025 125.521 102.581 121.229C109.76 116.924 112.744 114.242 116.052 111.942C119.359 109.642 119.922 108.916 119.922 108.916L121.421 106.887C121.421 106.887 116.387 104.378 111.953 108.055C107.519 111.733 99.5011 120.072 93.1374 120.035C86.7737 119.999 87.0853 116.235 79.9307 119.187C72.776 122.139 57.7236 132.545 57.7236 132.545C57.7236 132.545 60.4441 134.586 64.7225 134.685H64.7105Z" fill="#7D72B3"/>
</g>
<g opacity="0.4" style="mix-blend-mode:multiply">
<path fill-rule="evenodd" clip-rule="evenodd" d="M6.16602 89.4822L6.95699 91.7085C6.95699 91.7085 19.7563 98.9654 27.8457 109.051C35.9232 119.15 37.3613 125.988 37.3613 125.988C37.3613 125.988 38.7994 119.974 31.8365 108.658C24.8736 97.3419 9.88118 91.1427 6.17801 89.4822H6.16602Z" fill="#7D72B3"/>
</g>
<path fill-rule="evenodd" clip-rule="evenodd" d="M96.9953 6.85105C96.7795 6.87565 96.5638 6.90025 96.3481 6.94945C95.6051 7.08475 95.0298 7.02325 94.2988 6.81415C93.7715 6.66655 93.4 6.44515 92.8367 6.34675C92.0337 6.22375 91.3027 5.86705 90.4997 5.75635C89.6608 5.64565 88.9298 5.30125 88.1268 5.00605C87.5036 4.77235 87.1681 4.85845 86.5689 5.00605C85.9697 5.16595 85.5382 4.90765 85.0109 4.67395C84.4117 4.40335 83.8005 4.35415 83.1653 4.23115C81.4995 3.87445 79.8456 3.33326 78.2038 2.90276C77.1731 2.63216 76.2384 2.63216 75.1837 2.61986C74.3688 2.61986 73.6258 2.85356 72.7988 2.85356C72.2476 2.85356 71.7802 2.75516 71.2409 2.68136C70.6776 2.57066 70.1143 2.68136 69.5511 2.60756C68.7241 2.48456 68.2807 2.34926 67.4299 2.60756C66.8067 2.81666 66.3153 2.79206 65.6921 2.82896C64.997 2.86586 64.2061 3.05036 63.5349 3.21026C62.3005 3.50546 60.9583 3.73916 59.6999 3.71456C58.9209 3.71456 57.7824 3.49316 57.0514 3.76376C56.572 3.93595 56.3323 4.46485 56.0088 4.82155C55.3736 5.49805 54.5826 6.11305 54.0553 6.86335C53.516 7.62594 52.9168 8.40084 52.9647 9.36024C53.0127 10.1843 53.3842 11.156 53.7437 11.9186C54.1032 12.7304 54.2351 13.4561 53.4201 13.9973C52.4015 14.6861 51.239 15.3134 50.0765 15.6578C49.2975 15.8915 48.6024 16.0268 47.9553 15.461C47.7156 15.2519 47.5718 14.846 47.2722 14.6738C46.9606 14.5139 46.649 14.6738 46.3134 14.7845C45.4985 15.0305 44.6955 15.3134 43.8686 15.4487C43.3533 15.5348 42.9098 15.8054 42.4065 15.9038C41.8073 16.0145 41.3759 15.5594 40.7407 15.7193C39.8658 15.9284 38.991 16.3097 38.0802 16.3466C37.433 16.3835 36.6061 16.0883 36.0668 15.7562C35.7432 15.5717 35.6713 15.3872 35.2998 15.4856C35.0002 15.5594 34.5567 15.9284 34.4009 16.1621C34.1852 16.4819 34.1013 16.8878 33.8856 17.2199C33.6579 17.5766 33.4422 17.9333 33.2385 18.3146C32.867 19.0649 32.4235 19.766 31.9442 20.4302C31.5966 20.8976 31.3689 21.5249 30.9854 21.9554C30.7937 22.1891 30.3742 22.349 30.1225 22.5335C29.4394 23.0255 28.7204 23.4683 28.0612 23.9972C26.7909 25.0304 25.5805 26.162 24.2862 27.1583C23.2915 27.9209 21.9013 28.3637 20.7747 28.8434C20.0677 29.1386 19.3366 29.3477 18.6295 29.6552C18.4018 29.7536 17.9824 29.852 17.7906 30.0242C17.539 30.2456 17.4071 30.6515 17.1794 30.959C16.5682 31.7339 15.9211 32.4965 15.4537 33.3944C15.1661 33.911 14.9983 34.4399 14.8185 34.9934C14.5668 35.756 14.1714 36.4571 13.9197 37.2197C13.4044 38.8064 13.3085 40.4669 12.7332 42.0413C12.3977 42.9638 11.9303 43.8001 11.5108 44.6488C10.8038 46.0756 10.7079 47.773 10.4922 49.3474C10.3843 50.2699 10.4203 51.34 10.588 52.2379C10.7558 53.2096 10.7079 54.2182 10.7079 55.2022C10.7079 56.26 10.0487 57.2809 9.40157 58.0804C8.81434 58.8184 7.91553 59.1013 7.2444 59.7532C6.68114 60.319 6.01 60.9586 5.77032 61.7458C5.66246 62.0902 5.77032 62.4961 5.69841 62.8651C5.5546 63.6892 5.35087 64.4764 5.23102 65.3251C5.11118 66.3706 5.08722 67.3423 5.08722 68.4001C5.08722 68.929 5.05126 69.4579 5.08722 69.9868C5.11118 70.4911 5.29095 70.9585 5.3269 71.4628C5.35087 71.8195 5.27896 72.1639 5.3269 72.5206C5.39881 72.9142 5.54261 73.3324 5.63849 73.7137C5.86619 74.6485 6.03398 75.5587 6.21375 76.4935C6.36955 77.3545 6.70509 78.2155 6.96875 79.0518C7.32828 80.1957 7.56798 81.3765 7.7837 82.5696C7.95148 83.4552 7.9395 84.3777 8.07133 85.2756C8.17919 86.0013 8.33498 86.7393 8.37094 87.465C8.40689 88.5597 8.14322 89.6667 8.13124 90.7737C8.13124 92.6433 8.85031 94.5129 9.26976 96.3087C9.38961 96.813 9.52143 97.3296 9.65325 97.8339C5.14714 88.695 2.60645 78.3631 2.60645 67.4284C2.60645 54.1321 6.36954 41.7338 12.8411 31.2788C15.5975 26.8385 18.8333 22.7672 22.4885 19.1264C34.2691 7.30615 50.4001 0.0368652 68.2088 0.0368652C69.6469 0.0368652 71.0611 0.0860651 72.4633 0.172165C81.2238 0.750263 89.505 3.08726 96.9953 6.85105Z" fill="url(#paint1_linear_2521_4348)"/>
<g opacity="0.4" style="mix-blend-mode:multiply">
<path fill-rule="evenodd" clip-rule="evenodd" d="M18.6184 29.6551C18.6184 29.6551 33.3951 43.2097 52.8937 43.6033C72.3922 43.9969 79.6308 42.6439 86.1143 35.2393C92.5979 27.8225 99.5847 15.2765 99.5847 15.2765C99.5847 15.2765 91.2556 19.397 85.4912 27.4412C79.7267 35.4853 52.5222 49.1998 18.6064 29.6551H18.6184Z" fill="#7D72B3"/>
</g>
<g opacity="0.7">
<g opacity="0.4" style="mix-blend-mode:multiply">
<path fill-rule="evenodd" clip-rule="evenodd" d="M19.7914 30.0364C17.8619 32.3857 16.1721 34.7842 14.8778 37.5639C13.7273 40.0362 13.2958 42.7914 12.8764 45.4728C12.6247 47.0595 12.409 48.6585 12.1813 50.2452C11.9775 51.6597 11.5821 53.148 11.8098 54.5748C12.1333 56.5059 12.2292 58.6461 13.128 60.405C14.0988 62.2992 15.0935 63.9474 16.3878 65.6202C17.6461 67.2561 19.1682 67.9818 21.1935 68.1294C22.2961 68.2155 23.3867 68.031 24.4892 68.1786C26.0232 68.3877 27.5452 68.6706 29.0672 68.9289C32.1352 69.4332 35.5867 69.4578 37.7919 66.8748C39.5775 64.7838 40.4284 62.1639 41.5669 59.667C42.7774 57.0102 44.3113 54.8085 46.5764 53.0004C48.2422 51.672 49.7163 50.1837 51.3102 48.7815C52.0413 48.1419 52.4847 47.4531 53.3116 46.9857C54.1265 46.5183 54.558 46.0017 55.2651 45.3252C55.9002 44.7225 56.6792 44.3166 57.2425 43.6278C58.1413 42.5331 58.8723 41.0571 59.3637 39.7287C59.879 38.3388 60.1187 36.8505 60.3225 35.3869C60.5142 33.9478 60.0947 32.5087 59.6633 31.1311C58.8364 28.5235 56.6672 26.8876 54.6179 25.264C52.0892 23.2591 49.1171 22.3735 46.0011 21.7462C43.1728 21.1804 39.7693 21.0574 36.929 21.574C33.9209 22.1152 30.8289 22.558 28.0366 23.8987C25.9873 24.8704 24.7529 26.2357 23.099 27.6748C22.2601 28.4128 21.2415 28.9048 20.4745 29.7412C19.4198 30.8851 18.4371 32.1274 19.7794 30.0241L19.7914 30.0364Z" fill="#7D72B3"/>
</g>
<g opacity="0.4" style="mix-blend-mode:multiply">
<path fill-rule="evenodd" clip-rule="evenodd" d="M49.5371 17.4658C49.9446 16.7401 50.412 15.6823 50.9752 14.9935C51.2748 14.6245 51.6703 14.3293 52.0418 14.0218C53.1444 13.0747 54.3428 12.2752 55.733 11.8693C56.5 11.6479 57.3389 11.6233 58.1059 11.8201C58.8849 12.0292 60.2991 12.5704 60.8983 13.1608C62.0128 14.2555 61.2818 16.1128 60.9462 17.392C60.6107 18.6712 60.2152 19.8889 59.1006 20.7007C58.3696 21.2296 57.5067 21.6478 56.6318 21.8569C56.1525 21.9676 55.6611 21.943 55.1698 21.9922C54.7743 22.0414 54.3908 22.1398 53.9953 22.1398C53.0845 22.1398 51.7063 21.4756 51.3228 20.5654C51.1191 20.0857 51.0112 19.5937 50.7955 19.114C50.6397 18.745 50.5078 18.3637 50.364 17.9947C50.0884 17.3059 49.8367 16.6294 49.5371 17.4535V17.4658Z" fill="#7D72B3"/>
</g>
<g opacity="0.4" style="mix-blend-mode:multiply">
<path fill-rule="evenodd" clip-rule="evenodd" d="M60.3956 24.6489C60.1199 25.3869 59.9761 26.1618 59.9521 26.9367C60.2877 27.1458 60.4076 27.564 60.7431 27.7731C61.0547 27.9699 61.4382 27.8838 61.8097 27.8838C62.4689 27.8838 63.104 27.8838 63.2119 27.0597C63.3078 26.334 62.6846 25.8051 62.1573 25.4115C61.7738 25.1286 61.0188 24.4644 60.5873 25.0056L60.4076 24.6489H60.3956Z" fill="#7D72B3"/>
</g>
<g opacity="0.4" style="mix-blend-mode:multiply">
<path fill-rule="evenodd" clip-rule="evenodd" d="M69.4899 35.6084C68.6391 36.2357 67.7163 36.7892 66.9013 37.4534C65.8707 38.3021 65.0557 39.3722 64.2528 40.43C63.2581 41.7584 62.0836 43.136 62.3353 44.9195C62.575 46.6784 63.1622 48.1421 64.4805 49.3229C66.0025 50.6882 68.3514 50.6759 70.1251 51.5615C71.6351 52.3118 72.6059 53.8862 73.3609 55.3622C74.5114 57.6254 76.9202 58.019 79.1254 58.4495C80.5635 58.7201 81.9776 58.9415 83.4277 59.1137C85.3692 59.3597 87.2987 59.741 89.2521 59.9378C92.8235 60.2945 96.4308 61.1309 100.026 60.8357C103.849 60.5159 107.301 59.126 110.441 56.8751C113.113 54.9686 115.51 51.6476 116.217 48.3512C116.96 44.8949 115.857 41.045 114.228 38.0315C112.106 34.1079 109.614 30.4302 106.893 26.9247C105.383 24.9813 103.645 23.2593 102.111 21.3282C100.781 19.6677 99.3789 18.1794 97.797 16.7772C94.2376 13.6284 89.8034 11.0331 85.0217 10.7748C83.2 10.6764 81.3545 10.947 79.6407 11.6358C78.1426 12.2262 77.0521 13.1241 75.9375 14.2926C73.1092 17.2815 71.6232 21.0945 70.4008 25.0059C69.8375 26.8017 69.3102 28.8312 69.5139 30.7377C69.5738 31.3158 69.8854 31.7832 69.8734 32.3367C69.8734 32.8533 69.8734 33.3699 69.8734 33.8865C69.8734 34.194 69.8974 34.4277 69.8015 34.6737C69.6338 35.0918 69.2263 35.5223 69.5259 35.5715L69.4899 35.6084Z" fill="#7D72B3"/>
</g>
<g opacity="0.4" style="mix-blend-mode:multiply">
<path fill-rule="evenodd" clip-rule="evenodd" d="M54.4398 48.9046C52.5942 50.0116 50.6887 50.8726 49.3345 52.6561C49.0948 52.9759 48.7353 53.3203 48.8671 53.7508C49.0109 54.2182 49.5262 54.4888 49.9217 54.661C51.2999 55.2514 52.9777 55.5589 54.4518 55.2514C55.7821 54.9808 57.5198 54.0583 58.2389 52.8283C59.1497 51.2662 58.119 48.7693 56.2015 48.8923C55.9139 48.9169 55.6982 49.0522 55.4106 49.0891C55.1829 49.1137 54.9432 49.0645 54.7035 49.0891C54.4398 49.0891 54.3799 49.1506 54.1642 49.249C53.9365 49.3474 53.6369 49.618 54.4398 48.9169V48.9046Z" fill="#7D72B3"/>
</g>
<g opacity="0.4" style="mix-blend-mode:multiply">
<path fill-rule="evenodd" clip-rule="evenodd" d="M16.4587 74.956C15.7036 75.6571 14.9606 76.1983 14.5292 77.1208C14.1217 77.9941 13.8461 78.8305 13.6423 79.7653C13.4745 80.5771 13.2468 81.4504 13.4506 82.2868C13.6303 83.0371 13.9779 83.7751 14.2176 84.5131C14.5411 85.4602 14.8408 86.3581 15.0445 87.3421C15.2962 88.5598 15.7396 89.6053 16.2669 90.7369C16.7942 91.8439 17.3814 92.9017 18.0166 93.9349C18.6757 95.005 19.4427 95.8414 20.3056 96.7639C23.3017 99.9619 26.9569 103.357 31.4151 103.935C33.6682 104.23 36.0171 103.627 37.671 101.967C39.4686 100.159 40.6191 97.5388 41.0026 94.9927C41.3262 92.8279 41.1105 90.577 39.972 88.6951C39.0611 87.1945 38.0664 85.5709 36.892 84.2794C36.101 83.4061 35.1782 82.6435 34.3153 81.844C33.4525 81.0445 32.6255 80.2081 31.6908 79.4947C30.0489 78.2524 28.455 76.9609 26.7892 75.7309C25.2911 74.6239 23.6732 73.4186 21.8396 72.9635C20.5813 72.656 19.1911 72.3977 17.9447 72.8897C17.4054 73.0988 16.9979 73.2956 16.7223 73.7875C16.5905 74.0335 16.2669 74.4641 16.2549 74.7469C16.207 74.7469 16.159 74.7715 16.4587 74.956Z" fill="#7D72B3"/>
</g>
<g opacity="0.4" style="mix-blend-mode:multiply">
<path fill-rule="evenodd" clip-rule="evenodd" d="M28.1933 71.8931C28.2532 72.4343 28.3131 72.9755 28.373 73.5167C28.409 73.6889 28.4449 73.8734 28.4809 74.0456C28.5887 74.1563 28.9842 74.2055 29.1161 74.2178C29.6554 74.2793 30.2306 73.9841 30.6501 73.652C31.2852 73.1354 31.5848 71.9423 30.9856 71.3397C30.5182 70.86 29.895 70.6755 29.2359 70.823C28.8883 70.8968 27.4263 71.684 28.0135 72.2498L28.1933 71.8931Z" fill="#7D72B3"/>
</g>
<g opacity="0.4" style="mix-blend-mode:multiply">
<path fill-rule="evenodd" clip-rule="evenodd" d="M116.052 57.1702C116.28 55.9648 116.304 55.1899 117.023 54.292C117.646 53.5048 118.341 52.7791 118.941 51.9796C120.043 50.5036 120.738 48.7693 121.146 46.9612C121.505 45.3622 121.134 43.8124 121.829 42.2749C121.997 41.9059 122.188 41.2171 122.56 41.0449C122.907 40.885 123.602 41.0203 123.914 41.2171C124.226 41.4139 124.561 41.8321 124.825 42.0781C125.304 42.5086 125.724 43.0006 126.155 43.4803C128.348 45.928 129.547 49.5688 129.535 52.8652C129.535 54.7963 129.319 56.5798 128.696 58.4002C128.444 59.1382 128.18 59.8024 127.785 60.4789C127.306 61.303 126.718 61.795 125.939 62.3116C123.674 63.7999 120.379 63.2464 118.485 61.4014C117.778 60.7249 117.454 59.7778 116.999 58.9783C116.64 58.351 116.304 57.7852 116.172 57.0349C116.124 57.0349 116.076 57.0103 116.028 57.1825L116.052 57.1702Z" fill="#7D72B3"/>
</g>
<g opacity="0.4" style="mix-blend-mode:multiply">
<path fill-rule="evenodd" clip-rule="evenodd" d="M116.051 31.832C116.422 33.1481 116.614 34.5749 117.932 35.2637C118.16 35.3867 118.639 35.5712 118.903 35.5835C119.238 35.5958 119.478 35.4113 119.73 35.2145C121.108 34.1813 120.317 31.7951 119.382 30.7127C118.831 30.0731 118.208 29.8763 117.441 29.6427C117.093 29.532 117.177 29.5074 116.889 29.6427C116.662 29.741 116.518 29.8517 116.398 30.0362C116.278 30.233 116.23 30.5405 116.218 30.7619C116.218 31.0202 116.122 31.1555 116.086 31.34C115.991 31.7951 116.039 32.1641 116.218 32.5577L116.039 31.8443L116.051 31.832Z" fill="#7D72B3"/>
</g>
<g opacity="0.4" style="mix-blend-mode:multiply">
<path fill-rule="evenodd" clip-rule="evenodd" d="M105.733 86.6287C105.397 87.5266 105.134 88.4614 104.75 89.3347C104.343 90.2572 103.935 91.2043 103.552 92.1391C102.545 94.6237 101.982 97.1944 101.323 99.7897C100.639 102.52 100.196 105.3 99.9203 108.092C99.7765 109.531 99.5608 110.921 99.5968 112.385C99.6207 113.418 99.6207 114.685 99.9802 115.669C100.208 116.284 100.759 117.219 101.382 117.489C102.197 117.846 103.228 117.145 103.911 116.801C106.584 115.435 108.861 113.369 110.994 111.241C113.091 109.15 115.212 107.157 116.95 104.722C117.741 103.615 118.616 102.52 119.275 101.327C119.826 100.331 120.21 99.2362 120.713 98.2153C121.181 97.2559 121.528 96.235 121.972 95.2633C122.511 94.0825 123.014 92.8648 123.386 91.6102C124.105 89.224 124.74 86.7763 123.925 84.3163C123.23 82.2253 121.528 80.614 119.419 80.1466C118.268 79.8883 116.986 79.5439 115.812 79.6423C114.649 79.7407 113.415 80.0605 112.348 80.5156C111.413 80.9092 110.467 81.3766 109.616 81.9301C109.136 82.2376 108.813 82.6681 108.429 83.0863C107.794 83.7874 107.159 84.55 106.668 85.3741C106.416 85.7923 106.188 86.0383 105.877 86.4073C105.445 86.8993 105.265 87.6496 105.745 86.641L105.733 86.6287Z" fill="#7D72B3"/>
</g>
<g opacity="0.4" style="mix-blend-mode:multiply">
<path fill-rule="evenodd" clip-rule="evenodd" d="M95.4007 117.711C94.0105 118.252 92.86 118.768 91.6736 119.666C90.2594 120.749 88.9292 121.856 87.9105 123.356C87.539 123.897 86.7959 124.845 87.3592 125.484C87.8386 126.05 88.6295 126.001 89.2767 125.976C90.2355 125.952 91.1942 125.779 92.081 125.398C92.908 125.041 93.651 124.574 94.5019 124.279C95.3168 123.996 96.4314 123.43 96.9826 122.717C97.2942 122.311 97.474 121.745 97.7736 121.302C98.0133 120.945 98.0852 120.675 98.0373 120.22C97.9773 119.715 97.6777 119.002 97.2942 118.645C96.9587 118.326 96.2995 118.006 95.8441 118.067C95.6044 118.104 95.2928 118.178 95.0771 118.276C94.5258 118.522 94.0704 119.223 95.4127 117.711H95.4007Z" fill="#7D72B3"/>
</g>
<g opacity="0.4" style="mix-blend-mode:multiply">
<path fill-rule="evenodd" clip-rule="evenodd" d="M93.6523 109.445C93.3646 108.375 93.0531 107.526 93.1369 106.456C93.2208 105.484 93.2088 104.66 93.7002 103.775C93.9039 103.406 94.5151 102.237 94.9226 102.077C95.0664 102.028 95.4859 102.053 95.6177 102.065C96.3248 102.163 96.7562 103.049 96.9 103.713C97.1277 104.722 96.9719 105.903 96.9719 106.936C96.9719 107.748 96.8761 108.486 96.5764 109.236C96.3368 109.839 95.8694 109.839 95.2702 109.814C94.6829 109.789 94.4432 109.617 93.9998 109.273C93.844 109.15 93.6043 109.101 93.4605 108.965C93.2688 108.793 93.3407 108.547 93.6523 109.457V109.445Z" fill="#7D72B3"/>
</g>
<g opacity="0.4" style="mix-blend-mode:multiply">
<path fill-rule="evenodd" clip-rule="evenodd" d="M92.4292 66.8623C92.3094 67.6126 92.2614 68.3629 92.2734 69.1132C92.5371 69.1132 92.8127 69.6175 93.1603 69.7036C93.6516 69.8266 94.143 69.5191 94.5265 69.2116C95.3534 68.5351 95.5811 67.2436 95.4013 66.235C95.2216 65.2387 94.107 65.1403 93.3041 65.2387C93.0404 65.2756 92.633 65.3986 92.4292 65.5954C91.9379 66.0382 91.9019 66.5671 91.9139 67.219L92.4412 66.8623H92.4292Z" fill="#7D72B3"/>
</g>
<g opacity="0.4" style="mix-blend-mode:multiply">
<path fill-rule="evenodd" clip-rule="evenodd" d="M29.7611 113.209C30.2046 112.409 30.6 111.561 31.1633 110.847C31.8105 110.06 32.5415 109.224 33.2726 108.535C34.1954 107.674 35.262 106.887 36.2447 106.099C37.1555 105.374 38.0903 104.66 39.073 104.033C40.7868 102.938 42.5484 102.213 44.442 101.536C45.988 100.995 47.6178 100.81 49.2237 101.143C50.8776 101.487 52.4835 102.446 53.6939 103.627C54.8564 104.759 56.0908 106.136 56.8098 107.625C58.2719 110.675 57.7087 113.971 56.702 117.071C56.2586 118.449 55.3238 120.109 54.1853 120.995C53.5501 121.499 52.7711 121.831 51.9921 122.016C51.1053 122.225 50.0866 122.532 49.1878 122.655C45.233 123.172 41.1822 122.877 37.4191 121.45C35.9331 120.884 34.471 120.195 33.0449 119.482C31.9183 118.916 30.9716 118.203 30.2165 117.157C29.6533 116.382 29.1859 115.472 29.2099 114.488C29.2219 114.045 29.3657 113.652 29.4256 113.221C29.6173 113.221 29.7731 113.098 29.7492 113.184L29.7611 113.209Z" fill="#7D72B3"/>
</g>
<g opacity="0.4" style="mix-blend-mode:multiply">
<path fill-rule="evenodd" clip-rule="evenodd" d="M59.5185 115.017C59.2429 115.755 59.0631 116.517 58.9912 117.305C59.2549 117.464 59.2429 117.92 59.4466 118.166C59.6743 118.448 59.914 118.596 60.2496 118.608C60.5971 118.633 61.0166 118.645 61.3641 118.596C61.9034 118.51 62.0233 118.301 62.3109 117.895C62.6225 117.44 62.7064 117.231 62.6704 116.628C62.6464 116.21 62.5266 115.767 62.2749 115.423C62.1191 115.201 61.8315 114.857 61.6158 114.697C61.1005 114.316 60.705 114.537 60.2136 114.845L59.5185 115.029V115.017Z" fill="#7D72B3"/>
</g>
<g opacity="0.4" style="mix-blend-mode:multiply">
<path fill-rule="evenodd" clip-rule="evenodd" d="M124.284 79.9867C123.685 79.507 123.181 78.9289 122.786 78.2647C122.846 77.9941 122.834 77.7235 122.762 77.4529C122.666 76.7641 122.534 76.1983 122.678 75.4972C123.001 73.8613 124.392 72.6436 126.01 72.4591C127.076 72.3361 128.622 73.2217 129.173 74.1073C129.773 75.0421 130.012 76.309 130.06 77.4037C130.096 78.3139 129.904 79.3963 129.365 80.1466C128.994 80.6755 128.239 80.6878 127.651 80.7124C126.968 80.737 126.285 80.6263 125.65 80.3926C125.159 80.2204 124.619 79.8637 124.296 79.9867H124.284Z" fill="#7D72B3"/>
</g>
</g>
<path fill-rule="evenodd" clip-rule="evenodd" d="M29.2724 120.035C22.4893 114.205 16.8566 106.985 12.8179 98.8057C10.2772 93.6643 8.35974 88.1416 7.18528 82.3606C7.18528 82.3606 7.18528 82.3237 7.18528 82.2991C6.27446 77.8096 5.78311 73.1603 5.78311 68.3879C5.78311 55.0916 9.54619 42.6932 16.0177 32.2383C18.7741 27.798 22.0099 23.7267 25.6652 20.0859C37.4937 8.27793 53.6367 1.00866 71.4334 1.00866C72.8716 1.00866 74.2857 1.05786 75.6879 1.14396C80.1341 1.43915 84.4604 2.18945 88.631 3.34565C83.5017 1.62365 78.0847 0.528957 72.4761 0.159958C71.0619 0.0615581 69.6478 0.0246582 68.2216 0.0246582C50.4248 0.0246582 34.2939 7.29394 22.4534 19.1019C18.7981 22.7427 15.5623 26.814 12.8059 31.2543C6.3224 41.6969 2.57129 54.1076 2.57129 67.4039C2.57129 72.1763 3.06265 76.8257 3.97346 81.3151C3.97346 81.3397 3.97346 81.3643 3.97346 81.3766C5.15991 87.1576 7.06544 92.6803 9.60612 97.8217C13.6449 106.001 19.2775 113.221 26.0606 119.051C33.2513 125.238 41.7482 129.863 51.06 132.446C43.0065 129.752 35.6361 125.497 29.2724 120.023V120.035Z" fill="url(#paint2_radial_2521_4348)" style="mix-blend-mode:screen"/>
<g opacity="0.4" style="mix-blend-mode:multiply">
<path fill-rule="evenodd" clip-rule="evenodd" d="M10.1699 60.1713C10.1699 60.1713 46.9259 75.5585 66.8799 74.3285C86.8219 73.0985 95.3188 61.3644 103.276 50.6634C111.234 39.9501 114.23 27.0598 114.23 27.0598C114.23 27.0598 99.1178 56.9856 80.3743 64.9068L69.5884 67.1454C69.5884 67.1454 75.209 62.8404 79.1279 58.4739C83.0468 54.1074 98.1711 47.7483 99.5852 42.6315C100.999 37.527 100.832 29.1262 103.276 23.7634C105.721 18.4006 108.166 13.9603 108.166 13.9603L101.682 12.8164L98.6385 20.1718C98.6385 20.1718 97.7876 32.3857 95.4506 39.003C93.1256 45.6204 70.3674 63.7383 65.25 66.7764C60.1327 69.8144 14.7959 63.4062 10.1819 60.1836L10.1699 60.1713Z" fill="#7D72B3"/>
</g>
<g style="mix-blend-mode:soft-light">
<g opacity="0.4" style="mix-blend-mode:multiply">
<path fill-rule="evenodd" clip-rule="evenodd" d="M75.7464 124.685C75.8782 124.635 78.2631 123.528 78.9462 123.578C79.2339 123.602 79.5335 123.836 79.7492 123.959C80.3844 124.328 80.7918 124.857 80.7199 125.619C80.624 126.702 79.4616 128.116 78.2032 128.584C76.6332 129.162 74.9914 128.436 74.4281 127.366C73.8649 126.284 75.291 124.316 76.8729 124.279L75.7464 124.672V124.685Z" fill="#7D72B3"/>
</g>
<path fill-rule="evenodd" clip-rule="evenodd" d="M44.9944 57.6499C44.1315 59.1628 41.9504 61.9549 42.6095 64.1196C42.8852 65.0544 43.5323 66.0138 43.9398 66.8994C45.0543 69.3102 47.2834 71.7333 50.0638 69.9867C53.1797 68.031 51.8255 64.464 50.5072 61.8565C50.0159 60.8848 49.2968 59.6917 48.3141 59.1505C47.7868 58.8553 46.9119 58.5478 46.3247 58.4248C45.282 58.2157 46.0251 57.5269 44.9824 57.6376L44.9944 57.6499Z" fill="#84DEFF"/>
<path fill-rule="evenodd" clip-rule="evenodd" d="M65.9943 8.06875C65.8745 8.85595 65.8505 9.64315 65.9344 10.418C66.1741 10.3688 66.3539 10.6025 66.6175 10.5902C66.9052 10.5902 67.3126 10.3811 67.5403 10.2212C68.0317 9.87685 68.2834 9.17575 68.2714 8.59765C68.2714 7.99495 68.2114 7.49065 67.6602 7.14626C67.001 6.75266 66.3419 7.03556 65.9943 7.68745V8.04415V8.06875Z" fill="#FFEF84"/>
<path fill-rule="evenodd" clip-rule="evenodd" d="M52.1749 81.3519C52.2948 80.8599 52.4865 79.4946 52.882 78.9042C53.2056 78.4122 53.8168 78.1416 54.3441 77.9571C55.4946 77.5635 56.681 77.6127 57.6038 78.4614C59.2097 79.9497 59.1498 82.176 57.6158 83.7012C56.9207 84.39 55.962 85.0911 54.9553 85.1403C54.4639 85.1649 53.8168 85.2141 53.3853 84.9681C52.87 84.6606 52.4625 84.0948 52.2828 83.5167C51.9952 82.5573 52.1749 81.8316 52.6782 80.9952L52.151 81.3519H52.1749Z" fill="#84DEFF"/>
<path fill-rule="evenodd" clip-rule="evenodd" d="M40.0951 80.6385C40.0951 81.3888 39.6757 83.1477 40.7183 83.5044C41.2216 83.6766 41.7609 82.9755 41.8448 82.5327C41.9287 82.0899 41.8808 81.4011 41.713 80.9952C41.4613 80.3925 40.934 79.962 40.4427 80.6385H40.0951Z" fill="#84DEFF"/>
<path fill-rule="evenodd" clip-rule="evenodd" d="M12.0859 67.5268C12.1698 68.7199 12.1698 70.4542 12.8769 71.5366C13.1645 71.9917 13.4641 72.4591 14.0154 72.5575C14.5068 72.6436 14.7824 72.3484 15.07 71.9794C15.5614 71.3152 15.6333 70.8724 15.5974 70.036C15.5734 69.298 15.3457 68.4862 15.0221 67.822C14.7824 67.3423 14.3869 66.9856 14.0154 66.6166C13.6799 66.2845 13.4402 66.2107 12.9608 66.2599C12.3256 66.3337 12.3736 67.1086 12.2657 67.699L12.0859 67.5145V67.5268Z" fill="#84DEFF"/>
<path fill-rule="evenodd" clip-rule="evenodd" d="M109.4 61.955C109.412 61.8443 109.544 59.8517 109.904 59.3966C110.06 59.2121 110.407 59.0891 110.611 58.9784C111.222 58.6709 111.881 58.5725 112.504 58.88C113.403 59.3228 114.11 60.5897 113.931 61.6106C113.715 62.8775 112.313 63.7508 111.126 63.7631C109.928 63.7754 108.861 62.1272 109.556 61.0448L109.376 61.9427L109.4 61.955Z" fill="#84DEFF"/>
<path fill-rule="evenodd" clip-rule="evenodd" d="M41.9172 77.9569C41.9172 77.9569 41.9891 76.8991 42.1689 76.6777C42.2408 76.5793 42.4206 76.5178 42.5284 76.4686C42.8281 76.3087 43.1636 76.2718 43.4752 76.4194C43.9186 76.6408 44.2782 77.2681 44.1943 77.7847C44.0864 78.412 43.3913 78.8548 42.7921 78.8671C42.1929 78.8671 41.6656 78.0553 42.0011 77.5141L41.9172 77.9692V77.9569Z" fill="#84DEFF"/>
<path fill-rule="evenodd" clip-rule="evenodd" d="M71.8157 90.2571C71.8157 90.2571 71.8876 89.1993 72.0673 88.9779C72.1392 88.8795 72.319 88.818 72.4269 88.7688C72.7265 88.6212 73.062 88.572 73.3736 88.7196C73.8171 88.941 74.1766 89.5683 74.0927 90.0849C73.9848 90.7122 73.2898 91.155 72.6905 91.1673C72.0913 91.1673 71.564 90.3555 71.8996 89.8143L71.8157 90.2571Z" fill="#84DEFF"/>
<path fill-rule="evenodd" clip-rule="evenodd" d="M91.9836 35.9404C91.9836 35.9404 92.0555 34.8826 92.2353 34.6612C92.3072 34.5628 92.487 34.5013 92.5948 34.4521C92.8945 34.2922 93.23 34.2553 93.5416 34.4029C93.985 34.6243 94.3446 35.2516 94.2607 35.7682C94.1528 36.3955 93.4577 36.8383 92.8585 36.8506C92.2593 36.8506 91.732 36.0388 92.0675 35.4976L91.9836 35.9527V35.9404Z" fill="#84DEFF"/>
<path fill-rule="evenodd" clip-rule="evenodd" d="M50.845 114.783C50.845 114.783 50.9169 113.725 51.0966 113.504C51.1685 113.406 51.3483 113.344 51.4562 113.295C51.7558 113.135 52.0913 113.098 52.4029 113.246C52.8464 113.467 53.2059 114.094 53.122 114.611C53.0141 115.238 52.319 115.681 51.7198 115.693C51.1206 115.693 50.5933 114.882 50.9289 114.34L50.845 114.795V114.783Z" fill="#84DEFF"/>
<path fill-rule="evenodd" clip-rule="evenodd" d="M105.024 78.8427C104.029 79.4822 103.418 79.7651 102.819 80.7122C102.375 81.4133 101.896 82.0529 101.548 82.8155C101.273 83.4182 100.937 84.3284 100.985 85.0049C101.117 86.7761 103.262 85.214 103.873 84.6851C104.7 83.9594 105.491 82.9754 105.551 81.8315C105.575 81.3764 105.587 80.8721 105.419 80.4539C105.347 80.2694 105.251 80.0604 105.168 79.8759C104.964 79.4823 104.796 79.4822 105.024 78.8427Z" fill="#84DEFF"/>
<path fill-rule="evenodd" clip-rule="evenodd" d="M126.034 86.5671C126.106 85.7799 125.723 88.6089 125.879 88.7319C126.118 88.7319 126.406 88.7688 126.646 88.7319C126.981 88.6827 127.077 88.4982 127.341 88.2891C127.892 87.8586 128.287 87.6003 128.299 86.8377C128.311 86.1981 128.203 85.8168 127.592 85.6323C127.329 85.5462 127.197 85.4355 126.909 85.5216C126.322 85.6938 125.903 86.2104 125.675 86.7516L126.022 86.5671H126.034Z" fill="#84DEFF"/>
<path fill-rule="evenodd" clip-rule="evenodd" d="M70.2465 8.43783C70.2945 7.90893 70.0428 9.81542 70.1387 9.90152C70.3064 9.90152 70.4982 9.92612 70.654 9.90152C70.8817 9.86462 70.9416 9.74162 71.1334 9.60632C71.5049 9.31112 71.7685 9.13893 71.7925 8.62233C71.7925 8.19183 71.7326 7.93353 71.3131 7.79823C71.1334 7.73673 71.0495 7.66293 70.8457 7.72443C70.4503 7.84743 70.1626 8.19183 70.0068 8.56083L70.2465 8.43783Z" fill="#FFEF84"/>
<path fill-rule="evenodd" clip-rule="evenodd" d="M105.816 63.4063C105.864 62.8774 105.612 64.7839 105.708 64.87C105.876 64.87 106.068 64.8946 106.224 64.87C106.451 64.8331 106.511 64.7101 106.703 64.5748C107.074 64.2796 107.338 64.1074 107.35 63.5908C107.362 63.1603 107.29 62.902 106.871 62.7667C106.691 62.7052 106.607 62.6314 106.403 62.6929C106.008 62.8159 105.72 63.1603 105.564 63.5293L105.804 63.4063H105.816Z" fill="#FFEF84"/>
<path fill-rule="evenodd" clip-rule="evenodd" d="M68.307 115.853C68.8223 115.853 66.9528 115.779 66.8809 115.902C66.8928 116.075 66.8809 116.271 66.9288 116.431C66.9887 116.665 67.1086 116.714 67.2644 116.886C67.5879 117.231 67.7797 117.489 68.283 117.452C68.7025 117.415 68.9422 117.317 69.0261 116.886C69.062 116.702 69.1219 116.603 69.05 116.407C68.8942 116.013 68.5347 115.767 68.1512 115.632L68.295 115.865L68.307 115.853Z" fill="#FFEF84"/>
<path fill-rule="evenodd" clip-rule="evenodd" d="M38.4636 58.0433C38.5115 57.5144 38.2598 59.4209 38.3557 59.507C38.5235 59.507 38.7153 59.5316 38.8711 59.507C39.0988 59.4701 39.1587 59.3471 39.3504 59.2118C39.7219 58.9166 39.9856 58.7444 39.9976 58.2278C39.9976 57.7973 39.9377 57.539 39.5182 57.4037C39.3384 57.3422 39.2545 57.2684 39.0508 57.3299C38.6553 57.4529 38.3677 57.7973 38.2119 58.1663L38.4516 58.0433H38.4636Z" fill="#FFEF84"/>
<path fill-rule="evenodd" clip-rule="evenodd" d="M67.3117 110.134C67.3836 109.347 67.0001 112.176 67.1559 112.299C67.3956 112.299 67.6832 112.335 67.9229 112.299C68.2584 112.249 68.3543 112.065 68.618 111.856C69.1693 111.425 69.5647 111.167 69.5767 110.404C69.5887 109.765 69.4809 109.383 68.8697 109.199C68.606 109.113 68.4742 109.002 68.1865 109.088C67.5993 109.26 67.1799 109.777 66.9521 110.318L67.2997 110.134H67.3117Z" fill="#84DEFF"/>
</g>
<path fill-rule="evenodd" clip-rule="evenodd" d="M30.6378 65.7678C51.898 69.2241 50.5918 74.9805 75.2675 68.0802C99.9433 61.18 117.62 23.0747 117.62 23.0747C117.62 23.0747 118.855 20.258 117.812 18.5975C117.393 17.9333 114.157 19.3109 114.157 19.3109C114.72 31.537 98.0378 56.8012 79.2104 64.0704C77.197 64.8453 75.1717 65.1159 73.2781 65.5587C72.3913 65.1036 70.2101 63.0372 80.5167 55.8664C92.6449 47.4286 98.1097 44.2798 96.9832 35.4976C95.8567 26.7277 106.655 12.8165 106.655 12.8165C106.655 12.8165 107.434 9.1142 105.396 6.8141C102.772 3.84981 96.9832 6.8633 96.9832 6.8633C96.9832 6.8633 95.4852 24.071 74.2129 33.3574C52.9527 42.6562 41.1361 38.0314 32.9987 35.4976C24.8613 32.9515 22.4405 19.1264 22.4405 19.1264C22.4405 19.1264 15.5495 17.6627 13.0448 22.1645C11.2112 25.4732 13.8717 29.5936 13.8717 29.5936C13.8717 29.5936 26.6949 34.366 38.2479 38.917C49.8008 43.468 71.852 39.3844 79.7257 35.4976C87.5995 31.6108 87.5995 25.3994 93.9032 19.7414C96.5038 17.4044 99.1284 15.83 101.322 14.7722C101.322 14.7722 94.4305 25.6823 95.2215 33.3574C96.0125 41.0326 91.2786 40.762 79.7257 54.2428C71.6243 63.7014 64.5416 66.6903 61.0421 67.6374C52.1497 68.4615 44.0723 67.4406 32.9987 64.3533C15.142 59.3842 4.428 51.4138 4.428 51.4138C4.428 51.4138 2.87004 50.6512 2.28281 52.4101C2.03114 53.1481 3.62505 55.2391 3.62505 55.2391C3.62505 55.2391 9.36555 62.3115 30.6378 65.7678Z" fill="url(#paint3_linear_2521_4348)"/>
<path fill-rule="evenodd" clip-rule="evenodd" d="M45.5848 130.343C45.5848 130.343 40.3476 126.997 36.4168 116.616C32.4739 106.235 33.0012 106.923 25.6548 100.38C18.3084 93.8485 5.52108 87.4156 5.52108 87.4156C5.52108 87.4156 4.6582 87.7231 4.6582 87.9814C4.6582 89.3344 6.18022 89.482 6.18022 89.482C6.18022 89.482 18.1166 94.7341 25.5589 103.184C33.0132 111.634 41.0667 126.616 35.3262 125.73C35.3262 125.73 36.6205 129.482 39.6406 130.343C42.6606 131.204 45.5968 130.343 45.5968 130.343H45.5848Z" fill="url(#paint4_radial_2521_4348)"/>
<path d="M97.8457 80.1466C100.291 77.4775 103.239 73.8737 115.175 73.7999C127.124 73.7138 133.259 76.432 133.259 76.432C133.259 76.432 135.716 75.7186 135.98 72.4469C136.244 69.1997 133.823 67.5515 133.823 67.5515C133.703 68.5724 132.492 75.3128 122.354 71.3153C122.354 71.2169 125.937 67.8713 126.716 61.0694C127.507 54.1691 129.904 44.3906 129.904 44.3906C129.904 44.3906 131.318 41.9675 130.395 40.0242C130.096 39.3846 127.771 39.0894 127.771 39.0894C129.784 52.8407 124.703 69.4088 119.19 71.3153C112.503 71.4014 104.341 72.5945 100.638 75.1036C96.096 78.1909 91.53 92.1391 88.6058 101.954C87.8747 104.39 86.3767 107.034 84.4592 109.679C77.1487 111.487 79.4617 102.483 76.2978 99.7159C73.1579 96.9607 67.1058 98.4367 63.175 96.9484C59.2441 95.4601 58.1895 92.2498 53.983 91.7455C49.7884 91.2289 43.1611 99.2485 35.6109 95.9398C28.0608 92.6311 2.77377 61.8935 2.77377 61.8935C2.77377 61.8935 0.496754 61.3277 0.0293642 62.9513C-0.318182 64.1936 2.53409 67.4408 2.53409 67.4408C2.53409 67.4408 20.1151 94.6729 36.9172 98.2153C53.7193 101.758 68.9514 98.4367 74.2006 103.123C79.4257 107.785 79.8212 115.238 79.8212 115.3C74.3564 121.241 67.9447 126.37 64.9127 127.932C59.6635 130.65 51.0228 132.495 51.0228 132.495C52.1973 133.885 54.5702 135.004 57.1229 135.706C60.8021 136.714 63.163 134.808 63.163 134.808C63.163 134.808 61.0298 132.901 63.8101 130.515C70.9049 124.451 75.9383 121.807 83.2967 120.023C87.7549 118.941 89.0851 121.019 89.7203 120.355C96.5754 122.606 102.016 117.329 107.913 112.471C113.797 107.637 121.371 106.924 121.371 106.924C121.371 106.924 125.29 106.247 126.309 104.476C127.231 102.865 125.05 101.093 125.05 101.093C125.05 101.093 121.707 102.496 115.415 105.767C109.111 109.039 102.364 118.547 94.6699 118.252C90.4274 118.092 91.3142 113.689 90.9188 113.061C90.9188 112.754 90.9307 112.434 90.9188 112.127C90.7989 108.916 90.1398 106.013 90.1398 103.689C90.1398 103.086 90.1757 102.533 90.2956 102.028C91.0026 98.5966 95.3769 82.8403 97.8218 80.1712L97.8457 80.1466ZM84.4592 109.691C83.1169 111.548 81.559 113.406 79.9171 115.189L84.4592 109.691ZM90.3555 114.464C90.4514 115.202 90.5952 115.927 90.4753 116.665C90.4394 117.047 90.3675 117.366 90.0079 117.489C89.8042 117.563 89.5645 117.588 89.3608 117.649C89.0252 117.735 88.7136 117.858 88.3781 117.908C87.8627 117.981 87.2995 117.92 86.7842 117.92C86.2329 117.92 85.6337 117.981 85.0824 117.908C84.8187 117.871 84.5551 117.809 84.2914 117.76C84.0277 117.723 83.6682 117.698 83.4285 117.563C82.8653 117.231 82.5297 116.628 82.0983 116.481C82.1342 115.964 82.1102 115.509 82.326 115.054C82.3859 114.882 82.4338 114.71 82.4818 114.537C82.5776 114.242 82.6855 113.972 82.8173 113.689C83.1169 112.963 83.4285 112.262 83.872 111.622C84.0757 111.29 84.2914 110.97 84.4832 110.626C84.7228 110.257 85.0344 109.974 85.346 109.654C85.7895 109.199 86.2209 108.781 86.7722 108.473C87.2036 108.227 87.8987 107.895 88.3781 108.08C88.8814 108.252 89.0852 108.916 89.2769 109.371C89.4207 109.703 89.4567 110.048 89.5525 110.405C89.6604 110.847 89.8521 111.241 89.96 111.696C90.0679 112.188 90.0679 112.705 90.1637 113.209C90.2476 113.627 90.3076 114.033 90.3675 114.451L90.3555 114.464Z" fill="url(#paint5_linear_2521_4348)"/>
<path fill-rule="evenodd" clip-rule="evenodd" d="M15.5957 20.6885C15.5957 20.6885 18.5558 26.9369 26.1779 32.5703C26.1779 32.5703 23.6492 23.5052 21.8276 19.7414C21.8276 19.7414 19.3348 17.3183 15.5957 20.6885Z" fill="#FFAB0E"/>
<path fill-rule="evenodd" clip-rule="evenodd" d="M55.5176 39.7534C55.5176 39.7534 60.6948 37.6132 62.3007 38.4127C62.3007 38.4127 57.3392 39.8149 55.5176 39.7534Z" fill="#FFAB0E"/>
<path fill-rule="evenodd" clip-rule="evenodd" d="M72.8466 34.8335C73.7813 34.526 74.7281 34.2431 75.6389 33.8741C76.4539 33.5543 77.2209 33.173 77.9759 32.7425C78.9346 32.189 79.8694 31.5863 80.7323 30.8975C80.96 30.7253 81.2117 30.6023 81.4513 30.4424C81.727 30.2579 81.9906 30.0242 82.2543 29.8274C82.482 29.6429 82.6737 29.3969 82.9014 29.2001C83.1291 29.0033 83.3569 28.8065 83.5846 28.6343C83.98 28.3268 84.3875 27.9825 84.747 27.6258C84.9268 27.4536 85.0826 27.2691 85.2744 27.1215C85.4062 27.0108 85.502 26.9739 85.6578 26.9124C85.7178 27.0354 85.574 27.3306 85.526 27.4413C85.4182 27.6996 85.2504 27.8964 85.1186 28.13C84.807 28.6712 84.3036 29.0156 83.9201 29.5076C83.6684 29.8274 83.3209 30.0857 82.9853 30.3194C82.5179 30.6515 81.9787 30.9344 81.4753 31.1927C80.96 31.4633 80.4207 31.6355 79.9173 31.9307C79.438 32.2136 78.9706 32.435 78.4672 32.6687C78.1437 32.8286 77.8321 33.0623 77.5325 33.2468C77.2688 33.4067 77.0051 33.5666 76.7415 33.7265C76.346 33.9725 75.9745 34.2062 75.567 34.4276C75.3513 34.5506 75.1356 34.6367 74.9199 34.7597C74.4405 35.0303 73.8772 35.2394 73.3259 35.2271C73.1222 35.2271 72.9424 35.2517 72.7507 35.1656C72.6668 35.1287 72.511 35.0795 72.499 34.9811C72.6309 34.9811 72.7507 34.7966 72.8825 34.8335H72.8466Z" fill="#FFAB0E"/>
<path fill-rule="evenodd" clip-rule="evenodd" d="M86.8205 25.5961C86.5808 25.7191 86.3651 25.8913 86.1853 26.1004C86.1853 26.248 86.1014 26.4202 86.3531 26.4079C86.6167 26.4079 86.8085 26.2234 86.9763 26.0389C87.0602 25.9405 87.2399 25.6453 87.1321 25.4977C87.0002 25.3255 86.6527 25.5592 86.5448 25.6576L86.8085 25.5961H86.8205Z" fill="#FFAB0E"/>
<path fill-rule="evenodd" clip-rule="evenodd" d="M97.9184 7.28152C97.7266 7.53982 97.451 7.84732 97.3311 8.16712C97.2353 8.41312 97.1514 8.65911 97.0675 8.90511C96.8877 9.38481 96.7918 9.87681 96.648 10.3565C96.3844 11.2421 96.1687 12.14 95.8331 13.001C95.6773 13.3946 95.4855 13.7636 95.3058 14.1449C95.2099 14.3417 95.0661 14.5262 94.9702 14.7353C94.8983 14.9198 94.7904 15.0674 94.7066 15.2519C94.6346 15.4241 94.6107 15.5963 94.5028 15.7439C94.371 15.9284 94.2991 16.1006 94.1912 16.2974C94.1073 16.4573 93.7718 16.8386 93.8677 17.0477C93.9755 17.06 94.0714 16.9001 94.1313 16.8386C94.3231 16.6418 94.5388 16.4819 94.7305 16.2974C95.0901 15.9407 95.4136 15.5471 95.7612 15.1658C95.917 15.0059 96.0128 14.8091 96.1447 14.6369C96.3364 14.3909 96.5641 14.1941 96.7559 13.9358C97.0555 13.5176 97.3911 13.124 97.7266 12.7304C97.8944 12.5336 98.0142 12.3122 98.182 12.1031C98.3378 11.9186 98.5056 11.7587 98.6614 11.5865C99.1528 11.033 99.6801 10.4918 100.159 9.91371C100.543 9.45861 100.902 8.96661 101.226 8.46231C101.49 8.06872 101.717 7.66282 101.957 7.24462C102.053 7.07242 102.257 6.67882 102.185 6.46972C102.089 6.21142 101.789 6.10072 101.55 6.06382C101.178 6.00232 100.711 6.00232 100.351 6.08842C99.9437 6.18682 99.5962 6.34672 99.2127 6.50662C98.8771 6.65422 98.5895 6.91252 98.2659 7.07242C98.0262 7.19542 97.7626 7.30612 97.9184 7.25692V7.28152Z" fill="#FFAB0E"/>
<path fill-rule="evenodd" clip-rule="evenodd" d="M101.334 15.3625C101.226 15.5962 101.094 15.9775 100.926 16.1989C100.782 16.408 100.639 16.6048 100.507 16.8262C100.279 17.2198 100.075 17.6134 99.8476 18.007C99.4401 18.7204 98.9368 19.3846 98.6372 20.1472C98.5174 20.4547 98.3855 20.7499 98.2417 21.0328C98.0859 21.3402 98.026 21.6723 97.9181 21.9921C97.8103 22.3119 97.7743 22.6317 97.7024 22.9515C97.6425 23.2098 97.5227 23.4681 97.5946 23.7387C97.8462 23.4066 98.026 23.0376 98.2537 22.6809C98.4095 22.4349 98.5413 22.1766 98.757 21.9798C98.9728 21.783 99.1525 21.5616 99.3443 21.3402C99.536 21.1188 99.7278 20.8975 99.8716 20.6392C100.003 20.4055 100.087 20.1595 100.243 19.9258C100.387 19.7167 100.495 19.4707 100.627 19.2493C100.782 18.991 100.95 18.7327 101.046 18.4498C101.238 17.8963 101.43 17.3182 101.573 16.7524C101.645 16.4818 101.681 16.1251 101.633 15.8545C101.597 15.6331 101.262 15.0304 101.298 15.3502L101.334 15.3625Z" fill="#FFAB0E"/>
<path fill-rule="evenodd" clip-rule="evenodd" d="M96.8053 24.5874C96.7094 24.9441 96.5656 25.35 96.4937 25.719C96.4697 25.8174 96.4458 26.0142 96.5177 26.0634C96.6015 26.1249 96.8053 26.0388 96.8652 25.9773C96.9371 25.9035 96.9731 25.8174 97.021 25.7313C97.1289 25.5591 97.2607 25.2762 97.2008 25.0548C97.1409 24.8088 96.9251 24.612 96.7334 24.858L96.7933 24.5874H96.8053Z" fill="#FFAB0E"/>
<path fill-rule="evenodd" clip-rule="evenodd" d="M89.9137 44.1322C89.1707 44.8579 88.3198 45.4975 87.7206 46.3585C87.6607 46.4446 87.361 46.8013 87.4329 46.9489C87.5168 47.1211 87.8644 47.0104 87.9723 46.9612C88.4037 46.8136 88.8351 46.5676 89.2306 46.3585C89.5422 46.1986 89.8298 45.9895 90.1174 45.805C90.7886 45.3622 91.3638 44.7718 91.8792 44.1445C92.1069 43.8739 92.3465 43.5787 92.4664 43.2466C92.5023 43.1482 92.6342 42.8899 92.6102 42.7792C92.5023 42.4102 91.6395 42.8038 91.4717 42.9145C91.268 43.0498 91.0882 43.2343 90.9084 43.3942C90.7526 43.5295 90.6088 43.6279 90.441 43.7386C90.3092 43.837 90.1774 43.96 90.0455 44.0584C89.9137 44.1691 89.8178 44.4028 89.9137 44.1322Z" fill="#FFAB0E"/>
<path fill-rule="evenodd" clip-rule="evenodd" d="M86.5579 47.6252C86.3063 47.7482 86.0546 47.8712 85.8029 47.9942C85.8029 48.1172 85.4913 48.3263 85.6471 48.4862C85.731 48.5723 86.0067 48.4616 86.0906 48.4247C86.2703 48.3632 86.3662 48.2279 86.498 48.1049C86.6298 47.9696 86.6179 47.9204 86.546 47.7482V47.6129L86.5579 47.6252Z" fill="#FFAB0E"/>
<path fill-rule="evenodd" clip-rule="evenodd" d="M69.5881 64.2916C68.9889 64.759 68.3298 65.1895 67.6706 65.5585C66.8797 65.989 66.0407 66.3088 65.2618 66.7639C64.0513 67.465 62.769 67.9939 61.4987 68.572C61.2949 68.6581 59.4374 69.4084 60.1324 69.802C60.456 69.9742 60.7796 69.9373 61.1391 69.9496C61.4268 69.9496 61.7144 70.0357 62.002 70.048C62.3016 70.048 62.6012 70.048 62.8889 70.048C64.4109 70.048 66.0168 69.6913 67.407 69.0517C67.7186 68.9164 68.1021 68.8057 68.3777 68.6089C68.5455 68.4859 68.7133 68.3014 68.8691 68.1538C69.1806 67.8586 69.3964 67.5265 69.5881 67.1452C69.8637 66.5917 70.0435 66.0874 70.0195 65.4601C70.0195 65.2387 69.9477 64.9681 69.7919 64.7959C69.672 64.6483 69.5162 64.6114 69.5881 64.2916Z" fill="#FFAB0E"/>
<path fill-rule="evenodd" clip-rule="evenodd" d="M58.7275 69.052C58.3919 68.8798 58.0084 68.6092 57.6369 68.5969C57.5051 68.5969 57.3852 68.6215 57.2534 68.6461C56.9658 68.7076 56.5224 68.7445 56.2946 68.9659C55.9591 69.298 56.6662 69.5686 56.9298 69.6424C57.2414 69.7285 57.6968 69.7285 58.0204 69.6916C58.2841 69.6547 58.8233 69.421 58.8233 69.0766C58.8473 69.0766 58.8713 69.0766 58.8953 69.0643H58.7155L58.7275 69.052Z" fill="#FFAB0E"/>
<path fill-rule="evenodd" clip-rule="evenodd" d="M78.8626 64.7347C80.2767 64.2919 81.619 63.7015 82.9372 63.025C83.4526 62.7667 83.9559 62.4592 84.4473 62.1517C84.7589 61.9549 85.0825 61.6843 85.406 61.5244C85.5379 61.4506 86.3648 60.9586 86.4726 61.1923C86.6165 61.4998 85.7296 62.1025 85.5978 62.2255C85.2622 62.533 84.8907 62.7667 84.5192 63.0373C84.2076 63.2587 83.872 63.3694 83.5365 63.5662C83.105 63.8245 82.6736 64.0336 82.2182 64.2427C81.8826 64.3903 81.5351 64.5625 81.1756 64.6609C80.8999 64.7347 80.6362 64.8454 80.3606 64.9069C80.1569 64.9561 79.9531 64.8946 79.7494 64.9438C79.4977 65.0053 79.0184 65.1283 78.8506 64.747L78.8626 64.7347Z" fill="#FFAB0E"/>
<path fill-rule="evenodd" clip-rule="evenodd" d="M109.795 72.5575C110.478 72.5575 111.305 72.6313 112.012 72.5329C112.528 72.4591 113.043 72.3484 113.558 72.2992C114.577 72.2008 115.584 71.9302 116.614 71.8933C117.022 71.881 117.429 71.8933 117.837 71.8933C118.064 71.8933 118.376 71.8318 118.592 71.8933C118.687 71.9179 118.951 72.0532 119.011 72.127C119.263 72.3976 119.011 72.3607 118.855 72.4591C118.484 72.6682 118.208 72.8404 117.777 72.9388C117.13 73.0741 116.494 73.2586 115.847 73.357C115.392 73.4185 114.948 73.3447 114.493 73.4185C113.894 73.5169 113.319 73.5292 112.719 73.5169C112.228 73.5169 111.737 73.5169 111.245 73.5169C110.874 73.5169 110.562 73.4431 110.203 73.3939C109.891 73.3447 109.711 73.4185 109.448 73.2586C109.328 73.1848 109.136 73.0003 109.795 72.5698V72.5575Z" fill="#FFAB0E"/>
<path fill-rule="evenodd" clip-rule="evenodd" d="M126.333 73.2336C127.208 73.3197 127.759 73.4182 128.55 73.2706C129.065 73.1722 129.593 73.0861 130.108 73C130.851 72.877 131.654 72.508 132.289 72.0898C132.649 71.8561 133.368 71.3395 133.823 71.4748C134.183 71.5732 134.59 72.0283 134.614 72.4219C134.65 72.9261 134.099 73.3443 133.763 73.6149C133.176 74.0946 132.289 74.2668 131.558 74.316C130.659 74.3652 129.796 74.2422 128.922 74.0454C128.658 73.9839 128.394 73.8978 128.119 73.8363C127.891 73.7871 127.4 73.8363 126.333 73.2336Z" fill="#FFAB0E"/>
<path fill-rule="evenodd" clip-rule="evenodd" d="M128.31 39.9501C128.25 40.5651 127.879 42.078 128.634 42.57C129.029 42.8283 129.221 42.1395 129.233 41.832C129.233 41.3769 128.957 40.2084 128.442 40.0854L128.31 39.9501Z" fill="#FFAB0E"/>
<path fill-rule="evenodd" clip-rule="evenodd" d="M4.5614 53.8737C5.18459 54.6978 5.64 55.5465 6.51486 56.0631C7.0182 56.3583 7.50956 56.715 8.07283 56.8872C8.60014 57.0471 9.27125 57.2316 9.82253 57.1086C10.1221 57.0348 10.1941 57.1455 10.1821 56.7519C10.1821 56.5797 10.0502 56.346 9.95436 56.2107C9.7746 55.9278 9.49896 55.7556 9.28324 55.4973C9.03157 55.2021 8.88775 54.9192 8.58815 54.6732C7.58146 53.8614 6.64668 53.1972 5.42427 52.7913C4.98085 52.6437 4.95688 52.5945 4.57338 52.8405C4.26178 53.0373 4.24981 52.9512 4.21386 53.3325C4.15394 53.8245 4.50147 54.2181 4.74116 54.5994L4.5614 53.886V53.8737Z" fill="#FFAB0E"/>
<path fill-rule="evenodd" clip-rule="evenodd" d="M5.08898 67.1698C6.10765 68.8426 7.27013 70.3555 8.50452 71.8684C9.37937 72.9385 9.90669 74.2792 10.9014 75.2632C11.0692 75.4231 12.8069 76.9606 12.7949 76.075C12.7949 75.8782 12.2916 75.0787 12.1837 74.8942C11.8961 74.4022 11.5725 73.8979 11.213 73.4551C10.9254 73.0984 10.5778 72.7417 10.3381 72.3358C10.0745 71.9053 9.84678 71.647 9.51122 71.2657C9.09176 70.786 8.86405 70.1833 8.49254 69.6667C8.14499 69.187 7.79744 68.7319 7.46188 68.2522C7.01846 67.6003 6.55107 66.8746 5.83201 66.5917C5.64026 66.5179 5.36462 66.3088 5.12494 66.4933C4.74144 66.7762 5.05303 67.7479 5.08898 67.1821V67.1698Z" fill="#FFAB0E"/>
<path fill-rule="evenodd" clip-rule="evenodd" d="M68.2672 98.7808C69.7293 98.5102 70.9157 98.2765 72.3659 98.6209C73.0729 98.7931 73.78 99.0145 74.4751 99.2236C74.9185 99.3589 75.6016 99.4942 75.9252 99.8386C76.2728 100.195 76.1529 100.847 75.8413 101.167C75.4099 101.598 74.4751 101.511 73.9358 101.462C72.8452 101.352 71.8026 101.216 70.748 100.896C70.1487 100.712 69.3218 100.404 68.8185 99.9985C68.5908 99.814 67.9916 99.2974 68.2552 98.7808H68.2672Z" fill="#FFAB0E"/>
<path fill-rule="evenodd" clip-rule="evenodd" d="M88.4014 106.862C87.6583 106.69 87.5984 105.337 87.8021 104.795C87.922 104.488 88.1017 103.996 88.4373 103.848C88.7729 103.701 88.8927 103.947 89.1803 104.057C88.8687 104.734 88.4972 105.374 88.0418 105.964L88.3894 106.862H88.4014Z" fill="#FFAB0E"/>
<path fill-rule="evenodd" clip-rule="evenodd" d="M116.052 106.333C117.022 105.681 117.694 105.226 118.76 104.894C119.3 104.734 119.863 104.66 120.402 104.488C121.037 104.291 121.672 103.984 122.32 103.849C122.559 103.799 122.787 103.812 123.015 103.775C123.278 103.726 123.146 103.59 123.446 103.763C123.997 104.07 123.746 104.488 123.386 104.796C122.703 105.386 122.128 105.62 121.253 105.829C120.762 105.952 120.378 106.235 119.899 106.382C119.611 106.469 119.311 106.518 119.024 106.604C117.945 106.899 116.639 106.69 116.052 106.333Z" fill="#FFAB0E"/>
<path fill-rule="evenodd" clip-rule="evenodd" d="M27.8339 103.996C28.4451 105.3 28.9604 106.554 29.7634 107.735C30.1229 108.264 30.3986 108.781 30.9738 109.039C31.4412 109.236 31.7528 109.322 31.8127 108.67C31.8487 108.338 31.573 107.858 31.3933 107.526C30.8779 106.579 30.1469 105.767 29.5357 104.894C29.296 104.562 28.9604 104.107 28.6608 103.848C28.4331 103.664 27.774 103.455 27.8339 103.996Z" fill="#FFAB0E"/>
<path fill-rule="evenodd" clip-rule="evenodd" d="M53.5632 132.729C55.0373 132.409 56.3316 131.942 57.7337 131.413C58.321 131.191 58.8962 131.191 59.4835 131.068C59.5434 131.068 59.6033 130.945 59.6872 130.921C59.831 130.884 60.0707 130.921 60.2265 130.921C60.3823 130.921 61.0534 130.822 61.1852 130.921C61.7365 131.339 60.5621 132.421 60.3104 132.692C59.3516 133.725 57.7577 134.303 56.3436 134.156C55.6245 134.082 54.9773 133.688 54.2822 133.602C53.8388 133.553 52.8561 133.381 52.904 132.729C52.952 132.729 53.0119 132.704 53.5872 132.704L53.5632 132.729Z" fill="#FFAB0E"/>
<path fill-rule="evenodd" clip-rule="evenodd" d="M78.947 117.465C77.6407 118.375 76.2026 119.174 75.2558 120.527C74.6086 121.462 75.7951 121.265 76.3104 121.069C76.7418 120.896 77.0774 120.737 77.4609 120.454C77.8085 120.208 77.9882 119.962 78.2758 119.666C78.4796 119.457 78.7432 119.285 78.935 119.051C79.1267 118.818 79.1986 118.301 79.4263 118.141C79.3904 118.043 79.3425 117.944 79.2825 117.834L78.935 117.477L78.947 117.465Z" fill="#FFAB0E"/>
<path fill-rule="evenodd" clip-rule="evenodd" d="M43.2442 96.8008C44.1909 96.3826 45.1377 96.0382 46.0365 95.5462C46.8634 95.0911 47.6544 94.6237 48.5053 94.1932C49.5839 93.6397 50.7584 92.8648 52.0047 92.8402C52.4721 92.8402 52.7837 92.5942 53.2271 92.791C53.5747 92.9509 53.8383 93.0985 54.0541 93.4183C54.6892 94.3531 53.4309 95.251 52.7358 95.7307C52.2085 96.0997 51.7171 96.5425 51.1299 96.8008C50.4348 97.096 49.6918 97.2436 48.9847 97.5019C47.8222 97.9447 46.5878 98.4367 45.3414 98.5966C44.6943 98.6827 44.107 98.4367 43.5917 98.0923C43.3281 97.9201 43.0644 97.6864 42.8966 97.4158C42.7408 97.1698 42.633 96.7639 43.2442 96.7885V96.8008Z" fill="#FFAB0E"/>
<path fill-rule="evenodd" clip-rule="evenodd" d="M88.3907 53.837C91.5785 61.6475 84.5317 72.1271 72.6552 77.2316C60.7787 82.3361 48.5666 80.1344 45.3788 72.3239C42.191 64.5134 49.2378 54.0338 61.1143 48.9293C72.9908 43.8249 85.2028 46.0266 88.3907 53.837Z" fill="url(#paint6_radial_2521_4348)" style="mix-blend-mode:screen"/>
<defs>
<radialGradient id="paint0_radial_2521_4348" cx="0" cy="0" r="1" gradientUnits="userSpaceOnUse" gradientTransform="translate(27.5435 35.9036) scale(105.45 108.227)">
<stop stop-color="#6365DE"/>
<stop offset="0.2" stop-color="#6262DA"/>
<stop offset="0.35" stop-color="#605AD1"/>
<stop offset="0.49" stop-color="#5C4CC0"/>
<stop offset="0.62" stop-color="#5739A9"/>
<stop offset="0.74" stop-color="#51218B"/>
<stop offset="0.86" stop-color="#490366"/>
<stop offset="0.87" stop-color="#490063"/>
</radialGradient>
<linearGradient id="paint1_linear_2521_4348" x1="2.55851" y1="48.9292" x2="96.9953" y2="48.9292" gradientUnits="userSpaceOnUse">
<stop stop-color="#7DBEFF"/>
<stop offset="0.25" stop-color="#7BBBFD"/>
<stop offset="0.43" stop-color="#78B1F6"/>
<stop offset="0.59" stop-color="#71A1EC"/>
<stop offset="0.74" stop-color="#688BDD"/>
<stop offset="0.87" stop-color="#5D6ECA"/>
<stop offset="1" stop-color="#504DB5"/>
</linearGradient>
<radialGradient id="paint2_radial_2521_4348" cx="0" cy="0" r="1" gradientUnits="userSpaceOnUse" gradientTransform="translate(20.2362 21.5619) scale(86.4072 88.6828)">
<stop stop-color="#A3F1FF"/>
<stop offset="1"/>
</radialGradient>
<linearGradient id="paint3_linear_2521_4348" x1="2.25884" y1="38.4127" x2="118.231" y2="38.4127" gradientUnits="userSpaceOnUse">
<stop stop-color="#FF380B"/>
<stop offset="0.46" stop-color="#FE370D"/>
<stop offset="0.68" stop-color="#FC3614"/>
<stop offset="0.86" stop-color="#F93522"/>
<stop offset="1" stop-color="#F63333"/>
</linearGradient>
<radialGradient id="paint4_radial_2521_4348" cx="0" cy="0" r="1" gradientUnits="userSpaceOnUse" gradientTransform="translate(12.4361 98.9407) scale(33.3405 34.2185)">
<stop stop-color="#FF340B"/>
<stop offset="0.46" stop-color="#FE330D"/>
<stop offset="0.69" stop-color="#FC3314"/>
<stop offset="0.86" stop-color="#F93322"/>
<stop offset="1" stop-color="#F63333"/>
</radialGradient>
<linearGradient id="paint5_linear_2521_4348" x1="0.0173798" y1="87.5266" x2="136.004" y2="87.5266" gradientUnits="userSpaceOnUse">
<stop stop-color="#FF380B"/>
<stop offset="0.46" stop-color="#FE370D"/>
<stop offset="0.68" stop-color="#FC3614"/>
<stop offset="0.86" stop-color="#F93522"/>
<stop offset="1" stop-color="#F63333"/>
</linearGradient>
<radialGradient id="paint6_radial_2521_4348" cx="0" cy="0" r="1" gradientTransform="matrix(21.5454 -9.25452 5.7774 14.1681 66.6934 63.6493)" gradientUnits="userSpaceOnUse">
<stop stop-color="#FF5B00"/>
<stop offset="0.17" stop-color="#C44600"/>
<stop offset="0.4" stop-color="#7F2D00"/>
<stop offset="0.6" stop-color="#481900"/>
<stop offset="0.78" stop-color="#210B00"/>
<stop offset="0.92" stop-color="#080300"/>
<stop offset="1"/>
</radialGradient>
</defs>
</svg>
