<svg width="140" height="140" viewBox="0 0 140 140" fill="none" xmlns="http://www.w3.org/2000/svg">
<path fill-rule="evenodd" clip-rule="evenodd" d="M10.9258 33.713C10.9258 33.713 11.7813 26.8078 12.3435 23.0174C12.3435 23.0174 17.3788 16.4214 25.4085 11.0049L36.1025 11.5316C36.1025 11.5316 14.5556 27.7239 10.938 33.713H10.9258Z" fill="url(#paint0_linear_2521_4421)"/>
<path fill-rule="evenodd" clip-rule="evenodd" d="M25.3963 11.0049C25.3963 11.0049 25.3963 16.5588 19.9821 20.9562C14.5678 25.342 12.2213 23.8075 12.2213 23.8075L10.9258 32.6595L36.0903 11.5431L25.3963 11.0163V11.0049Z" fill="url(#paint1_linear_2521_4421)"/>
<path fill-rule="evenodd" clip-rule="evenodd" d="M139.976 68.8916C139.976 75.1899 139.035 81.2935 137.238 87.0536C133.694 98.6424 126.825 108.891 117.647 116.896C111.083 122.622 103.347 127.179 94.8286 130.214C87.1045 132.974 78.7449 134.462 69.9819 134.462C68.7353 134.462 67.4887 134.439 66.2543 134.371H66.2421C64.4088 134.291 62.5878 134.119 60.8034 133.913C47.2862 132.252 35.0156 126.996 25.055 119.163C21.3151 116.243 17.9175 112.945 14.9232 109.349C12.6499 106.647 10.5967 103.784 8.78788 100.749C8.36012 100.028 7.94458 99.2951 7.52904 98.5622C7.52904 98.5393 7.51682 98.5164 7.5046 98.4935C7.07684 97.7034 6.67352 96.9132 6.29465 96.1116H6.28243C5.07248 93.6038 4.00919 91.0158 3.15367 88.359C2.50592 86.4467 1.95594 84.4885 1.51596 82.4959C1.50374 82.4845 1.50374 82.4501 1.50374 82.4387C1.1982 81.0416 0.929323 79.6331 0.721554 78.2016C0.244908 75.1556 0.0126953 72.0522 0.0126953 68.9031C0.0126953 67.0938 0.0860255 65.273 0.269351 63.5095C0.354903 62.3758 0.489341 61.2536 0.648223 60.1313C1.55263 53.6842 3.47144 47.5348 6.24576 41.8205C7.60237 39.0149 9.16675 36.3124 10.9267 33.7244C13.8477 29.4072 17.3064 25.445 21.2051 21.8951C33.8057 10.3979 51.0138 3.32092 69.9819 3.32092C70.7152 3.32092 71.4608 3.33237 72.1818 3.34383C72.964 3.36673 73.7462 3.40108 74.5284 3.45834C78.5493 3.71027 82.4725 4.25994 86.2734 5.11879C88.4856 5.62265 90.661 6.19522 92.7876 6.89376C94.2298 7.35182 95.6475 7.86713 97.053 8.4168C98.1041 8.82905 99.1185 9.2642 100.145 9.72226C100.328 9.80242 100.5 9.87112 100.683 9.96274C107.478 13.0775 113.638 17.1771 118.979 22.0898C119.749 22.7769 120.482 23.4983 121.228 24.2312C121.716 24.735 122.205 25.2389 122.67 25.7542C123.476 26.6131 124.271 27.5063 125.028 28.4109C127.815 31.7319 130.272 35.3047 132.325 39.0951C134.732 43.4924 136.627 48.1875 137.91 53.1002C139.255 58.1617 139.963 63.4522 139.963 68.9031L139.976 68.8916Z" fill="url(#paint2_radial_2521_4421)"/>
<path fill-rule="evenodd" clip-rule="evenodd" d="M100.682 9.95134C100.45 9.97424 100.217 9.99714 99.9852 10.0429C99.1908 10.1804 98.5797 10.1117 97.7975 9.90553C97.2353 9.75666 96.8442 9.53909 96.2453 9.44748C95.3898 9.32151 94.6076 8.97797 93.7521 8.87491C92.8599 8.76039 92.0778 8.4283 91.2222 8.14202C90.55 7.91299 90.2078 7.99315 89.5601 8.14202C88.9123 8.30233 88.4724 8.0504 87.8979 7.82138C87.2502 7.55799 86.6147 7.51219 85.9302 7.38622C84.1581 7.04268 82.3982 6.51592 80.6382 6.09221C79.5505 5.82883 78.5361 5.82883 77.4239 5.81738C76.5562 5.80593 75.7618 6.04641 74.8818 6.04641C74.2952 6.04641 73.8063 5.9548 73.2197 5.87464C72.6208 5.77158 72.0219 5.88609 71.4231 5.80593C70.5431 5.67996 70.0665 5.554 69.1621 5.81738C68.4899 6.02351 67.9766 6.0006 67.3044 6.03496C66.5589 6.06931 65.7278 6.25253 64.9945 6.41285C63.6867 6.69914 62.2568 6.92817 60.9002 6.90526C60.0691 6.90526 58.8592 6.68769 58.077 6.95107C57.5637 7.12284 57.307 7.63815 56.9648 7.97024C56.2804 8.63443 55.4493 9.21845 54.8749 9.96279C54.3005 10.7071 53.665 11.4629 53.7138 12.4019C53.7627 13.215 54.166 14.154 54.5449 14.8869C54.936 15.677 55.0704 16.387 54.2027 16.9138C53.1272 17.5894 51.8684 18.1963 50.634 18.5284C49.8029 18.7575 49.0696 18.8949 48.373 18.3338C48.1163 18.1276 47.9574 17.7268 47.6397 17.5665C47.3097 17.4062 46.9675 17.5665 46.6253 17.6696C45.7575 17.9101 44.902 18.1849 44.0098 18.3223C43.4598 18.4025 42.9954 18.6773 42.4577 18.7689C41.8099 18.8834 41.3577 18.4368 40.6855 18.5857C39.7567 18.7918 38.8156 19.1583 37.8501 19.2041C37.1534 19.2384 36.2857 18.9521 35.6991 18.62C35.3568 18.4368 35.2713 18.2536 34.8802 18.3567C34.5624 18.4254 34.0858 18.7918 33.9269 19.0208C33.6947 19.33 33.6091 19.7308 33.3769 20.04C33.1325 20.395 32.9003 20.7386 32.6803 21.105C32.277 21.8379 31.8003 22.5135 31.2992 23.1663C30.9326 23.6243 30.6759 24.2312 30.2848 24.6549C30.0771 24.884 29.6249 25.0443 29.3682 25.2161C28.6349 25.697 27.8772 26.1207 27.1683 26.636C25.8117 27.6323 24.5162 28.7431 23.1351 29.705C22.0841 30.4493 20.593 30.873 19.3953 31.3426C18.6376 31.6288 17.8676 31.835 17.1098 32.1327C16.8654 32.2243 16.4132 32.3274 16.2177 32.4991C15.9488 32.7167 15.8021 33.1175 15.5577 33.4038C14.8977 34.1596 14.2133 34.9039 13.7122 35.7742C13.4067 36.2781 13.2233 36.782 13.0278 37.3316C12.7589 38.076 12.3312 38.7516 12.0745 39.496C11.5245 41.0419 11.4145 42.6565 10.8157 44.191C10.4612 45.0842 9.94793 45.9087 9.52017 46.7218C8.76243 48.1074 8.65243 49.7564 8.44466 51.2909C8.32245 52.1841 8.37133 53.2262 8.54244 54.0965C8.72576 55.0355 8.67688 56.0203 8.66465 56.9822C8.66465 58.0014 7.95579 59.0091 7.27138 59.7764C6.63585 60.4978 5.68256 60.7612 4.9737 61.4025C4.37484 61.9522 3.66598 62.5705 3.40932 63.3492C3.29933 63.6928 3.40932 64.0821 3.33599 64.4371C3.17711 65.2502 2.95712 66.0059 2.8349 66.8304C2.70046 67.8382 2.67602 68.8001 2.67602 69.8193C2.67602 70.3346 2.63935 70.8499 2.67602 71.3652C2.70046 71.8576 2.89601 72.3042 2.93268 72.7966C2.95712 73.1402 2.88379 73.4837 2.93268 73.8158C3.00601 74.2051 3.16489 74.6059 3.26266 74.9724C3.5071 75.8771 3.69042 76.7703 3.87375 77.6749C4.04485 78.5109 4.39928 79.3468 4.68038 80.1713C5.07147 81.2821 5.32813 82.4387 5.56034 83.5953C5.74367 84.4542 5.73145 85.3588 5.86588 86.2291C5.97588 86.9391 6.14698 87.6491 6.18365 88.3591C6.22031 89.4241 5.93921 90.5005 5.92699 91.5769C5.92699 93.3977 6.69696 95.2185 7.13694 96.9705C7.27138 97.4629 7.40582 97.9554 7.55248 98.4478C2.74935 89.55 0.0361328 79.4957 0.0361328 68.8573C0.0361328 55.9173 4.04485 43.8475 10.9501 33.6786C13.8833 29.3615 17.3298 25.3993 21.2286 21.8493C33.8414 10.3636 51.0373 3.28662 70.0176 3.28662C71.5453 3.28662 73.0486 3.33243 74.5518 3.42404C83.8892 3.98516 92.7255 6.25253 100.694 9.91698L100.682 9.95134Z" fill="url(#paint3_linear_2521_4421)"/>
<path fill-rule="evenodd" clip-rule="evenodd" d="M74.4556 99.7074C74.4556 99.7074 80.9942 108.743 89.6349 116.071C98.2879 123.4 99.5467 128.324 99.5467 128.324C99.5467 128.324 115.887 121.923 127.547 106.761C139.206 91.5998 74.4434 99.7074 74.4434 99.7074H74.4556Z" fill="url(#paint4_linear_2521_4421)" style="mix-blend-mode:multiply"/>
<path opacity="0.4" fill-rule="evenodd" clip-rule="evenodd" d="M86.2727 5.11872C82.4717 4.25986 78.5485 3.71019 74.5276 3.45826C73.7454 3.40101 72.9632 3.3781 72.181 3.34375C73.8554 4.21406 75.3953 5.74854 75.7864 7.32884C76.422 10.0314 77.3508 12.5278 77.8886 15.2303C78.4263 17.887 78.3163 21.185 77.0331 23.5898C76.2264 25.1129 75.2609 26.4183 73.9776 27.6551C73.061 28.5254 72.2788 29.0063 71.6311 30.0942C70.9833 31.1478 70.36 32.1669 69.6267 33.1632C68.539 34.6633 67.3779 36.2551 66.1313 37.6178C65.6913 38.1102 65.2024 38.4652 64.7991 39.0378C64.298 39.7592 64.0658 40.4348 63.5159 41.0074C62.257 42.3243 60.3138 43.0572 58.5783 43.6527C56.3295 44.4428 54.4229 45.3246 52.3208 46.3781C49.3509 47.8439 46.9188 49.7219 43.4478 49.8135C42.299 49.8364 41.1013 49.6876 39.9524 49.7906C38.5225 49.9052 37.1903 50.5464 35.7726 50.7984C34.526 51.0159 33.2916 51.2564 32.045 51.4511C30.004 51.7374 28.3174 52.3901 26.3619 52.8367C23.8076 53.4322 21.131 53.2833 18.5644 53.6154C16.2423 53.9017 14.238 54.1651 11.9281 53.6383C8.37155 52.8024 6.46496 51.2335 7.21048 47.6836C7.71157 45.3589 7.54047 43.584 6.26941 41.7976C3.49509 47.5118 1.57628 53.6612 0.671875 60.1083C2.35847 60.7725 4.27728 61.1161 5.76832 61.2535C10.9503 61.7573 16.5356 59.5816 21.2777 57.9211C23.6976 57.0623 26.1663 55.8141 28.7818 55.5392C31.5317 55.2644 33.9516 55.585 36.7014 54.9438C46.1733 52.7565 55.5106 49.6532 63.9558 44.9696C67.4512 43.0343 69.0034 40.2631 71.4477 37.4575C73.5865 35.0069 75.9942 32.9685 78.5485 30.9302C81.054 28.9262 83.2783 26.9336 84.7694 24.1166C86.346 21.1507 87.6904 17.8985 88.4237 14.6463C89.1936 11.2109 88.2403 7.90141 86.3093 5.10727L86.2727 5.11872ZM85.8082 14.0279C85.6616 14.7608 85.5516 15.5509 85.3194 16.238C84.7083 17.9901 83.5961 19.8109 81.8362 20.7384C81.0295 21.1621 79.9418 20.9102 79.4774 20.143C79.2207 19.7307 79.2207 19.2039 79.1352 18.7459C78.9641 17.8412 78.8419 16.9595 78.8541 16.0319C78.8785 13.7989 78.793 11.6575 78.573 9.42444C78.8296 10.6841 78.5119 7.55787 80.614 6.69901C81.604 6.28676 83.095 6.65321 83.8528 7.37464C84.7938 8.2793 85.0138 9.80234 85.3683 10.9704C85.6738 12.0239 86.016 12.9057 85.8082 14.0165V14.0279Z" fill="url(#paint5_linear_2521_4421)" style="mix-blend-mode:multiply"/>
<path opacity="0.4" fill-rule="evenodd" clip-rule="evenodd" d="M75.6774 118.705C75.4696 118.728 75.2741 118.774 75.0908 118.785L76.484 118.911C76.3129 118.866 76.0074 118.774 75.6896 118.705H75.6774ZM75.6774 118.705C75.4696 118.728 75.2741 118.774 75.0908 118.785L76.484 118.911C76.3129 118.866 76.0074 118.774 75.6896 118.705H75.6774ZM137.923 53.0887C137.898 54.8065 137.373 56.5127 137.336 58.2419C137.287 60.5436 136.884 62.33 136.248 64.5401C135.808 66.0632 134.977 67.1854 134.427 68.6512C133.804 70.3346 132.924 71.7774 132.007 73.3348C130.186 76.4382 128.377 79.53 127.595 83.0456C126.886 86.2177 126.74 88.8858 125.053 91.7945C123.44 94.5886 121.008 96.9133 119.272 99.6272C118.466 100.933 117.903 100.864 116.669 101.677C115.3 102.593 114.041 104.025 112.709 105.044C109.849 107.185 107.234 108.674 103.763 109.888C101.587 110.666 99.4853 111.273 97.1754 111.605C95.6721 111.823 94.1933 111.605 92.7022 111.846C90.3434 112.201 88.0946 112.865 85.8214 113.564C82.0816 114.697 78.2684 115.35 74.553 116.426C71.9498 117.171 69.4077 117.617 66.7678 118.144C65.1545 118.465 63.859 119.278 62.1846 118.957C60.498 118.625 58.9703 118.098 57.3082 117.617C55.1938 117.01 53.4583 116.965 51.1729 116.965C48.1419 116.965 44.6343 117.388 41.64 116.85C38.2668 116.243 34.918 115.396 31.5571 114.743C29.516 114.342 27.9639 113.552 26.1062 112.739C24.3585 111.983 22.4886 111.754 20.6675 111.216C18.7487 110.643 16.9032 109.808 14.9355 109.349C17.9299 112.945 21.3275 116.243 25.0673 119.163C35.028 126.996 47.2986 132.252 60.8158 133.913C62.6002 134.119 64.4212 134.291 66.2545 134.371H66.2667C70.2265 133.523 74.1008 132.436 78.0851 131.279C84.7215 129.344 90.4534 125.588 97.0776 123.767C99.5464 123.08 101.759 122.324 104.068 121.259C105.767 120.469 107.564 120.263 109.287 119.576C115.447 117.125 120.091 111.525 122.829 106.029C124.075 103.532 125.261 100.715 127.497 98.8485C128.414 98.0698 129.502 97.3942 130.308 96.5239C131.213 95.5734 131.812 94.3825 132.618 93.3404C134.024 91.4853 135.38 89.6187 136.786 87.7521C136.969 87.5346 137.128 87.3055 137.263 87.0765C139.047 81.3165 140 75.2129 140 68.9146C140 63.4637 139.291 58.1732 137.947 53.1116L137.923 53.0887ZM73.7219 119.175C73.9786 119.026 74.3819 118.705 74.6508 118.637C74.9197 118.556 75.3107 118.625 75.6652 118.705C76.1785 118.637 76.704 118.579 77.1807 118.774C77.4618 118.9 77.9873 119.129 78.1095 119.438C78.244 119.724 78.0606 119.908 77.8529 120.102C77.584 120.354 77.3762 120.354 77.0096 120.423C76.2396 120.56 75.4818 120.686 74.6874 120.618C74.2108 120.572 73.5019 120.549 73.2086 120.137C72.9275 119.736 73.3431 119.404 73.6975 119.186L73.7219 119.175ZM78.3173 127.729C77.8895 128.244 77.4618 128.771 76.8996 129.149C76.374 129.538 75.7752 129.767 75.2008 130.077C73.783 130.821 72.3164 131.622 70.7276 132.012C70.0921 132.161 69.4566 132.138 68.7966 132.172C68.0022 132.241 67.22 132.252 66.4134 132.264C65.4723 132.275 64.5556 132.458 63.6024 132.516C62.6613 132.561 61.7324 132.584 60.7791 132.642C59.2148 132.733 57.8215 132.493 56.3427 131.989C55.0105 131.531 53.6417 130.947 52.4439 130.202C51.6006 129.676 50.8796 128.931 50.1585 128.267C49.4741 127.672 48.9363 127.03 48.5452 126.229C48.4108 125.943 48.2641 125.633 48.3375 125.313C48.3619 125.164 48.4352 125.038 48.4352 124.992C48.7041 124.797 48.973 124.614 49.2174 124.523C49.7185 124.316 50.2807 124.213 50.8185 124.168C52.1017 123.996 53.5072 124.213 54.7905 124.305C55.5605 124.362 56.2327 124.397 56.9904 124.294C57.9926 124.156 58.9948 123.87 59.9725 123.618C62.3313 123.022 64.6534 122.553 67.0978 122.301C69.5177 122.049 72.0598 121.797 74.5041 122.187C75.4207 122.324 76.5329 122.576 77.3273 123.068C77.914 123.446 78.3906 124.042 78.7206 124.637C79.2828 125.645 79.0506 126.836 78.3173 127.706V127.729ZM96.8576 122.049C96.4298 122.519 95.8065 122.793 95.281 123.137C94.5477 123.618 93.7655 124.007 92.9955 124.42C92.3478 124.775 91.7245 125.072 91.0401 125.359C90.3801 125.645 89.6957 125.943 89.0357 126.263C88.3146 126.607 87.5324 126.847 86.7625 127.088C86.2003 127.282 85.6014 127.511 84.9903 127.42C84.5015 127.328 83.9515 127.145 83.5971 126.801C83.0593 126.275 83.1571 125.714 83.3282 125.473C83.3282 124.992 83.1815 124.294 83.3404 123.824C83.4382 123.549 83.7926 123.137 83.9637 122.851C84.587 121.797 85.467 121.041 86.3958 120.205C87.2025 119.473 87.9969 118.923 89.0846 118.556C90.3068 118.167 91.7123 118.075 92.9833 117.915C94.3766 117.766 96.7232 117.663 97.3465 119.163C97.7742 120.205 97.6276 121.156 96.8576 122.026V122.049ZM76.4718 118.911C76.3007 118.866 75.9952 118.774 75.6774 118.705C75.4696 118.728 75.2741 118.774 75.0908 118.785L76.484 118.911H76.4718Z" fill="url(#paint6_linear_2521_4421)" style="mix-blend-mode:multiply"/>
<path opacity="0.4" fill-rule="evenodd" clip-rule="evenodd" d="M132.336 39.0836V39.347C132.251 41.1563 131.469 42.4045 130.772 44.0535C130.21 45.3818 129.562 46.5728 128.841 47.8324C127.619 49.9395 127.044 51.9206 126.14 54.1765C124.734 57.7036 124.026 61.3222 121.826 64.5286C119.846 67.3914 119.394 70.907 117.78 73.9645C115.959 77.3885 113.185 79.8277 110.203 82.3241C108.871 83.4463 107.771 84.7861 106.573 86C105.302 87.2825 104.312 88.943 102.796 89.9736C99.4966 92.2181 95.9034 94.1534 92.6769 96.5238C90.7458 97.9323 89.3648 99.8218 87.2382 100.99C85.1116 102.181 82.8017 103.005 80.6996 104.219C78.793 105.307 76.9231 106.487 74.8454 107.277C72.4866 108.158 70.5189 107.895 68.099 108.01C65.4103 108.124 62.6359 108.788 60.106 109.601C58.0039 110.288 56.2562 110.998 54.1052 110.288C52.6875 109.819 51.4042 108.949 49.9131 108.651C46.4422 107.987 42.4824 108.651 38.9503 108.571C36.1882 108.502 33.145 107.906 30.444 107.391C27.7796 106.91 25.6164 105.158 23.0376 104.46C19.86 103.589 16.1568 104.334 13.0769 103.2C11.8181 102.742 10.6204 101.803 9.52043 101.15C9.28821 101.013 9.04378 100.875 8.81157 100.738C8.38381 100.016 7.96827 99.2836 7.55273 98.5507C8.31048 98.837 9.056 99.1576 9.82597 99.5012C13.8469 101.299 18.8456 101.024 23.1843 101.734C28.0607 102.536 32.9372 103.727 37.8503 104.253C39.8425 104.46 41.859 104.448 43.8267 104.242C46.6011 103.956 49.4854 103.99 52.223 103.555C56.9773 102.765 61.6215 100.658 66.5469 101.253C67.4635 101.368 68.4779 101.826 69.4068 101.803C70.7756 101.757 71.7289 100.635 72.8288 99.9936C74.7843 98.8484 76.8376 99.066 78.5486 97.5544C80.2352 96.0772 82.0929 95.1153 84.1461 94.1534C89.4992 91.6111 93.8257 87.4657 98.0178 83.5379C101.538 80.2628 104.947 76.7816 107.355 72.682C109.714 68.6511 109.25 63.8644 111.022 59.6846C112.305 56.6958 113.38 53.8902 115.47 51.2564C116.473 49.9968 117.707 48.9203 118.77 47.7179C119.907 46.4354 120.603 45.0383 121.471 43.5954C122.437 41.9922 123.647 40.5035 124.417 38.8087C125.138 37.1712 125.077 35.7398 125.052 34.0335C125.028 32.1669 125.052 30.266 125.052 28.3994C127.839 31.7203 130.295 35.2932 132.349 39.0836H132.336Z" fill="url(#paint7_linear_2521_4421)" style="mix-blend-mode:multiply"/>
<path opacity="0.4" fill-rule="evenodd" clip-rule="evenodd" d="M121.227 24.2197C120.494 23.4869 119.748 22.7654 118.978 22.0783C113.625 17.1657 107.465 13.0661 100.682 9.9513C100.499 9.87114 100.328 9.80243 100.145 9.71082C99.1302 9.25276 98.1036 8.82906 97.0525 8.40536C95.647 7.85569 94.2293 7.34038 92.7872 6.88232C93.2394 7.15716 93.7771 7.37473 93.9482 7.46635C94.816 7.8786 95.5248 8.15343 96.1359 8.88632C96.7225 9.60776 96.9914 10.146 97.0403 11.0621C97.0647 11.9209 97.1992 12.8027 97.3703 13.6616C97.517 14.4517 97.9325 15.196 98.1036 15.9862C98.1892 16.4557 98.2625 16.8679 98.4336 17.3375C98.8002 18.4253 99.1913 19.5132 99.4358 20.6469C99.8757 22.6624 98.7269 24.3457 97.9569 26.1779C96.747 29.098 95.977 32.064 95.0726 35.0757C94.3637 37.4576 92.9705 39.8051 91.0517 41.5228C89.1695 43.2291 86.3952 43.6184 84.7086 45.4506C83.2298 47.0653 81.4088 48.6112 79.3311 49.5159C76.9234 50.5923 74.3813 51.4283 71.8269 52.1612C69.9937 52.6765 68.0749 52.7108 66.2294 53.1689C63.9439 53.7071 61.8418 54.7835 59.6908 55.6653C57.4053 56.5929 55.2543 57.7838 52.9566 58.7114C50.6345 59.6275 48.4835 60.8757 46.1736 61.7574C45.0492 62.1811 43.8637 62.3987 42.7271 62.7652C40.3683 63.5439 38.0706 64.9524 35.5651 65.2272C34.6974 65.3188 33.8052 65.5135 32.9497 65.5135C32.2531 65.525 31.6298 65.5937 30.9698 65.8341C28.7821 66.6357 27.4377 68.9489 24.9323 68.9604C22.6224 68.9604 20.3491 68.8802 18.0637 69.1321C16.9515 69.2581 15.8515 69.1894 14.7394 69.2009C14.4094 69.2009 13.9816 69.2696 13.6639 69.1436C13.2972 69.0062 12.8817 68.6741 12.515 68.4794C11.6839 68.0557 10.8895 67.4946 10.1562 66.9678C8.71407 65.9143 6.78304 66.4983 5.12089 66.1777C4.6198 66.0861 3.87428 66.1319 3.4343 65.9028C2.39545 65.3188 1.09995 64.1279 0.256656 63.4637C0.085552 65.2387 0 67.048 0 68.8573C0 72.0179 0.232212 75.1098 0.708859 78.1558C0.916627 79.5758 1.18551 80.9958 1.49105 82.3929C1.49105 82.4043 1.49105 82.4387 1.50327 82.4501C1.94325 84.4427 2.49323 86.4123 3.14098 88.3132C3.9965 90.97 5.05978 93.558 6.26973 96.0658H6.28195C8.18854 96.3521 10.1562 96.5926 12.075 96.3292C14.8127 95.9513 17.5259 95.5505 20.3002 95.6536C22.9035 95.7681 25.3234 96.5926 27.8655 96.9934C30.7131 97.44 33.683 97.795 36.5796 97.9782C39.2194 98.1271 41.8471 98.3332 44.487 98.6195C46.4669 98.8371 48.4468 99.2035 50.4267 99.3295C55.5721 99.6616 60.5952 98.4019 65.6428 97.9095C68.1726 97.6576 70.6781 97.0621 73.1591 96.5697C74.6746 96.2605 76.1534 95.8941 77.4978 95.1154C79.27 94.0733 80.3944 92.4816 81.971 91.2219C83.7187 89.8248 85.5275 88.4621 87.3485 87.1681C88.9007 86.0573 90.3673 84.8549 91.9805 83.8701C93.2271 83.1143 94.4615 82.3929 95.6348 81.534C97.9203 79.8507 99.7413 77.8925 101.636 75.8427C104.276 72.9684 105.376 68.9604 106.439 65.3875C107.404 62.1124 108.064 58.8259 109.983 55.8829C110.924 54.44 111.633 52.7795 112.085 51.1534C112.366 50.1343 112.464 48.9777 112.977 48.0158C113.772 46.4355 115.336 45.3018 116.302 43.8131C117.059 42.6336 117.903 41.5457 118.428 40.2403C119.467 37.6751 120.249 35.1902 120.689 32.4648C121.019 30.4608 121.704 28.6171 122.376 26.6932C122.474 26.3726 122.584 26.052 122.669 25.7199C122.193 25.2046 121.704 24.7007 121.227 24.1968V24.2197ZM30.1632 69.0176C30.3098 68.6741 32.9253 67.7122 33.3286 67.6091C33.3164 67.6206 33.2797 67.632 33.243 67.6549L31.532 68.342C33.4264 67.7465 36.8362 69.5444 35.1863 71.5827C34.6974 72.1782 33.4264 72.4645 32.6808 72.579C31.9231 72.705 31.4587 72.4645 30.9942 71.8576C30.6154 71.3308 30.3343 70.4147 30.2243 69.7963C30.1754 69.5787 30.0776 69.2467 30.1754 69.0176H30.1632ZM9.31293 86.6871C7.27191 86.1604 5.9153 85.4504 4.65647 83.8472C3.84984 82.8051 3.12876 81.7745 2.90877 80.4919C2.72544 79.4384 2.28546 78.4994 2.55434 77.4459C2.7621 76.6099 3.11653 75.7052 3.53207 74.9266C3.98427 74.0562 4.66869 73.1516 4.7298 72.8653C6.77082 72.6935 8.67741 72.6248 10.7062 72.6134C12.9794 72.6019 15.2527 72.8768 17.5504 72.8882C18.5892 72.8997 19.6158 72.9455 20.6425 72.7393C21.6324 72.5561 22.5979 72.3156 23.6001 72.1553C25.3478 71.8805 26.9733 71.6858 28.611 72.4989C29.8576 73.1172 30.432 74.4112 31.0065 75.5678C31.3364 76.232 31.5198 76.7015 31.5198 77.4459C31.532 78.3505 31.4709 79.2323 31.3609 80.1255C31.312 80.4576 31.2753 80.8011 31.2142 81.1332C29.7843 84.0648 25.8367 85.0381 22.9035 86.0573C18.6014 87.5345 13.7494 87.775 9.32516 86.6528L9.31293 86.6871ZM40.7838 92.9625C39.8672 95.1268 36.0174 95.8941 33.793 95.9742C32.7053 96.02 31.3853 95.8139 30.4198 95.2642C29.8821 94.9551 29.3321 94.3825 29.0143 93.8672C28.7577 93.4778 28.2077 92.7564 27.0588 93.077C27.2911 91.8861 27.6944 90.7524 28.2199 89.6531C28.721 89.1263 29.2588 88.6339 29.7965 88.1529C30.8354 87.2826 31.9842 86.5154 33.2186 85.9199C35.1496 85.0038 37.1784 85.6794 39.0361 86.4925C40.2949 87.0307 41.2727 87.8323 41.5293 89.1263C41.8349 90.5921 41.3216 91.6341 40.7472 92.9511L40.7838 92.9625ZM66.6938 92.5503C65.985 94.142 64.995 94.497 63.4306 95.2528C61.5974 96.1231 59.373 96.7758 57.2953 96.7873C56.232 96.7987 55.2421 96.3292 54.2766 95.9742C53.641 95.7338 52.9444 95.5849 52.4433 95.1383C51.05 93.9473 50.8301 92.2067 51.6856 92.5617C51.1478 91.4967 50.8178 90.3974 50.6834 89.2523C50.9156 89.069 51.0623 88.84 51.1356 88.5423C51.8689 87.2368 53.25 86.1604 54.6066 85.4389C57.0265 84.1335 60.1185 83.9846 62.6973 84.9923C63.8339 85.4389 64.555 85.9772 65.4105 86.7902C65.8139 87.1796 66.3761 87.5345 66.6816 88.004C67.4516 89.2064 67.2194 91.3135 66.6694 92.5274L66.6938 92.5503ZM74.6501 92.2983C74.2468 92.6075 73.4891 93.203 72.9636 93.0999C72.5358 93.0198 71.7169 92.1953 71.8514 91.7716L71.5703 91.5082C72.1936 90.6035 72.8169 89.6989 73.4158 88.7713C74.3568 89.1606 75.2001 89.1034 75.7745 90.0768C76.3123 90.9814 75.3468 91.7601 74.6379 92.3098L74.6501 92.2983ZM94.4615 48.7715C93.6793 49.7564 92.6405 50.6839 91.4305 51.1534C89.9151 51.7489 87.874 52.1955 87.8007 50.0427C87.7396 48.783 87.9596 47.8669 88.5707 46.7103C89.4384 45.0613 90.2695 44.649 91.9561 43.836C92.5794 43.9047 93.2271 44.0421 93.7038 44.191C94.6449 44.4773 95.5493 45.2674 95.6837 46.2064C95.8304 47.1913 95.0726 48.0387 94.4738 48.7715H94.4615ZM112.941 39.4501C112.207 41.6144 111.217 43.6986 110.191 45.7484C108.944 48.2677 108.798 50.8557 108.187 53.5124C107.832 55.0126 107.074 56.6501 105.51 57.2341C104.826 57.4861 104.166 57.4288 103.408 57.4288C102.723 57.4288 101.477 57.6693 101.513 58.219C101.11 57.1769 100.438 55.7798 100.169 54.6118C99.888 53.3063 99.7657 51.9092 99.5458 50.6152C99.3135 49.2411 99.2036 47.8783 99.0569 46.4927C98.9347 45.2102 98.6536 43.8474 98.678 42.5534C98.7391 38.2592 101.257 32.9228 105.559 30.9417C106.879 30.3462 108.174 30.0714 109.616 30.289C111.303 30.5295 112.256 30.9532 113.014 32.4648C114.028 34.5375 113.637 37.3316 112.929 39.473L112.941 39.4501Z" fill="url(#paint8_linear_2521_4421)" style="mix-blend-mode:multiply"/>
<path opacity="0.4" fill-rule="evenodd" clip-rule="evenodd" d="M92.5675 43.5269C92.3475 43.6414 92.1397 43.733 91.9442 43.836C91.5653 43.7788 91.1864 43.7673 90.8809 43.7902L92.5675 43.5269Z" fill="url(#paint9_linear_2521_4421)" style="mix-blend-mode:multiply"/>
<path opacity="0.4" fill-rule="evenodd" clip-rule="evenodd" d="M4.74065 72.8653C4.64287 72.8767 4.52065 72.8767 4.39844 72.8882C4.67954 72.7278 4.77731 72.7278 4.74065 72.8653Z" fill="url(#paint10_linear_2521_4421)" style="mix-blend-mode:multiply"/>
<path fill-rule="evenodd" clip-rule="evenodd" d="M83.4121 4.53476L95.6949 0C95.6949 0 115.237 7.12277 127.557 22.6967L128.327 32.6479C128.327 32.6479 105.045 24.2884 83.4121 4.53476Z" fill="url(#paint11_linear_2521_4421)"/>
<path fill-rule="evenodd" clip-rule="evenodd" d="M128.059 105.788C128.059 105.788 117.768 116.255 109.983 118.591L103.591 120.412C103.591 120.412 74.4546 110.586 72.8536 93.5007C71.5092 79.1407 97.7248 57.1082 104.813 54.4858C111.902 51.8634 120.213 53.3521 120.213 53.3521L128.059 105.788Z" fill="url(#paint12_linear_2521_4421)"/>
<path fill-rule="evenodd" clip-rule="evenodd" d="M120.2 53.352C114.052 51.5198 87.4945 62.9827 80.357 88.7025C78.9149 93.9243 92.3832 113.747 108.479 118.591C113.82 120.194 138.312 100.154 139.339 86.5725C140.366 72.9912 129.329 56.0775 120.2 53.352Z" fill="url(#paint13_linear_2521_4421)"/>
<path fill-rule="evenodd" clip-rule="evenodd" d="M82.0805 91.7028C85.8692 62.5819 114.126 53.1001 120.273 54.9323C124.71 56.2492 131.236 62.3643 134.976 68.3877C131.126 60.9558 125.358 54.8865 120.2 53.352C114.052 51.5198 87.4947 62.9827 80.3572 88.7025C79.8561 90.5118 81.1516 94.0961 83.7426 98.1957C82.3249 95.4016 81.8971 93.0998 82.0682 91.7142L82.0805 91.7028Z" fill="url(#paint14_linear_2521_4421)"/>
<path fill-rule="evenodd" clip-rule="evenodd" d="M30.1125 122.908C30.1125 122.908 36.4433 125.084 41.0631 123.904C41.0631 123.904 42.8353 109.865 37.1889 100.887C31.5424 91.909 21.9728 105.479 21.9728 105.479L19.7852 114.067C19.7852 114.067 25.1138 120.068 30.1003 122.908H30.1125Z" fill="url(#paint15_linear_2521_4421)" style="mix-blend-mode:multiply"/>
<path fill-rule="evenodd" clip-rule="evenodd" d="M35.6119 120.641L39.6695 119.621C39.6695 119.621 41.625 111.846 38.2274 103.074C34.3653 93.1114 20.2126 85.6679 18.1227 85.5076C16.0205 85.3473 13.9551 89.8248 13.9551 89.8248L35.6119 120.641Z" fill="url(#paint16_linear_2521_4421)"/>
<path fill-rule="evenodd" clip-rule="evenodd" d="M99.5445 128.336L92.7982 136.558C92.7982 136.558 81.0898 141.871 69.3325 139.295L60.8018 133.913L99.5323 128.336H99.5445Z" fill="url(#paint17_linear_2521_4421)"/>
<path fill-rule="evenodd" clip-rule="evenodd" d="M10.9137 95.9856C11.6226 92.9624 14.458 87.9467 17.0001 87.4543C19.5422 86.9619 31.5806 97.6689 34.3672 104.551C37.1537 111.434 35.7482 119.072 35.6138 120.629C35.4793 122.186 21.8277 117.846 14.9347 112.544C8.04162 107.242 10.9137 95.9856 10.9137 95.9856Z" fill="url(#paint18_linear_2521_4421)"/>
<path fill-rule="evenodd" clip-rule="evenodd" d="M34.3676 104.563C31.5811 97.6805 19.5549 86.9735 17.0006 87.4659C16.0229 87.6605 14.9962 88.5194 14.0674 89.676C14.6418 89.1836 15.2162 88.84 15.7906 88.737C18.3328 88.2446 30.5911 96.7644 33.3288 103.67C36.6898 112.144 34.8443 118.27 34.5143 120.938C35.1743 120.984 35.5898 120.892 35.6142 120.641C35.7487 119.083 37.1542 111.445 34.3676 104.563Z" fill="url(#paint19_linear_2521_4421)"/>
<path fill-rule="evenodd" clip-rule="evenodd" d="M72.3647 75.3044C69.3459 73.976 72.768 61.5513 75.7501 58.8487C78.72 56.1462 86.4563 62.4674 87.4829 67.632C88.5096 72.7965 79.2944 78.339 72.3647 75.3044Z" fill="url(#paint20_linear_2521_4421)"/>
<path fill-rule="evenodd" clip-rule="evenodd" d="M75.3957 74.3653C72.9758 73.266 75.7257 62.9598 78.1089 60.7153C80.4921 58.4708 86.6886 63.7155 87.5074 67.9984C88.3263 72.2812 80.9443 76.8847 75.3957 74.3653Z" fill="url(#paint21_linear_2521_4421)"/>
<path fill-rule="evenodd" clip-rule="evenodd" d="M95.6949 0C95.6949 0 96.306 6.98535 104.702 15.551C113.099 24.1167 127.557 22.6967 127.557 22.6967L128.327 32.6479C128.327 32.6479 97.5771 19.914 83.4121 4.53476L95.6949 0Z" fill="url(#paint22_linear_2521_4421)"/>
<path fill-rule="evenodd" clip-rule="evenodd" d="M119.81 61.9177C119.455 62.1926 118.698 62.6964 119.309 63.0972C119.468 63.2003 119.614 63.143 119.785 63.1888C119.92 63.2232 119.956 63.3262 120.115 63.269C120.604 63.0972 120.409 61.7918 119.859 62.0551L119.822 61.9177H119.81Z" fill="#DBFF0E"/>
<path fill-rule="evenodd" clip-rule="evenodd" d="M122.339 66.6702C122.559 66.5556 122.791 66.4984 123.023 66.4869C123.072 66.7732 123.353 67.3229 122.926 67.5405C122.559 67.7237 122.669 67.1168 122.498 66.9793L122.339 66.6702Z" fill="#DBFF0E"/>
<path fill-rule="evenodd" clip-rule="evenodd" d="M76.2995 69.5787C76.7639 69.7505 77.2161 69.9337 77.6683 70.1169C77.815 69.991 78.035 70.0139 78.2061 69.9108C78.4261 69.7734 78.6338 69.4871 78.7194 69.2352C78.8538 68.8687 78.646 68.571 78.4749 68.2847C78.3527 68.1015 78.2427 67.8266 78.0594 67.7007C77.8394 67.5518 77.4239 67.6091 77.2039 67.7007C76.9228 67.8266 76.7272 68.09 76.5439 68.319C76.3728 68.5366 76.165 68.9031 76.165 69.1894C76.165 69.4871 76.4095 69.8077 76.6417 69.9566L76.2995 69.5558V69.5787Z" fill="#DBFF0E"/>
<path fill-rule="evenodd" clip-rule="evenodd" d="M11.0602 102.261C11.5246 102.433 11.9768 102.616 12.429 102.799C12.5757 102.673 12.7957 102.696 12.9668 102.593C13.1868 102.456 13.3946 102.158 13.4801 101.917C13.6146 101.551 13.4068 101.253 13.2357 100.967C13.1135 100.784 13.0035 100.509 12.8201 100.383C12.6002 100.234 12.1846 100.291 11.9646 100.383C11.6835 100.509 11.488 100.772 11.3047 101.001C11.1335 101.219 10.9258 101.597 10.9258 101.872C10.9258 102.169 11.1702 102.49 11.4024 102.639L11.0602 102.238V102.261Z" fill="#DBFF0E"/>
<path fill-rule="evenodd" clip-rule="evenodd" d="M89.5245 80.446C89.3289 80.572 89.1701 80.7323 89.0479 80.927C89.2312 81.1446 89.329 81.3621 89.6467 81.4423C89.7812 81.4767 89.9156 81.4767 90.0134 81.385C90.1478 81.2591 90.0745 81.1217 90.1111 81.0071C90.1967 80.7094 90.2822 80.6407 90.1111 80.3659C90.0011 80.2055 89.9278 80.1368 89.7445 80.1368C89.61 80.1368 89.329 80.1712 89.2556 80.3086L89.5245 80.4346V80.446Z" fill="#DBFF0E"/>
<path fill-rule="evenodd" clip-rule="evenodd" d="M90.575 87.3055C90.5383 87.3857 90.1839 88.2217 90.6483 87.9812C90.8805 87.8552 90.795 87.5231 90.6483 87.4315C90.6483 87.4086 90.6605 87.3743 90.6727 87.3513L90.5872 87.3055H90.575Z" fill="#DBFF0E"/>
<path fill-rule="evenodd" clip-rule="evenodd" d="M113.673 99.7876C113.368 100.166 113.331 100.314 113.185 100.715C113.319 100.83 113.576 100.898 113.747 100.887C114.016 100.887 114.028 100.795 114.04 100.555C114.04 100.36 114.138 100.2 114.077 100.017C114.028 99.822 113.82 99.6273 113.588 99.7533L113.673 99.7991V99.7876Z" fill="#DBFF0E"/>
<path fill-rule="evenodd" clip-rule="evenodd" d="M94.2051 81.2706C94.3762 81.4194 94.4984 81.6141 94.5351 81.8317C94.2906 81.889 94.2662 81.6599 94.2295 81.4882C94.1684 81.2019 94.3151 81.2935 94.4617 81.0645C94.4862 81.0645 94.5106 81.0645 94.5473 81.0759L94.2173 81.2706H94.2051Z" fill="#DBFF0E"/>
<path fill-rule="evenodd" clip-rule="evenodd" d="M116.35 62.7422C116.154 62.8681 115.995 63.0285 115.873 63.2231C115.995 63.3605 115.934 63.601 116.203 63.5896C116.399 63.5781 116.545 63.3835 116.643 63.2346C116.753 63.0628 116.765 62.9254 116.777 62.7422C116.777 62.6506 116.777 62.2383 116.594 62.5131L116.35 62.7536V62.7422Z" fill="#DBFF0E"/>
<path fill-rule="evenodd" clip-rule="evenodd" d="M113.356 14.4517C113.576 14.3944 113.87 14.2799 114.102 14.2799C114.163 14.2799 114.249 14.3257 114.322 14.3257C114.554 14.3486 114.566 14.2914 114.689 14.4746C114.823 14.6807 114.884 14.8296 114.835 15.0586C114.701 15.8717 113.466 14.6464 113.894 14.3486L113.356 14.4402V14.4517Z" fill="#DBFF0E"/>
<path fill-rule="evenodd" clip-rule="evenodd" d="M19.3709 15.9061C18.9798 16.0206 18.3932 16.0549 18.3443 16.4786C18.3076 16.8451 18.9432 17.2115 19.2609 17.3146C19.8353 17.4864 20.7764 17.578 21.0575 16.971C21.2286 16.6161 21.0942 15.9175 20.862 15.6083C20.3853 14.967 19.3954 15.2304 18.6498 15.5053L19.3709 15.9061Z" fill="#DBFF0E"/>
<path fill-rule="evenodd" clip-rule="evenodd" d="M119.074 100.681C118.903 99.4211 118.659 98.1844 119.844 97.5316C120.492 97.1767 121.677 97.0507 122.288 97.4744C122.728 97.7836 123.12 98.3562 123.401 98.7913C123.804 99.4211 123.706 99.4326 123.486 100.005C122.997 101.334 122.667 102.215 121.25 102.215C119.38 102.215 119.099 100.853 119.074 99.1692V100.692V100.681Z" fill="#DBFF0E"/>
<path fill-rule="evenodd" clip-rule="evenodd" d="M119.906 65.3989C120.432 65.2615 120.872 65.0096 121.251 64.6317C120.872 64.4141 120.053 63.9675 119.906 64.6317V65.4104V65.3989Z" fill="#DBFF0E"/>
<path fill-rule="evenodd" clip-rule="evenodd" d="M14.0293 97.3484C14.5548 97.211 14.9948 96.9591 15.3737 96.5812C14.9948 96.3636 14.176 95.917 14.0293 96.5812V97.3599V97.3484Z" fill="#DBFF0E"/>
<path fill-rule="evenodd" clip-rule="evenodd" d="M14.0293 107.884C14.5548 107.746 14.9948 107.494 15.3737 107.116C14.9948 106.899 14.176 106.452 14.0293 107.116V107.895V107.884Z" fill="#DBFF0E"/>
<path fill-rule="evenodd" clip-rule="evenodd" d="M93.1909 70.1742C93.7042 69.5787 94.462 68.4908 95.3908 69.0863C95.9408 69.4299 96.0874 70.346 95.5741 70.7124C95.0853 71.056 94.6453 71.1476 94.0953 71.285C93.6798 71.388 93.0565 71.1361 93.1787 70.5521V70.1627L93.1909 70.1742Z" fill="#DBFF0E"/>
<path fill-rule="evenodd" clip-rule="evenodd" d="M110.751 97.3026C111.265 96.7071 112.023 95.6193 112.951 96.2147C113.501 96.5583 113.648 97.4744 113.135 97.8408C112.646 98.1844 112.206 98.276 111.656 98.4134C111.24 98.5165 110.617 98.2645 110.739 97.6805V97.2912L110.751 97.3026Z" fill="#DBFF0E"/>
<path fill-rule="evenodd" clip-rule="evenodd" d="M108.113 7.38623C108.919 7.5122 110.3 7.59236 110.215 8.64588C110.166 9.26426 109.384 9.83683 108.785 9.59635C108.235 9.36732 107.929 9.05814 107.526 8.68024C107.22 8.39395 107.159 7.76413 107.758 7.5809L108.113 7.38623Z" fill="#DBFF0E"/>
<path fill-rule="evenodd" clip-rule="evenodd" d="M105.228 104.334C105.741 103.738 106.499 102.65 107.428 103.246C107.978 103.589 108.125 104.506 107.611 104.872C107.122 105.215 106.682 105.307 106.132 105.445C105.717 105.548 105.094 105.296 105.216 104.712V104.322L105.228 104.334Z" fill="#DBFF0E"/>
<path fill-rule="evenodd" clip-rule="evenodd" d="M81.2876 69.2696C80.6276 69.6589 79.5032 70.1513 79.3932 71.0102C79.3199 71.5255 79.5765 71.8232 80.0776 72.0522C80.5054 72.2469 81.1287 72.2584 81.5564 72.0522C82.1675 71.766 82.8642 71.2965 83.133 70.6895C83.3286 70.2544 83.2919 69.9566 83.0842 69.5215C82.9619 69.2925 82.7297 69.0062 82.4608 68.926C81.6175 68.6512 81.1042 69.4299 80.4809 69.7849L81.2876 69.281V69.2696Z" fill="#DBFF0E"/>
<path fill-rule="evenodd" clip-rule="evenodd" d="M83.438 67.0022C83.8047 67.1167 84.1102 67.3114 84.3547 67.5633C84.0002 67.6778 83.6091 67.9412 83.2425 67.8267C82.7658 67.6664 82.6803 67.2427 82.778 66.8075C82.8392 66.5785 83.2914 66.1662 83.548 66.2693C83.6825 66.3265 83.7069 66.4869 83.7436 66.5899C83.8291 66.8075 83.8413 66.7617 83.7069 67.0022H83.438Z" fill="#DBFF0E"/>
<path fill-rule="evenodd" clip-rule="evenodd" d="M101.745 63.269C99.9973 64.7119 98.3474 66.4296 97.4063 68.4909C96.9297 69.5444 97.773 69.5902 98.7874 69.407C100.755 69.052 102.735 68.5367 104.69 68.0672C105.839 67.7923 107.501 67.2197 108.296 66.3036C108.907 65.6051 109.164 64.3913 109.029 63.498C108.846 62.2613 107.905 61.7803 106.707 61.4711C103.969 60.7612 100.083 63.5324 99.0563 65.9028L101.733 63.269H101.745Z" fill="#DBFF0E"/>
<path fill-rule="evenodd" clip-rule="evenodd" d="M91.968 72.6134C92.5425 72.6249 93.068 72.7623 93.5569 73.0027C93.4102 73.1631 93.4591 73.3692 93.3858 73.5639C93.2758 73.8387 92.9947 74.1135 92.738 74.2739C92.298 74.5372 91.577 74.6289 91.0881 74.4571C89.6215 73.9303 91.8703 72.3042 92.3714 72.8768L91.968 72.6248V72.6134Z" fill="#DBFF0E"/>
<path fill-rule="evenodd" clip-rule="evenodd" d="M105.227 8.61147C105.728 8.93211 106.266 9.18404 106.645 9.61919C107.085 10.1231 107.512 10.5811 107.855 11.1422C108.026 11.4285 108.441 12.0469 107.83 12.127C107.17 12.2072 106.009 11.4056 105.532 11.085C104.714 10.5468 103.919 10.0543 103.333 9.27565C103.039 8.8863 102.575 8.19922 102.88 7.72971C103.137 7.32891 103.504 7.2602 103.968 7.27166C104.457 7.27166 104.738 7.42052 105.117 7.70681C105.288 7.84423 106.144 8.65728 105.862 8.87485L105.251 8.62292L105.227 8.61147Z" fill="#DBFF0E"/>
<path fill-rule="evenodd" clip-rule="evenodd" d="M111.595 60.8986C111.351 61.0589 109.493 62.0323 110.385 62.4445C110.862 62.6735 111.791 62.6048 112.28 62.4101C112.707 62.2384 113.147 61.975 112.878 61.5169C112.328 60.5779 110.972 61.1276 110.263 61.5284L111.607 60.8986H111.595Z" fill="#DBFF0E"/>
<path fill-rule="evenodd" clip-rule="evenodd" d="M14.7021 103.063C14.8977 104.082 15.1177 105.193 16.071 105.868C17.0487 106.567 18.1609 106.28 19.1264 105.754C19.8353 105.364 20.5197 104.941 21.2163 104.54C21.6196 104.311 21.9741 104.242 21.9985 103.704C22.0229 103.12 21.4363 102.33 21.0819 101.895C20.6541 101.368 19.7864 100.727 19.1142 100.498C17.6476 99.9822 14.861 100.498 14.8977 102.353L14.7021 103.074V103.063Z" fill="#DBFF0E"/>
<path fill-rule="evenodd" clip-rule="evenodd" d="M112.488 105.067C112.623 105.777 112.782 106.567 113.442 107.036C114.126 107.529 114.908 107.323 115.58 106.956C116.081 106.681 116.558 106.384 117.047 106.097C117.328 105.937 117.585 105.891 117.597 105.513C117.609 105.101 117.206 104.551 116.961 104.242C116.656 103.876 116.057 103.429 115.58 103.257C114.554 102.902 112.598 103.257 112.623 104.563L112.488 105.067Z" fill="#DBFF0E"/>
<path fill-rule="evenodd" clip-rule="evenodd" d="M115.873 65.422C115.873 71.7889 110.361 76.9421 103.578 76.9421C96.7952 76.9421 91.2832 71.7775 91.2832 65.422C91.2832 59.0664 96.7952 53.9019 103.578 53.9019C110.361 53.9019 115.873 59.0664 115.873 65.422Z" fill="url(#paint23_radial_2521_4421)" style="mix-blend-mode:screen"/>
<path fill-rule="evenodd" clip-rule="evenodd" d="M111.437 14.2341C109.885 16.2381 105.974 16.0777 102.723 13.8562C99.4599 11.6346 98.0911 8.21062 99.6432 6.20663C101.195 4.20263 105.106 4.36295 108.357 6.58452C111.621 8.8061 112.989 12.2301 111.437 14.2341Z" fill="url(#paint24_radial_2521_4421)" style="mix-blend-mode:screen"/>
<path fill-rule="evenodd" clip-rule="evenodd" d="M95.9023 1.13364C95.9023 1.13364 99.1167 13.9134 108.148 18.7344C119.576 24.8266 127.557 22.6852 127.557 22.6852C127.557 22.6852 117.339 22.3531 107.892 16.3068C100.009 11.2681 95.9023 1.12219 95.9023 1.12219V1.13364Z" fill="url(#paint25_linear_2521_4421)"/>
<path opacity="0.4" fill-rule="evenodd" clip-rule="evenodd" d="M74.4556 99.7073L80.5175 91.3478C80.5175 91.3478 88.3028 112.086 108.481 118.579L104.057 121.247C104.057 121.247 83.4752 115.762 74.4434 99.6959L74.4556 99.7073Z" fill="url(#paint26_linear_2521_4421)" style="mix-blend-mode:multiply"/>
<path fill-rule="evenodd" clip-rule="evenodd" d="M85.9429 7.40906C85.9429 7.40906 115.043 34.8581 135.991 47.0653C135.991 47.0653 133.962 39.5646 128.316 32.6594C128.316 32.6594 110.728 27.2429 85.9307 7.42051L85.9429 7.40906Z" fill="url(#paint27_linear_2521_4421)" style="mix-blend-mode:multiply"/>
<path fill-rule="evenodd" clip-rule="evenodd" d="M65.8747 21.1852C71.5945 29.3272 65.2392 42.7024 51.6853 51.0619C38.1315 59.4215 22.5121 59.5932 16.7924 51.4513C11.0726 43.3093 17.4279 29.9341 30.9818 21.5746C44.5356 13.2151 60.155 13.0433 65.8747 21.1852Z" fill="url(#paint28_radial_2521_4421)" style="mix-blend-mode:screen"/>
<defs>
<linearGradient id="paint0_linear_2521_4421" x1="23.5019" y1="33.713" x2="23.5019" y2="11.0049" gradientUnits="userSpaceOnUse">
<stop stop-color="#0051B3"/>
<stop offset="1" stop-color="#72F3FF"/>
</linearGradient>
<linearGradient id="paint1_linear_2521_4421" x1="18.1366" y1="34.8696" x2="26.2258" y2="8.50595" gradientUnits="userSpaceOnUse">
<stop stop-color="#00058B"/>
<stop offset="1" stop-color="#0080FF"/>
</linearGradient>
<radialGradient id="paint2_radial_2521_4421" cx="0" cy="0" r="1" gradientUnits="userSpaceOnUse" gradientTransform="translate(26.656 38.2248) scale(112.415 105.33)">
<stop stop-color="#FCFF60"/>
<stop offset="0.11" stop-color="#F6FF5D"/>
<stop offset="0.24" stop-color="#E5FF56"/>
<stop offset="0.4" stop-color="#C9FF4C"/>
<stop offset="0.56" stop-color="#A3FF3C"/>
<stop offset="0.68" stop-color="#83FF30"/>
<stop offset="0.73" stop-color="#7CFA30"/>
<stop offset="0.79" stop-color="#68EE32"/>
<stop offset="0.87" stop-color="#49DA36"/>
<stop offset="0.95" stop-color="#1DBE3B"/>
<stop offset="1" stop-color="#00AB3F"/>
</radialGradient>
<linearGradient id="paint3_linear_2521_4421" x1="0.0116894" y1="50.9015" x2="100.682" y2="50.9015" gradientUnits="userSpaceOnUse">
<stop stop-color="#D1FF81"/>
<stop offset="0.36" stop-color="#CEFF82"/>
<stop offset="0.63" stop-color="#C4FF87"/>
<stop offset="0.86" stop-color="#B4FF8F"/>
<stop offset="1" stop-color="#A7FF97"/>
</linearGradient>
<linearGradient id="paint4_linear_2521_4421" x1="101.71" y1="128.336" x2="101.71" y2="97.5431" gradientUnits="userSpaceOnUse">
<stop stop-color="#B8C2FF"/>
<stop offset="1" stop-color="#5B729C"/>
</linearGradient>
<linearGradient id="paint5_linear_2521_4421" x1="0.647432" y1="32.3502" x2="88.6559" y2="32.3502" gradientUnits="userSpaceOnUse">
<stop stop-color="#B8C2FF"/>
<stop offset="1" stop-color="#7D72B3"/>
</linearGradient>
<linearGradient id="paint6_linear_2521_4421" x1="14.9355" y1="93.7298" x2="139.976" y2="93.7298" gradientUnits="userSpaceOnUse">
<stop stop-color="#B8C2FF"/>
<stop offset="1" stop-color="#7D72B3"/>
</linearGradient>
<linearGradient id="paint7_linear_2521_4421" x1="7.54051" y1="69.4985" x2="132.336" y2="69.4985" gradientUnits="userSpaceOnUse">
<stop stop-color="#B8C2FF"/>
<stop offset="1" stop-color="#7D72B3"/>
</linearGradient>
<linearGradient id="paint8_linear_2521_4421" x1="0.0122217" y1="53.1574" x2="122.681" y2="53.1574" gradientUnits="userSpaceOnUse">
<stop stop-color="#B8C2FF"/>
<stop offset="1" stop-color="#7D72B3"/>
</linearGradient>
<linearGradient id="paint9_linear_2521_4421" x1="90.8931" y1="43.6757" x2="92.5675" y2="43.6757" gradientUnits="userSpaceOnUse">
<stop stop-color="#E8DDFF"/>
<stop offset="1" stop-color="#AA8AD8"/>
</linearGradient>
<linearGradient id="paint10_linear_2521_4421" x1="4.39844" y1="72.8309" x2="4.75287" y2="72.8309" gradientUnits="userSpaceOnUse">
<stop stop-color="#E8DDFF"/>
<stop offset="1" stop-color="#AA8AD8"/>
</linearGradient>
<linearGradient id="paint11_linear_2521_4421" x1="83.4121" y1="16.3297" x2="128.315" y2="16.3297" gradientUnits="userSpaceOnUse">
<stop stop-color="#72D2FF"/>
<stop offset="1" stop-color="#0030B3"/>
</linearGradient>
<linearGradient id="paint12_linear_2521_4421" x1="93.606" y1="117.343" x2="113.846" y2="51.3926" gradientUnits="userSpaceOnUse">
<stop stop-color="#04006B"/>
<stop offset="1" stop-color="#2B23C9"/>
</linearGradient>
<linearGradient id="paint13_linear_2521_4421" x1="100.129" y1="116.024" x2="119.442" y2="53.109" gradientUnits="userSpaceOnUse">
<stop stop-color="#0300B3"/>
<stop offset="1" stop-color="#36C9FF"/>
</linearGradient>
<linearGradient id="paint14_linear_2521_4421" x1="107.612" y1="98.1843" x2="107.612" y2="53.1574" gradientUnits="userSpaceOnUse">
<stop stop-color="#00AEFF"/>
<stop offset="1" stop-color="#45CEFF"/>
</linearGradient>
<linearGradient id="paint15_linear_2521_4421" x1="30.5647" y1="124.248" x2="30.5647" y2="97.8179" gradientUnits="userSpaceOnUse">
<stop stop-color="#81A9CE"/>
<stop offset="1" stop-color="#5B729C"/>
</linearGradient>
<linearGradient id="paint16_linear_2521_4421" x1="22.6325" y1="116.655" x2="30.9932" y2="89.411" gradientUnits="userSpaceOnUse">
<stop stop-color="#04006B"/>
<stop offset="1" stop-color="#2B23C9"/>
</linearGradient>
<linearGradient id="paint17_linear_2521_4421" x1="80.1854" y1="139.993" x2="80.1854" y2="128.336" gradientUnits="userSpaceOnUse">
<stop stop-color="#003CB3"/>
<stop offset="0.92" stop-color="#7006FC"/>
<stop offset="1" stop-color="#7006F9"/>
</linearGradient>
<linearGradient id="paint18_linear_2521_4421" x1="23.1965" y1="120.961" x2="23.1965" y2="87.4428" gradientUnits="userSpaceOnUse">
<stop stop-color="#0300B3"/>
<stop offset="1" stop-color="#36C9FF"/>
</linearGradient>
<linearGradient id="paint19_linear_2521_4421" x1="25.0791" y1="120.95" x2="25.0791" y2="87.443" gradientUnits="userSpaceOnUse">
<stop stop-color="#00AEFF"/>
<stop offset="1" stop-color="#45CEFF"/>
</linearGradient>
<linearGradient id="paint20_linear_2521_4421" x1="76.6912" y1="76.7015" x2="82.0117" y2="59.3765" gradientUnits="userSpaceOnUse">
<stop stop-color="#00058B"/>
<stop offset="1" stop-color="#0080FF"/>
</linearGradient>
<linearGradient id="paint21_linear_2521_4421" x1="78.7811" y1="75.4647" x2="83.1786" y2="61.1299" gradientUnits="userSpaceOnUse">
<stop stop-color="#004DCA"/>
<stop offset="1" stop-color="#3683FF"/>
</linearGradient>
<linearGradient id="paint22_linear_2521_4421" x1="103.602" y1="25.0671" x2="109.954" y2="4.37009" gradientUnits="userSpaceOnUse">
<stop stop-color="#00058B"/>
<stop offset="1" stop-color="#0080FF"/>
</linearGradient>
<radialGradient id="paint23_radial_2521_4421" cx="0" cy="0" r="1" gradientUnits="userSpaceOnUse" gradientTransform="translate(103.566 65.422) scale(12.295 11.5201)">
<stop stop-color="#317AFF"/>
<stop offset="0.1" stop-color="#2967D7"/>
<stop offset="0.29" stop-color="#1C4896"/>
<stop offset="0.47" stop-color="#122E60"/>
<stop offset="0.64" stop-color="#0A1A37"/>
<stop offset="0.78" stop-color="#040B18"/>
<stop offset="0.91" stop-color="#010306"/>
<stop offset="1"/>
</radialGradient>
<radialGradient id="paint24_radial_2521_4421" cx="0" cy="0" r="1" gradientTransform="matrix(5.90362 4.01742 -2.82985 3.65081 105.882 9.74851)" gradientUnits="userSpaceOnUse">
<stop stop-color="#317AFF"/>
<stop offset="0.1" stop-color="#2967D7"/>
<stop offset="0.29" stop-color="#1C4896"/>
<stop offset="0.47" stop-color="#122E60"/>
<stop offset="0.64" stop-color="#0A1A37"/>
<stop offset="0.78" stop-color="#040B18"/>
<stop offset="0.91" stop-color="#010306"/>
<stop offset="1"/>
</radialGradient>
<linearGradient id="paint25_linear_2521_4421" x1="111.729" y1="23.0631" x2="111.729" y2="1.13364" gradientUnits="userSpaceOnUse">
<stop stop-color="#00AAD9"/>
<stop offset="1" stop-color="#42E3FF"/>
</linearGradient>
<linearGradient id="paint26_linear_2521_4421" x1="91.4682" y1="121.259" x2="91.4682" y2="91.3478" gradientUnits="userSpaceOnUse">
<stop stop-color="#B8C2FF"/>
<stop offset="1" stop-color="#7D72B3"/>
</linearGradient>
<linearGradient id="paint27_linear_2521_4421" x1="110.973" y1="47.0538" x2="110.973" y2="7.40906" gradientUnits="userSpaceOnUse">
<stop stop-color="#81A9CE"/>
<stop offset="1" stop-color="#5B729C"/>
</linearGradient>
<radialGradient id="paint28_radial_2521_4421" cx="0" cy="0" r="1" gradientTransform="matrix(24.5878 -15.1563 10.3641 14.761 40.9769 37.0326)" gradientUnits="userSpaceOnUse">
<stop stop-color="#06FEFF"/>
<stop offset="0.17" stop-color="#04C4C4"/>
<stop offset="0.4" stop-color="#037F7F"/>
<stop offset="0.6" stop-color="#014848"/>
<stop offset="0.78" stop-color="#002121"/>
<stop offset="0.92" stop-color="#000808"/>
<stop offset="1"/>
</radialGradient>
</defs>
</svg>
