<svg xmlns="http://www.w3.org/2000/svg" fill="none" viewBox="0 0 150 150"><path fill="url(#a)" fill-rule="evenodd" d="M15.082 36.121s.868-7.398 1.438-11.46c0 0 5.107-7.067 13.252-12.87l10.846.564s-21.854 17.35-25.524 23.766z" clip-rule="evenodd"/><path fill="url(#b)" fill-rule="evenodd" d="M29.76 11.79s0 5.951-5.492 10.663c-5.492 4.7-7.872 3.055-7.872 3.055l-1.314 9.484 25.524-22.624-10.847-.565z" clip-rule="evenodd"/><path fill="url(#c)" fill-rule="evenodd" d="M145.975 73.813c0 6.748-.954 13.287-2.776 19.459-3.595 12.416-10.562 23.397-19.872 31.974a71.1 71.1 0 0 1-23.144 14.269c-7.834 2.957-16.313 4.552-25.201 4.552a65 65 0 0 1-3.781-.098h-.013c-1.859-.086-3.706-.27-5.516-.491a70.9 70.9 0 0 1-36.26-15.803 69 69 0 0 1-10.276-10.515 70 70 0 0 1-6.223-9.214c-.434-.773-.855-1.558-1.277-2.344a.2.2 0 0 0-.024-.073 54 54 0 0 1-1.228-2.552h-.012a67 67 0 0 1-3.173-8.307 62 62 0 0 1-1.662-6.282c-.012-.012-.012-.049-.012-.06a68 68 0 0 1-.793-4.54 68 68 0 0 1-.72-9.963c0-1.939.075-3.89.261-5.78.087-1.214.223-2.416.384-3.618a68.5 68.5 0 0 1 5.678-19.62 69 69 0 0 1 4.748-8.674A70 70 0 0 1 25.508 23.46c12.78-12.318 30.235-19.9 49.474-19.9.743 0 1.5.011 2.231.024.793.024 1.587.061 2.38.122a71.7 71.7 0 0 1 11.913 1.78c2.244.54 4.45 1.153 6.607 1.901a68 68 0 0 1 7.463 3.03c.186.087.359.16.545.258a71 71 0 0 1 18.558 12.994c.781.736 1.524 1.509 2.281 2.294.495.54.991 1.08 1.462 1.632a69.2 69.2 0 0 1 9.793 14.294 68.2 68.2 0 0 1 5.666 15.005 69.4 69.4 0 0 1 2.082 16.932z" clip-rule="evenodd"/><path fill="url(#d)" fill-rule="evenodd" d="M106.121 10.662a7 7 0 0 0-.707.098c-.805.148-1.425.074-2.219-.147-.57-.16-.967-.393-1.574-.49-.868-.136-1.661-.504-2.529-.614-.905-.123-1.698-.479-2.566-.785-.682-.246-1.029-.16-1.686 0-.657.171-1.103-.099-1.686-.344-.657-.282-1.301-.331-1.995-.466-1.798-.368-3.583-.933-5.368-1.387-1.103-.282-2.132-.282-3.26-.294-.88-.012-1.686.245-2.579.245-.595 0-1.09-.098-1.686-.184-.607-.11-1.215.012-1.822-.073-.892-.135-1.376-.27-2.293.012-.682.22-1.203.196-1.885.233-.756.037-1.599.233-2.342.405-1.327.307-2.777.552-4.153.527-.843 0-2.07-.233-2.864.05-.52.184-.78.736-1.128 1.091-.694.712-1.537 1.338-2.12 2.135-.582.798-1.227 1.608-1.177 2.614.05.87.459 1.877.843 2.662.396.847.533 1.607-.347 2.172-1.091.724-2.368 1.374-3.62 1.73-.843.245-1.587.392-2.293-.209-.26-.22-.422-.65-.744-.822-.335-.172-.682 0-1.03.11-.88.258-1.747.553-2.652.7-.558.086-1.029.38-1.574.479-.657.122-1.116-.356-1.798-.197-.942.221-1.896.614-2.876.663-.706.037-1.586-.27-2.181-.626-.348-.196-.434-.393-.83-.282-.323.073-.807.466-.968.711-.235.332-.322.761-.558 1.092-.248.38-.483.749-.706 1.141-.41.786-.893 1.51-1.401 2.209-.372.49-.632 1.141-1.029 1.595-.21.245-.67.417-.93.601-.743.515-1.512.97-2.231 1.521-1.376 1.068-2.69 2.258-4.09 3.289-1.067.797-2.58 1.251-3.794 1.754-.769.307-1.55.528-2.318.847-.248.098-.707.208-.905.392-.273.234-.422.663-.67.97-.669.81-1.363 1.607-1.871 2.54-.31.54-.496 1.08-.695 1.668-.272.798-.706 1.522-.966 2.319-.558 1.656-.67 3.386-1.277 5.03-.36.957-.88 1.84-1.314 2.712-.769 1.485-.88 3.251-1.091 4.896-.124.956-.075 2.073.099 3.005.186 1.007.136 2.062.124 3.092 0 1.092-.72 2.172-1.413 2.994-.645.773-1.612 1.055-2.33 1.742-.608.59-1.327 1.252-1.587 2.086-.112.368 0 .785-.075 1.166-.161.87-.384 1.68-.508 2.564-.136 1.08-.161 2.11-.161 3.202 0 .552-.037 1.105 0 1.657.025.527.223 1.006.26 1.533.025.368-.05.737 0 1.092.074.417.236.847.335 1.24.248.969.434 1.926.62 2.895.173.896.533 1.791.818 2.675.396 1.19.657 2.43.892 3.668.186.92.174 1.89.31 2.822.112.761.285 1.522.323 2.282.037 1.141-.248 2.295-.26 3.448 0 1.951.78 3.902 1.226 5.779.137.528.273 1.055.422 1.583a69.5 69.5 0 0 1-7.624-31.704c0-13.865 4.066-26.797 11.07-37.692A70.5 70.5 0 0 1 25.532 23.41C38.325 11.104 55.767 3.52 75.02 3.52c1.549 0 3.074.05 4.599.148 9.47.6 18.433 3.03 26.515 6.956z" clip-rule="evenodd"/><path fill="url(#e)" fill-rule="evenodd" d="M79.52 106.829s6.631 9.681 15.395 17.533c8.777 7.853 10.054 13.128 10.054 13.128s16.574-6.858 28.4-23.103c11.826-16.244-53.862-7.558-53.862-7.558z" clip-rule="evenodd" style="mix-blend-mode:multiply"/><path fill="url(#f)" fill-rule="evenodd" d="M91.506 5.484a71.7 71.7 0 0 0-11.913-1.779c-.794-.061-1.587-.086-2.38-.122 1.698.932 3.26 2.576 3.657 4.27.644 2.895 1.586 5.57 2.132 8.465.545 2.847.434 6.38-.868 8.957a16.8 16.8 0 0 1-3.1 4.356c-.929.932-1.722 1.447-2.38 2.613-.656 1.129-1.288 2.22-2.032 3.288-1.103 1.607-2.281 3.313-3.546 4.773-.446.527-.942.908-1.35 1.521-.51.773-.745 1.497-1.302 2.11-1.277 1.411-3.248 2.197-5.009 2.835-2.28.846-4.214 1.791-6.346 2.92-3.013 1.57-5.48 3.582-9 3.68-1.166.025-2.38-.134-3.546-.024-1.45.123-2.801.81-4.24 1.08-1.264.233-2.516.49-3.78.7-2.07.306-3.78 1.005-5.764 1.484-2.591.638-5.306.478-7.91.834-2.354.307-4.387.59-6.73.025-3.608-.896-5.542-2.577-4.785-6.38.508-2.491.334-4.393-.955-6.307a68.5 68.5 0 0 0-5.677 19.619c1.71.712 3.657 1.08 5.169 1.227 5.256.54 10.921-1.792 15.73-3.57 2.455-.92 4.96-2.258 7.612-2.553 2.79-.294 5.244.05 8.033-.638 9.607-2.343 19.078-5.668 27.644-10.686 3.545-2.074 5.12-5.043 7.599-8.049 2.17-2.626 4.611-4.81 7.202-6.994 2.541-2.147 4.797-4.282 6.31-7.3 1.599-3.177 2.963-6.662 3.706-10.146.781-3.681-.186-7.227-2.144-10.22zm-.472 9.546c-.148.785-.26 1.632-.495 2.368-.62 1.877-1.748 3.828-3.533 4.822-.819.454-1.922.184-2.393-.638-.26-.442-.26-1.006-.347-1.497-.174-.97-.297-1.914-.285-2.908a68 68 0 0 0-.285-7.08c.26 1.35-.062-2 2.07-2.92 1.004-.441 2.516-.049 3.285.724.955.97 1.178 2.602 1.537 3.853.31 1.129.657 2.074.447 3.264z" clip-rule="evenodd" opacity=".4" style="mix-blend-mode:multiply"/><path fill="url(#g)" fill-rule="evenodd" d="M80.758 127.184c-.21.025-.409.074-.595.086l1.413.135c-.173-.049-.483-.147-.805-.221zm0 0c-.21.025-.409.074-.595.086l1.413.135c-.173-.049-.483-.147-.805-.221zm63.135-70.303c-.025 1.84-.558 3.668-.595 5.52-.05 2.467-.459 4.381-1.104 6.75-.446 1.63-1.289 2.833-1.847 4.404-.632 1.803-1.524 3.35-2.454 5.018-1.847 3.325-3.682 6.638-4.475 10.404-.719 3.399-.868 6.258-2.579 9.374-1.636 2.994-4.103 5.485-5.863 8.392-.818 1.399-1.388 1.326-2.64 2.197-1.389.981-2.666 2.515-4.017 3.607-2.901 2.294-5.553 3.889-9.074 5.19-2.207.834-4.339 1.484-6.682 1.84-1.524.233-3.024 0-4.537.258-2.392.38-4.673 1.092-6.979 1.84-3.793 1.215-7.66 1.914-11.43 3.068-2.64.797-5.218 1.276-7.896 1.84-1.636.344-2.95 1.215-4.648.871-1.711-.356-3.26-.92-4.946-1.435-2.145-.651-3.905-.7-6.223-.7-3.075 0-6.632.454-9.67-.122-3.421-.651-6.818-1.559-10.227-2.258-2.07-.429-3.644-1.276-5.528-2.147-1.773-.81-3.67-1.055-5.517-1.632-1.946-.613-3.818-1.509-5.814-2a69 69 0 0 0 10.277 10.515 70.9 70.9 0 0 0 36.26 15.803c1.81.221 3.656.405 5.516.491h.012c4.016-.908 7.946-2.074 11.987-3.313 6.731-2.074 12.545-6.098 19.264-8.049 2.504-.736 4.748-1.546 7.091-2.687 1.723-.846 3.545-1.067 5.293-1.803 6.248-2.626 10.958-8.626 13.735-14.515 1.265-2.675 2.467-5.693 4.736-7.693.929-.834 2.033-1.558 2.851-2.491.917-1.018 1.525-2.294 2.343-3.41 1.425-1.988 2.801-3.988 4.227-5.988.186-.233.347-.478.483-.724A69 69 0 0 0 146 73.837a69.4 69.4 0 0 0-2.082-16.932zm-65.118 70.806c.26-.159.67-.503.942-.576.273-.086.67-.013 1.029.073.52-.073 1.053-.135 1.537.074.285.135.818.38.942.711.136.307-.05.503-.26.712-.273.27-.484.27-.856.344-.78.147-1.55.282-2.355.208-.483-.049-1.202-.073-1.5-.515-.285-.43.136-.785.496-1.019zm4.66 9.165c-.433.553-.867 1.117-1.437 1.522-.533.417-1.14.662-1.723.994-1.438.797-2.926 1.656-4.537 2.073-.645.16-1.29.135-1.959.172-.806.074-1.599.086-2.417.098-.955.012-1.884.209-2.851.27-.955.049-1.897.074-2.864.135-1.587.098-3-.16-4.5-.699-1.351-.491-2.74-1.117-3.954-1.914-.856-.565-1.587-1.362-2.318-2.074-.694-.638-1.24-1.325-1.637-2.184-.136-.307-.285-.638-.21-.981.024-.16.099-.295.099-.344.273-.209.545-.405.793-.503.508-.221 1.079-.331 1.624-.38 1.302-.184 2.727.049 4.029.147.78.061 1.463.098 2.231-.012 1.017-.148 2.033-.454 3.025-.724 2.392-.638 4.748-1.141 7.227-1.411 2.454-.27 5.033-.54 7.512-.123.93.147 2.058.417 2.864.945.595.405 1.078 1.043 1.413 1.681.57 1.079.335 2.355-.41 3.288zm18.806-6.085c-.434.503-1.066.797-1.599 1.165-.744.516-1.537.933-2.318 1.375-.657.38-1.29.699-1.984 1.006-.669.306-1.363.625-2.033.969-.731.368-1.524.626-2.305.883-.57.209-1.178.454-1.798.356-.496-.098-1.053-.294-1.413-.662-.545-.565-.446-1.166-.273-1.424 0-.515-.148-1.263.013-1.766.099-.295.458-.737.632-1.043.632-1.129 1.525-1.939 2.467-2.835.818-.785 1.624-1.374 2.727-1.766 1.24-.417 2.665-.516 3.954-.687 1.414-.16 3.794-.27 4.426 1.337.434 1.116.285 2.135-.496 3.067zm-20.677-3.362c-.174-.049-.483-.147-.806-.221-.21.025-.409.074-.595.086l1.413.135z" clip-rule="evenodd" opacity=".4" style="mix-blend-mode:multiply"/><path fill="url(#h)" fill-rule="evenodd" d="M138.227 41.875v.282c-.087 1.939-.88 3.276-1.587 5.043-.57 1.423-1.227 2.7-1.959 4.05-1.239 2.257-1.822 4.38-2.739 6.796-1.426 3.78-2.145 7.656-4.376 11.092-2.008 3.067-2.467 6.834-4.103 10.11-1.847 3.668-4.661 6.282-7.686 8.956-1.351 1.203-2.467 2.638-3.682 3.939-1.289 1.374-2.293 3.153-3.83 4.257-3.347 2.405-6.992 4.479-10.264 7.018-1.959 1.51-3.36 3.534-5.517 4.785-2.157 1.276-4.5 2.16-6.632 3.46-1.934 1.166-3.83 2.43-5.938 3.276-2.392.945-4.388.663-6.842.786-2.728.122-5.542.834-8.108 1.705-2.132.736-3.904 1.497-6.086.736-1.438-.503-2.74-1.435-4.252-1.754-3.52-.712-7.537 0-11.12-.086-2.801-.074-5.888-.712-8.627-1.264-2.703-.515-4.897-2.393-7.513-3.141-3.223-.932-6.979-.135-10.103-1.35-1.277-.49-2.491-1.496-3.607-2.196-.236-.147-.484-.294-.719-.441-.434-.773-.855-1.559-1.277-2.344.769.307 1.525.65 2.306 1.018 4.078 1.927 9.148 1.632 13.55 2.393 4.945.859 9.891 2.135 14.875 2.699 2.02.221 4.066.209 6.062-.012 2.813-.307 5.739-.27 8.516-.736 4.822-.847 9.532-3.104 14.528-2.466.93.122 1.959.613 2.901.589 1.388-.05 2.355-1.252 3.471-1.939 1.983-1.227 4.066-.994 5.801-2.613 1.711-1.583 3.595-2.614 5.678-3.644 5.43-2.724 9.818-7.166 14.07-11.374 3.57-3.51 7.029-7.239 9.471-11.631 2.392-4.32 1.921-9.448 3.719-13.926 1.301-3.202 2.392-6.208 4.512-9.03 1.016-1.35 2.268-2.503 3.347-3.792 1.153-1.374 1.859-2.87 2.739-4.417.98-1.717 2.207-3.312 2.988-5.128.731-1.755.669-3.288.644-5.117-.024-2 0-4.036 0-6.036a69 69 0 0 1 7.401 11.447z" clip-rule="evenodd" opacity=".4" style="mix-blend-mode:multiply"/><path fill="url(#i)" fill-rule="evenodd" d="M126.959 25.95a57 57 0 0 0-2.281-2.295 71.4 71.4 0 0 0-18.557-12.993c-.186-.086-.359-.16-.545-.258a81 81 0 0 0-3.137-1.398 68 68 0 0 0-4.326-1.632c.459.294 1.004.527 1.178.626.88.441 1.599.736 2.219 1.521.595.773.867 1.35.917 2.331.025.92.161 1.865.335 2.785.148.847.57 1.645.743 2.491.087.503.162.945.335 1.448.372 1.165.769 2.331 1.017 3.546.446 2.16-.719 3.963-1.5 5.926-1.228 3.129-2.009 6.306-2.926 9.533-.719 2.552-2.132 5.067-4.078 6.908-1.91 1.828-4.723 2.245-6.434 4.208-1.5 1.73-3.347 3.386-5.454 4.356-2.443 1.153-5.02 2.049-7.612 2.834-1.86.552-3.805.589-5.677 1.08-2.318.576-4.45 1.73-6.632 2.674-2.318.994-4.5 2.27-6.83 3.264-2.356.982-4.538 2.319-6.88 3.264-1.141.454-2.344.687-3.496 1.08-2.393.834-4.723 2.343-7.265 2.637-.88.098-1.785.307-2.653.307-.706.012-1.338.086-2.008.344-2.219.858-3.582 3.337-6.123 3.35-2.343 0-4.65-.087-6.967.183-1.128.135-2.244.062-3.372.074-.335 0-.769.073-1.09-.062-.373-.147-.794-.503-1.166-.711-.843-.454-1.649-1.055-2.393-1.62-1.462-1.129-3.421-.503-5.107-.846-.508-.099-1.264-.05-1.71-.295-1.054-.626-2.368-1.902-3.224-2.613A64 64 0 0 0 4 73.776c0 3.386.236 6.699.719 9.962.21 1.522.483 3.043.793 4.54 0 .012 0 .05.013.061a62 62 0 0 0 1.66 6.282 67 67 0 0 0 3.174 8.307h.013c1.934.306 3.93.564 5.876.282 2.776-.405 5.528-.834 8.342-.724 2.64.123 5.095 1.006 7.674 1.435 2.888.479 5.9.859 8.838 1.056 2.678.159 5.343.38 8.02.687 2.009.233 4.017.625 6.025.76 5.22.356 10.314-.993 15.434-1.521 2.566-.27 5.107-.908 7.623-1.435 1.538-.332 3.038-.724 4.401-1.559 1.798-1.116 2.938-2.822 4.537-4.171a122 122 0 0 1 5.455-4.344c1.574-1.19 3.062-2.478 4.698-3.533 1.264-.81 2.516-1.583 3.706-2.503 2.318-1.804 4.165-3.902 6.087-6.098 2.678-3.08 3.793-7.374 4.872-11.202.979-3.509 1.648-7.03 3.595-10.184.954-1.546 1.673-3.325 2.132-5.067.285-1.092.384-2.33.905-3.362.805-1.693 2.392-2.907 3.372-4.502.768-1.264 1.623-2.43 2.156-3.828 1.054-2.749 1.848-5.411 2.294-8.331.334-2.148 1.029-4.123 1.71-6.184.1-.344.211-.687.298-1.043-.483-.552-.979-1.092-1.463-1.632zM34.594 73.947c.149-.368 2.802-1.398 3.21-1.509-.012.013-.049.025-.086.05l-1.736.736c1.922-.639 5.38 1.288 3.707 3.472-.496.638-1.785.945-2.541 1.067-.769.135-1.24-.123-1.71-.773-.385-.564-.67-1.546-.782-2.208-.05-.233-.149-.59-.05-.835zM13.446 92.88c-2.07-.564-3.446-1.325-4.723-3.043-.818-1.116-1.55-2.22-1.773-3.595-.186-1.128-.632-2.135-.36-3.263.212-.896.571-1.865.993-2.7.458-.932 1.152-1.901 1.214-2.208a72 72 0 0 1 6.062-.27c2.306-.012 4.612.282 6.942.294 1.054.013 2.095.062 3.136-.159 1.005-.196 1.984-.454 3-.626 1.773-.294 3.422-.503 5.083.368 1.264.663 1.847 2.05 2.43 3.288.334.712.52 1.215.52 2.013a22 22 0 0 1-.161 2.87c-.05.356-.087.725-.149 1.08-1.45 3.141-5.454 4.184-8.43 5.276-4.363 1.583-9.284 1.84-13.772.638zm31.92 6.724c-.93 2.319-4.834 3.141-7.09 3.227-1.103.049-2.442-.172-3.422-.761-.545-.331-1.103-.945-1.425-1.497-.26-.417-.818-1.19-1.984-.847.236-1.276.645-2.49 1.178-3.668a28 28 0 0 1 1.6-1.608 16.8 16.8 0 0 1 3.47-2.392c1.959-.981 4.017-.258 5.9.614 1.278.576 2.27 1.435 2.53 2.821.31 1.57-.211 2.687-.794 4.098zm26.28-.442c-.718 1.705-1.722 2.086-3.309 2.896-1.86.932-4.116 1.631-6.223 1.644-1.078.012-2.083-.491-3.062-.871-.645-.258-1.351-.418-1.86-.896-1.413-1.276-1.636-3.141-.768-2.76a11 11 0 0 1-1.016-3.547 1.34 1.34 0 0 0 .458-.76c.744-1.399 2.145-2.552 3.52-3.325 2.455-1.399 5.592-1.558 8.207-.479 1.153.479 1.884 1.055 2.752 1.927.41.417.98.797 1.29 1.3.78 1.288.545 3.546-.013 4.846zm8.07-.27c-.408.331-1.177.97-1.71.859-.434-.086-1.264-.97-1.128-1.423l-.285-.282c.632-.97 1.264-1.94 1.872-2.933.954.417 1.81.356 2.392 1.399.546.97-.434 1.803-1.153 2.392zm20.095-46.636c-.793 1.055-1.847 2.05-3.074 2.552-1.537.638-3.607 1.117-3.682-1.19-.062-1.35.161-2.331.781-3.57.88-1.767 1.723-2.209 3.434-3.08a9.6 9.6 0 0 1 1.773.38c.954.307 1.872 1.154 2.008 2.16.149 1.055-.62 1.963-1.227 2.748zm18.744-9.987c-.744 2.319-1.748 4.552-2.79 6.748-1.264 2.7-1.413 5.472-2.033 8.319-.359 1.607-1.128 3.361-2.714 3.987-.695.27-1.364.209-2.133.209-.694 0-1.958.258-1.921.846-.409-1.116-1.091-2.613-1.364-3.864-.285-1.4-.409-2.896-.632-4.282-.235-1.473-.347-2.933-.496-4.417-.124-1.375-.409-2.835-.384-4.221.062-4.601 2.616-10.319 6.979-12.441 1.339-.638 2.653-.933 4.116-.7 1.71.258 2.677.712 3.446 2.332 1.029 2.22.632 5.214-.087 7.508z" clip-rule="evenodd" opacity=".4" style="mix-blend-mode:multiply"/><path fill="url(#j)" fill-rule="evenodd" d="M97.89 46.636c-.223.123-.433.22-.632.331a4.7 4.7 0 0 0-1.078-.049z" clip-rule="evenodd" opacity=".4" style="mix-blend-mode:multiply"/><path fill="url(#k)" fill-rule="evenodd" d="M8.81 78.07c-.1.012-.223.012-.347.025.285-.172.384-.172.347-.025" clip-rule="evenodd" opacity=".4" style="mix-blend-mode:multiply"/><path fill="url(#l)" fill-rule="evenodd" d="M88.605 4.859 101.063 0s19.822 7.632 32.317 24.318l.781 10.662s-23.615-8.957-45.556-30.121" clip-rule="evenodd"/><path fill="url(#m)" fill-rule="evenodd" d="M133.89 113.344s-10.438 11.215-18.335 13.717l-6.483 1.951s-29.553-10.527-31.177-28.833c-1.363-15.386 25.227-38.992 32.417-41.801s15.619-1.215 15.619-1.215z" clip-rule="evenodd"/><path fill="url(#n)" fill-rule="evenodd" d="M125.918 57.163C119.683 55.2 92.746 67.48 85.506 95.038c-1.463 5.595 12.198 26.833 28.524 32.023 5.417 1.718 30.259-19.753 31.301-34.305s-10.153-32.673-19.413-35.593" clip-rule="evenodd"/><path fill="url(#o)" fill-rule="evenodd" d="M87.254 98.253c3.843-31.201 32.503-41.36 38.739-39.397 4.499 1.411 11.119 7.963 14.912 14.417-3.904-7.963-9.756-14.466-14.987-16.11-6.235-1.963-33.172 10.318-40.412 37.875-.508 1.939.806 5.779 3.434 10.172-1.438-2.994-1.872-5.46-1.698-6.945z" clip-rule="evenodd"/><path fill="url(#p)" fill-rule="evenodd" d="M34.543 131.687s6.422 2.331 11.107 1.068c0 0 1.798-15.043-3.93-24.662-5.726-9.619-15.433 4.92-15.433 4.92l-2.219 9.202s5.405 6.429 10.463 9.472z" clip-rule="evenodd" style="mix-blend-mode:multiply"/><path fill="url(#q)" fill-rule="evenodd" d="m40.123 129.258 4.115-1.092s1.983-8.331-1.463-17.729c-3.917-10.675-18.272-18.65-20.392-18.822-2.132-.171-4.227 4.626-4.227 4.626z" clip-rule="evenodd"/><path fill="url(#r)" fill-rule="evenodd" d="m104.968 137.503-6.843 8.809s-11.875 5.693-23.8 2.932l-8.653-5.766 39.284-5.975z" clip-rule="evenodd"/><path fill="url(#s)" fill-rule="evenodd" d="M15.07 102.842c.72-3.24 3.596-8.613 6.174-9.141 2.578-.527 14.789 10.944 17.615 18.318 2.827 7.374 1.401 15.558 1.265 17.226-.137 1.669-13.983-2.981-20.975-8.662-6.991-5.681-4.078-17.741-4.078-17.741" clip-rule="evenodd"/><path fill="url(#t)" fill-rule="evenodd" d="M38.859 112.032c-2.827-7.374-15.025-18.846-17.615-18.319-.992.209-2.033 1.13-2.975 2.368.582-.527 1.165-.895 1.747-1.006 2.579-.527 15.012 8.601 17.79 16 3.408 9.079 1.536 15.643 1.202 18.502.669.049 1.09-.049 1.115-.319.137-1.669 1.562-9.853-1.264-17.226" clip-rule="evenodd"/><path fill="url(#u)" fill-rule="evenodd" d="M77.399 80.683c-3.062-1.423.41-14.735 3.434-17.63 3.012-2.896 10.859 3.876 11.9 9.41 1.042 5.533-8.305 11.472-15.334 8.22" clip-rule="evenodd"/><path fill="url(#v)" fill-rule="evenodd" d="M80.474 79.677c-2.455-1.178.334-12.22 2.751-14.625 2.418-2.405 8.703 3.215 9.533 7.803.83 4.59-6.656 9.521-12.284 6.822" clip-rule="evenodd"/><path fill="url(#w)" fill-rule="evenodd" d="M101.063 0s.62 7.484 9.136 16.662 23.181 7.656 23.181 7.656l.781 10.662S102.972 21.336 88.605 4.859z" clip-rule="evenodd"/><path fill="#dbff0e" fill-rule="evenodd" d="M125.522 66.34c-.359.295-1.128.835-.508 1.264.161.11.31.05.484.098.136.037.173.148.334.086.496-.184.298-1.582-.26-1.3l-.037-.147zm2.566 5.092c.223-.122.459-.184.694-.196.05.307.335.896-.099 1.129-.372.196-.26-.454-.434-.602zM81.39 74.549c.471.184.93.38 1.389.576.148-.135.371-.11.545-.22.223-.148.434-.454.52-.725.137-.392-.074-.711-.247-1.018-.124-.196-.236-.49-.422-.626-.223-.16-.644-.098-.867 0-.286.135-.484.418-.67.663-.173.233-.384.626-.384.932 0 .32.248.663.483.823l-.347-.43zm-66.172 35.016c.471.184.93.381 1.389.577.149-.135.372-.11.545-.221.223-.147.434-.466.52-.724.137-.392-.073-.711-.247-1.018-.124-.196-.236-.491-.422-.626-.223-.159-.644-.098-.867 0-.285.135-.484.417-.67.663-.173.233-.384.638-.384.932 0 .319.248.663.483.822l-.347-.429zm79.586-23.373q-.298.203-.484.516c.186.233.285.466.608.552.136.036.273.036.372-.062.136-.135.062-.282.099-.405.087-.319.173-.392 0-.687-.112-.171-.186-.245-.372-.245-.136 0-.422.037-.496.184l.273.135zm1.066 7.35c-.038.085-.397.981.074.724.235-.135.148-.491 0-.59 0-.024.012-.06.025-.085l-.087-.05zm23.429 13.373c-.31.405-.348.565-.496.994.136.123.396.196.57.184.273 0 .285-.098.297-.356 0-.208.1-.38.038-.576-.05-.209-.261-.418-.496-.283l.087.05zM99.55 87.076c.174.16.298.368.335.6-.247.062-.272-.183-.31-.367-.061-.307.087-.209.236-.454.025 0 .05 0 .087.012l-.335.209zm22.463-19.852q-.298.202-.484.515c.124.147.062.405.335.393.198-.013.347-.221.446-.38.112-.185.124-.332.137-.528 0-.098 0-.54-.186-.246l-.248.258zm-3.036-51.74c.223-.061.52-.184.756-.184.062 0 .148.049.223.049.235.024.248-.037.372.16.136.22.198.38.149.625-.137.871-1.389-.441-.955-.76l-.545.098zm-95.329 1.558c-.396.123-.991.16-1.041.614-.037.392.607.785.93.895.582.184 1.537.283 1.822-.368.173-.38.037-1.129-.198-1.46-.484-.687-1.488-.405-2.244-.11zm101.129 90.83c-.173-1.349-.421-2.674.781-3.374.657-.38 1.86-.515 2.48-.061.446.331.843.945 1.128 1.411.409.675.31.687.086 1.3-.495 1.424-.83 2.368-2.268 2.368-1.897 0-2.182-1.46-2.207-3.263v1.632zm.844-37.802a2.9 2.9 0 0 0 1.364-.822c-.385-.233-1.215-.711-1.364 0v.835zM18.23 104.302c.534-.147.98-.417 1.364-.822-.384-.233-1.215-.712-1.364 0v.834zm0 11.288c.534-.148.98-.417 1.364-.822-.384-.233-1.215-.712-1.364 0v.834zm80.292-40.403c.521-.638 1.29-1.804 2.232-1.166.558.368.706 1.35.186 1.742-.496.368-.942.466-1.5.614-.422.11-1.054-.16-.93-.785v-.418zm17.813 29.066c.521-.638 1.289-1.804 2.231-1.166.558.368.707 1.35.186 1.742-.496.369-.942.467-1.5.614-.421.11-1.054-.16-.93-.785v-.418zm-2.677-96.339c.819.135 2.219.22 2.133 1.35-.05.662-.843 1.276-1.451 1.018-.558-.246-.868-.577-1.277-.982-.31-.306-.372-.981.236-1.178zm-2.926 103.872c.521-.638 1.29-1.803 2.232-1.165.557.368.706 1.349.186 1.742-.496.368-.943.466-1.5.613-.422.111-1.054-.159-.93-.785v-.417zM86.45 74.217c-.67.418-1.81.945-1.922 1.865-.074.553.186.872.694 1.117.434.208 1.066.22 1.5 0 .62-.307 1.327-.81 1.6-1.46.198-.466.16-.785-.05-1.252-.124-.245-.36-.552-.632-.638-.856-.294-1.376.54-2.009.92l.819-.54zm2.18-2.429c.371.123.681.331.93.601-.36.123-.757.405-1.129.282-.483-.171-.57-.625-.47-1.092.061-.245.52-.687.78-.576.136.061.161.233.198.343.087.233.1.184-.037.442zm18.57-4c-1.773 1.546-3.447 3.386-4.401 5.595-.484 1.129.372 1.178 1.401.982 1.996-.38 4.004-.933 5.987-1.436 1.165-.294 2.851-.908 3.657-1.89.62-.748.88-2.048.744-3.005-.186-1.326-1.141-1.84-2.355-2.172-2.777-.76-6.719 2.208-7.761 4.748l2.715-2.822zM97.283 77.8a3.6 3.6 0 0 1 1.611.417c-.149.172-.1.393-.174.601-.111.295-.396.59-.656.761-.447.282-1.178.38-1.674.196-1.488-.564.793-2.306 1.302-1.693l-.41-.27zm13.449-68.573c.508.343 1.053.613 1.438 1.08.446.54.88 1.03 1.227 1.631.173.307.595.97-.025 1.055-.669.086-1.847-.773-2.33-1.116-.831-.577-1.637-1.104-2.232-1.939-.297-.417-.768-1.153-.458-1.656.26-.43.632-.503 1.103-.491.496 0 .781.16 1.165.466.174.147 1.041 1.019.756 1.252l-.62-.27zm6.459 56.021c-.248.172-2.132 1.215-1.227 1.657.483.245 1.425.171 1.921-.037.434-.184.88-.466.608-.957-.558-1.006-1.934-.417-2.653.012l1.363-.675zm-98.278 45.176c.198 1.092.422 2.282 1.389 3.006.991.749 2.12.442 3.099-.122.718-.418 1.413-.872 2.12-1.301.408-.245.768-.319.793-.896.024-.625-.57-1.472-.93-1.938-.434-.565-1.314-1.252-1.996-1.497-1.487-.552-4.314 0-4.277 1.988l-.198.773zm99.184 2.147c.136.761.297 1.608.967 2.111.694.527 1.487.306 2.169-.086.508-.295.992-.614 1.488-.92.285-.172.545-.221.557-.626.013-.442-.396-1.031-.644-1.362-.31-.393-.918-.871-1.401-1.055-1.041-.38-3.025 0-3 1.399z" clip-rule="evenodd"/><path fill="url(#x)" fill-rule="evenodd" d="M121.529 70.095c0 6.822-5.59 12.343-12.47 12.343s-12.471-5.534-12.471-12.343 5.591-12.343 12.471-12.343 12.47 5.533 12.47 12.343" clip-rule="evenodd" style="mix-blend-mode:screen"/><path fill="url(#y)" fill-rule="evenodd" d="M117.03 15.25c-1.574 2.148-5.541 1.976-8.839-.404-3.31-2.38-4.698-6.049-3.124-8.196s5.542-1.975 8.839.405c3.31 2.38 4.698 6.049 3.124 8.196" clip-rule="evenodd" style="mix-blend-mode:screen"/><path fill="url(#z)" fill-rule="evenodd" d="M101.273 1.215s3.261 13.692 12.422 18.858c11.59 6.527 19.685 4.233 19.685 4.233s-10.363-.356-19.946-6.834c-7.995-5.399-12.161-16.27-12.161-16.27z" clip-rule="evenodd"/><path fill="url(#A)" fill-rule="evenodd" d="m79.52 106.829 6.148-8.956s7.896 22.219 28.363 29.176l-4.488 2.859s-20.875-5.877-30.036-23.091z" clip-rule="evenodd" opacity=".4" style="mix-blend-mode:multiply"/><path fill="url(#B)" fill-rule="evenodd" d="M91.17 7.938s29.516 29.41 50.764 42.489c0 0-2.058-8.036-7.785-15.435 0 0-17.839-5.803-42.99-27.041z" clip-rule="evenodd" style="mix-blend-mode:multiply"/><path fill="url(#C)" fill-rule="evenodd" d="M70.817 22.698c5.802 8.724-.645 23.054-14.392 32.011s-29.59 9.14-35.392.417c-5.801-8.723.645-23.054 14.392-32.01 13.748-8.957 29.59-9.141 35.392-.418" clip-rule="evenodd" style="mix-blend-mode:screen"/><defs><linearGradient id="a" x1="27.838" x2="27.838" y1="36.121" y2="11.791" gradientUnits="userSpaceOnUse"><stop stop-color="#0051b3"/><stop offset="1" stop-color="#72f3ff"/></linearGradient><linearGradient id="b" x1="22.396" x2="31.461" y1="37.36" y2="9.392" gradientUnits="userSpaceOnUse"><stop stop-color="#00058b"/><stop offset="1" stop-color="#0080ff"/></linearGradient><linearGradient id="d" x1="4.012" x2="106.121" y1="54.537" y2="54.537" gradientUnits="userSpaceOnUse"><stop stop-color="#d1ff81"/><stop offset=".36" stop-color="#ceff82"/><stop offset=".63" stop-color="#c4ff87"/><stop offset=".86" stop-color="#b4ff8f"/><stop offset="1" stop-color="#a7ff97"/></linearGradient><linearGradient id="e" x1="107.163" x2="107.163" y1="137.503" y2="104.51" gradientUnits="userSpaceOnUse"><stop stop-color="#b8c2ff"/><stop offset="1" stop-color="#5b729c"/></linearGradient><linearGradient id="f" x1="4.657" x2="93.923" y1="34.661" y2="34.661" gradientUnits="userSpaceOnUse"><stop stop-color="#b8c2ff"/><stop offset="1" stop-color="#7d72b3"/></linearGradient><linearGradient id="g" x1="19.148" x2="145.975" y1="100.425" y2="100.425" gradientUnits="userSpaceOnUse"><stop stop-color="#b8c2ff"/><stop offset="1" stop-color="#7d72b3"/></linearGradient><linearGradient id="h" x1="11.648" x2="138.227" y1="74.463" y2="74.463" gradientUnits="userSpaceOnUse"><stop stop-color="#b8c2ff"/><stop offset="1" stop-color="#7d72b3"/></linearGradient><linearGradient id="i" x1="4.012" x2="128.434" y1="56.954" y2="56.954" gradientUnits="userSpaceOnUse"><stop stop-color="#b8c2ff"/><stop offset="1" stop-color="#7d72b3"/></linearGradient><linearGradient id="j" x1="96.192" x2="97.89" y1="46.795" y2="46.795" gradientUnits="userSpaceOnUse"><stop stop-color="#e8ddff"/><stop offset="1" stop-color="#aa8ad8"/></linearGradient><linearGradient id="k" x1="8.463" x2="8.822" y1="78.033" y2="78.033" gradientUnits="userSpaceOnUse"><stop stop-color="#e8ddff"/><stop offset="1" stop-color="#aa8ad8"/></linearGradient><linearGradient id="l" x1="88.605" x2="134.149" y1="17.496" y2="17.496" gradientUnits="userSpaceOnUse"><stop stop-color="#72d2ff"/><stop offset="1" stop-color="#0030b3"/></linearGradient><linearGradient id="m" x1="98.944" x2="121.625" y1="125.724" y2="55.761" gradientUnits="userSpaceOnUse"><stop stop-color="#04006b"/><stop offset="1" stop-color="#2b23c9"/></linearGradient><linearGradient id="n" x1="105.561" x2="127.203" y1="124.311" y2="57.568" gradientUnits="userSpaceOnUse"><stop stop-color="#0300b3"/><stop offset="1" stop-color="#36c9ff"/></linearGradient><linearGradient id="o" x1="113.15" x2="113.15" y1="105.197" y2="56.954" gradientUnits="userSpaceOnUse"><stop stop-color="#00aeff"/><stop offset="1" stop-color="#45ceff"/></linearGradient><linearGradient id="p" x1="35.002" x2="35.002" y1="133.123" y2="104.805" gradientUnits="userSpaceOnUse"><stop stop-color="#81a9ce"/><stop offset="1" stop-color="#5b729c"/></linearGradient><linearGradient id="q" x1="26.958" x2="36.327" y1="124.988" y2="96.086" gradientUnits="userSpaceOnUse"><stop stop-color="#04006b"/><stop offset="1" stop-color="#2b23c9"/></linearGradient><linearGradient id="r" x1="85.332" x2="85.332" y1="149.993" y2="137.503" gradientUnits="userSpaceOnUse"><stop stop-color="#003cb3"/><stop offset=".92" stop-color="#7006fc"/><stop offset="1" stop-color="#7006f9"/></linearGradient><linearGradient id="s" x1="27.529" x2="27.529" y1="129.601" y2="93.689" gradientUnits="userSpaceOnUse"><stop stop-color="#0300b3"/><stop offset="1" stop-color="#36c9ff"/></linearGradient><linearGradient id="t" x1="29.438" x2="29.438" y1="129.589" y2="93.689" gradientUnits="userSpaceOnUse"><stop stop-color="#00aeff"/><stop offset="1" stop-color="#45ceff"/></linearGradient><linearGradient id="u" x1="81.787" x2="87.749" y1="82.18" y2="63.801" gradientUnits="userSpaceOnUse"><stop stop-color="#00058b"/><stop offset="1" stop-color="#0080ff"/></linearGradient><linearGradient id="v" x1="83.907" x2="88.835" y1="80.855" y2="65.648" gradientUnits="userSpaceOnUse"><stop stop-color="#004dca"/><stop offset="1" stop-color="#3683ff"/></linearGradient><linearGradient id="w" x1="109.083" x2="116.201" y1="26.858" y2="4.901" gradientUnits="userSpaceOnUse"><stop stop-color="#00058b"/><stop offset="1" stop-color="#0080ff"/></linearGradient><linearGradient id="z" x1="117.327" x2="117.327" y1="24.71" y2="1.215" gradientUnits="userSpaceOnUse"><stop stop-color="#00aad9"/><stop offset="1" stop-color="#42e3ff"/></linearGradient><linearGradient id="A" x1="96.775" x2="96.775" y1="129.92" y2="97.873" gradientUnits="userSpaceOnUse"><stop stop-color="#b8c2ff"/><stop offset="1" stop-color="#7d72b3"/></linearGradient><linearGradient id="B" x1="116.558" x2="116.558" y1="50.415" y2="7.938" gradientUnits="userSpaceOnUse"><stop stop-color="#81a9ce"/><stop offset="1" stop-color="#5b729c"/></linearGradient><radialGradient id="c" cx="0" cy="0" r="1" gradientTransform="matrix(114.021 0 0 112.854 31.037 40.955)" gradientUnits="userSpaceOnUse"><stop stop-color="#fcff60"/><stop offset=".11" stop-color="#f6ff5d"/><stop offset=".24" stop-color="#e5ff56"/><stop offset=".4" stop-color="#c9ff4c"/><stop offset=".56" stop-color="#a3ff3c"/><stop offset=".68" stop-color="#83ff30"/><stop offset=".73" stop-color="#7cfa30"/><stop offset=".79" stop-color="#68ee32"/><stop offset=".87" stop-color="#49da36"/><stop offset=".95" stop-color="#1dbe3b"/><stop offset="1" stop-color="#00ab3f"/></radialGradient><radialGradient id="x" cx="0" cy="0" r="1" gradientTransform="matrix(12.4707 0 0 12.343 109.046 70.095)" gradientUnits="userSpaceOnUse"><stop stop-color="#317aff"/><stop offset=".1" stop-color="#2967d7"/><stop offset=".29" stop-color="#1c4896"/><stop offset=".47" stop-color="#122e60"/><stop offset=".64" stop-color="#0a1a37"/><stop offset=".78" stop-color="#040b18"/><stop offset=".91" stop-color="#010306"/><stop offset="1"/></radialGradient><radialGradient id="y" cx="0" cy="0" r="1" gradientTransform="matrix(5.98798 4.30438 -2.87029 3.91159 111.395 10.445)" gradientUnits="userSpaceOnUse"><stop stop-color="#317aff"/><stop offset=".1" stop-color="#2967d7"/><stop offset=".29" stop-color="#1c4896"/><stop offset=".47" stop-color="#122e60"/><stop offset=".64" stop-color="#0a1a37"/><stop offset=".78" stop-color="#040b18"/><stop offset=".91" stop-color="#010306"/><stop offset="1"/></radialGradient><radialGradient id="C" cx="0" cy="0" r="1" gradientTransform="matrix(24.9392 -16.2388 10.5122 15.8153 45.563 39.678)" gradientUnits="userSpaceOnUse"><stop stop-color="#06feff"/><stop offset=".17" stop-color="#04c4c4"/><stop offset=".4" stop-color="#037f7f"/><stop offset=".6" stop-color="#014848"/><stop offset=".78" stop-color="#002121"/><stop offset=".92" stop-color="#000808"/><stop offset="1"/></radialGradient></defs></svg>