<svg xmlns="http://www.w3.org/2000/svg" fill="none" viewBox="0 0 150 150"><path fill="url(#a)" fill-rule="evenodd" d="M147.625 74.373c0 6.946-.978 13.68-2.829 20.031-3.661 12.782-10.772 24.098-20.263 32.919a72.1 72.1 0 0 1-23.607 14.683c-7.997 3.037-16.642 4.688-25.71 4.688-1.282 0-2.577-.027-3.846-.106h-.013a78 78 0 0 1-5.631-.502 71.9 71.9 0 0 1-36.984-16.281 70.7 70.7 0 0 1-10.482-10.827 71 71 0 0 1-6.345-9.481 69 69 0 0 1-1.295-2.417c0-.026-.013-.039-.027-.079a53 53 0 0 1-1.255-2.627h-.014a68 68 0 0 1-3.238-8.557 63 63 0 0 1-1.692-6.47c-.013-.013-.013-.04-.013-.066a69 69 0 0 1-.806-4.674 71 71 0 0 1-.727-10.26c0-1.994.079-4.001.264-5.955.093-1.255.225-2.483.397-3.724a71.3 71.3 0 0 1 5.789-20.203 70 70 0 0 1 4.851-8.926A72.2 72.2 0 0 1 24.79 22.48C37.824 9.804 55.628 2 75.257 2c.767 0 1.533.013 2.274.026a75 75 0 0 1 2.432.12c4.15.277 8.221.884 12.147 1.835a73 73 0 0 1 6.741 1.954 66 66 0 0 1 4.415 1.677 85 85 0 0 1 3.199 1.44c.185.092.37.17.555.263a72.5 72.5 0 0 1 18.942 13.376 79 79 0 0 1 2.326 2.364 92 92 0 0 1 1.494 1.677c.845.95 1.652 1.94 2.445 2.931a70.4 70.4 0 0 1 7.547 11.792 71.6 71.6 0 0 1 5.777 15.449 72.2 72.2 0 0 1 2.128 17.43z" clip-rule="evenodd"/><path fill="#7d72b3" fill-rule="evenodd" d="M2.822 74.373s17.078 30.265 33.574 34.965c16.51 4.688 35.358 1.717 41.796 4.107 6.437 2.403 9.953 12.227 9.953 12.227l2.405 1.373s5.512-8.543 8.883-3.499c0 0-1.348-7.156 2.71-15.858s6.754-18.064 11.777-21.048 14.196-4.384 21.479-1.492c7.283 2.879 11.051 2.324 11.051 2.324l.541-3.42.542-3.024s-6.965 1.11-12.57-2.469c0 0 .767 1.334 5.115-6.76 4.336-8.108 3.847-15.41 3.847-15.41l-.621-6.734S140.977 73 131.117 79.774c0 0-21.969-4.543-31.261 21.364 0 0-1.586 17.325-10.8 16.849-9.199-.488-6.027-11.818-19.337-11.923-13.324-.119-21.4 5.361-34.592-2.153S2.835 74.386 2.835 74.386zm68.549 72.215s9.134-13.627 19.18-13.548 14.672 3.711 22.589-.898c7.918-4.621 11.209-7.5 14.857-9.969s4.27-3.248 4.27-3.248l1.652-2.179s-5.552-2.694-10.442 1.254-13.734 12.901-20.753 12.862c-7.018-.04-6.675-4.081-14.566-.912s-24.493 14.34-24.493 14.34 3 2.192 7.72 2.298zM6.8 98.062l.873 2.39s14.117 7.79 23.04 18.618c8.908 10.841 10.494 18.182 10.494 18.182s1.587-6.457-6.093-18.605-24.216-18.803-28.3-20.585z" clip-rule="evenodd" opacity=".4" style="mix-blend-mode:multiply"/><path fill="url(#b)" fill-rule="evenodd" d="M106.98 9.355a7 7 0 0 0-.713.106c-.82.145-1.454.079-2.261-.146-.581-.158-.991-.396-1.612-.501-.886-.133-1.692-.515-2.578-.634-.925-.12-1.731-.489-2.617-.806-.687-.25-1.058-.158-1.718 0-.661.172-1.137-.105-1.719-.356-.66-.29-1.335-.344-2.035-.476-1.838-.383-3.662-.964-5.473-1.426-1.136-.29-2.167-.29-3.33-.303-.9 0-1.719.25-2.63.25-.609 0-1.124-.105-1.72-.184-.62-.12-1.242 0-1.863-.08-.912-.132-1.401-.277-2.34 0-.687.225-1.229.198-1.916.238-.767.04-1.64.238-2.38.41-1.36.316-2.841.567-4.23.54-.858 0-2.114-.237-2.92.054-.53.184-.793.752-1.15 1.135-.7.726-1.573 1.387-2.155 2.192-.595.819-1.256 1.65-1.203 2.68.053.885.463 1.928.86 2.747.396.872.541 1.65-.358 2.232-1.123.74-2.405 1.412-3.687 1.782-.86.251-1.626.396-2.34-.211-.264-.224-.423-.66-.753-.845-.344-.172-.688 0-1.058.119-.899.264-1.784.567-2.696.713-.569.092-1.058.383-1.613.488-.66.12-1.137-.37-1.837-.198-.965.225-1.93.634-2.935.674-.713.04-1.625-.278-2.22-.634-.357-.198-.436-.396-.846-.29-.33.079-.82.475-.991.726-.238.343-.331.779-.569 1.135-.251.383-.489.766-.714 1.175-.41.806-.898 1.558-1.427 2.271-.383.502-.635 1.176-1.058 1.638-.211.25-.674.422-.951.62-.754.529-1.547 1.004-2.274 1.572-1.401 1.109-2.736 2.324-4.163 3.393-1.098.819-2.63 1.294-3.873 1.81-.78.316-1.587.54-2.367.87-.25.106-.713.212-.925.397-.277.238-.423.673-.674 1.004-.674.831-1.388 1.65-1.903 2.614-.318.554-.503 1.122-.7 1.716-.278.82-.715 1.572-.992 2.39-.569 1.704-.674 3.486-1.309 5.177-.37.99-.885 1.888-1.348 2.799-.78 1.532-.886 3.354-1.123 5.044-.12.99-.08 2.14.105 3.103.185 1.043.132 2.126.132 3.182 0 1.136-.727 2.232-1.44 3.09-.648.792-1.64 1.096-2.38 1.796-.62.607-1.361 1.294-1.625 2.139-.12.37 0 .805-.08 1.202-.158.884-.383 1.73-.515 2.64-.132 1.123-.159 2.166-.159 3.302 0 .567-.04 1.135 0 1.703.027.541.225 1.043.264 1.585.027.382-.052.752 0 1.135.08.423.238.872.344 1.28.251 1.004.436 1.982.635 2.985.171.924.542 1.849.832 2.747.397 1.228.661 2.495.9 3.776.184.95.171 1.941.316 2.905.12.78.291 1.571.33 2.35.04 1.176-.25 2.364-.263 3.552 0 2.007.793 4.014 1.255 5.942.132.542.278 1.096.423 1.638-4.97-9.811-7.772-20.903-7.772-32.642a72.08 72.08 0 0 1 21.929-51.853C37.797 9.843 55.589 2.04 75.23 2.04a71.94 71.94 0 0 1 31.75 7.315" clip-rule="evenodd"/><path fill="#7d72b3" fill-rule="evenodd" d="M20.534 33.836s16.298 14.55 37.803 14.974c21.506.422 29.49-1.03 36.64-8.98 7.152-7.962 14.858-21.43 14.858-21.43s-9.187 4.423-15.545 13.059-36.362 23.359-73.77 2.377z" clip-rule="evenodd" opacity=".4" style="mix-blend-mode:multiply"/><g fill="#7d72b3" fill-rule="evenodd" clip-rule="evenodd" opacity=".7"><path d="M21.83 34.245c-2.128 2.522-3.992 5.097-5.42 8.081-1.268 2.654-1.744 5.612-2.207 8.49-.277 1.704-.515 3.42-.766 5.124-.225 1.518-.661 3.116-.41 4.648.357 2.073.462 4.37 1.454 6.259 1.07 2.033 2.167 3.803 3.595 5.598 1.388 1.757 3.067 2.536 5.3 2.694 1.217.092 2.42-.106 3.636.053 1.691.224 3.37.528 5.049.805 3.384.542 7.19.568 9.623-2.205 1.969-2.245 2.908-5.057 4.163-7.738 1.335-2.852 3.027-5.215 5.525-7.156 1.838-1.427 3.463-3.024 5.221-4.53.807-.686 1.296-1.426 2.208-1.927.899-.502 1.374-1.057 2.154-1.783.701-.647 1.56-1.083 2.181-1.822.992-1.175 1.798-2.76 2.34-4.186.568-1.492.833-3.09 1.057-4.661.212-1.545-.25-3.09-.727-4.569-.912-2.8-3.304-4.555-5.564-6.298-2.79-2.153-6.067-3.103-9.504-3.777-3.12-.607-6.873-.74-10.006-.185-3.318.581-6.728 1.057-9.808 2.496-2.26 1.043-3.622 2.509-5.446 4.054-.925.792-2.049 1.32-2.895 2.218-1.163 1.228-2.247 2.562-.766.304zM54.637 20.75c.45-.779.965-1.915 1.586-2.654.33-.396.767-.713 1.176-1.043 1.216-1.017 2.538-1.875 4.071-2.31a5.2 5.2 0 0 1 2.618-.054c.859.225 2.419.806 3.08 1.44 1.229 1.175.422 3.169.052 4.542s-.806 2.68-2.035 3.552a8 8 0 0 1-2.723 1.241c-.529.119-1.07.093-1.613.145-.436.053-.859.159-1.295.159-1.005 0-2.525-.713-2.948-1.69-.224-.515-.343-1.043-.581-1.558-.172-.397-.318-.806-.476-1.202-.304-.74-.582-1.466-.912-.581zm11.976 7.712a7.5 7.5 0 0 0-.489 2.456c.37.224.502.673.872.897.344.212.767.12 1.177.12.727 0 1.427 0 1.546-.886.106-.779-.581-1.346-1.163-1.769-.423-.303-1.256-1.017-1.731-.436l-.199-.383zm10.032 11.765c-.938.673-1.956 1.267-2.855 1.98-1.137.911-2.036 2.06-2.921 3.196-1.097 1.426-2.393 2.905-2.115 4.82.264 1.888.912 3.459 2.366 4.727 1.679 1.465 4.27 1.452 6.226 2.403 1.665.805 2.736 2.495 3.569 4.08 1.268 2.43 3.925 2.852 6.357 3.314a73 73 0 0 0 4.746.713c2.14.264 4.27.674 6.424.885 3.939.383 7.917 1.28 11.883.964 4.216-.343 8.023-1.836 11.486-4.252 2.948-2.047 5.591-5.612 6.371-9.15.82-3.711-.396-7.844-2.194-11.08-2.34-4.211-5.089-8.16-8.089-11.923-1.666-2.086-3.583-3.935-5.274-6.008a39.6 39.6 0 0 0-4.759-4.885c-3.926-3.38-8.816-6.167-14.09-6.444-2.01-.106-4.045.185-5.935.924-1.652.634-2.855 1.598-4.085 2.852-3.12 3.21-4.758 7.302-6.106 11.501-.622 1.928-1.203 4.107-.979 6.154.067.62.41 1.122.397 1.716v1.664c0 .33.026.581-.08.845-.184.449-.634.911-.303.964z" opacity=".4" style="mix-blend-mode:multiply"/><path d="M60.044 54.5c-2.036 1.189-4.137 2.113-5.631 4.028-.264.343-.661.713-.516 1.175.159.502.727.792 1.163.977 1.52.634 3.371.964 4.997.634 1.467-.29 3.384-1.28 4.177-2.601 1.004-1.677-.132-4.358-2.247-4.226-.318.027-.555.172-.873.212-.25.026-.515-.027-.78 0-.29 0-.356.066-.594.171-.251.106-.582.397.304-.356zM18.156 82.467c-.833.753-1.653 1.334-2.129 2.324a13 13 0 0 0-.978 2.84c-.185.87-.436 1.808-.211 2.706.198.806.581 1.598.846 2.39.357 1.017.687 1.98.912 3.037.277 1.307.766 2.43 1.348 3.645a36 36 0 0 0 1.93 3.433c.727 1.149 1.573 2.046 2.524 3.037 3.305 3.433 7.337 7.077 12.254 7.698 2.485.317 5.075-.33 6.9-2.113 1.982-1.941 3.251-4.753 3.674-7.487.357-2.324.119-4.74-1.137-6.76-1.004-1.611-2.101-3.354-3.397-4.74-.872-.938-1.89-1.757-2.842-2.615-.951-.858-1.863-1.756-2.894-2.522-1.811-1.334-3.57-2.72-5.407-4.04-1.652-1.19-3.436-2.483-5.459-2.972-1.387-.33-2.92-.607-4.296-.079-.594.225-1.044.436-1.348.964-.145.264-.502.726-.515 1.03-.053 0-.106.026.224.224m12.941-3.287.198 1.743c.04.184.08.382.12.567.118.12.554.172.7.185.595.066 1.23-.25 1.692-.607.7-.555 1.03-1.836.37-2.483-.516-.515-1.203-.713-1.93-.554-.383.079-1.996.924-1.348 1.531zm96.902-15.806c.251-1.294.278-2.126 1.071-3.09.687-.845 1.454-1.624 2.115-2.482 1.216-1.585 1.982-3.447 2.432-5.388.396-1.716-.013-3.38.753-5.03.185-.397.397-1.136.807-1.321.383-.172 1.15-.027 1.493.185.344.211.714.66 1.005.924.528.462.991.99 1.467 1.505 2.419 2.628 3.741 6.537 3.727 10.075 0 2.073-.237 3.988-.925 5.942-.277.793-.568 1.506-1.004 2.232-.529.885-1.177 1.413-2.036 1.967-2.498 1.598-6.133 1.004-8.222-.977-.779-.726-1.136-1.743-1.639-2.601-.396-.674-.766-1.28-.912-2.086-.053 0-.105-.027-.158.158zm-.001-27.201c.41 1.413.621 2.944 2.075 3.684.252.132.78.33 1.071.343.37.013.634-.185.912-.396 1.52-1.11.648-3.67-.383-4.833-.608-.686-1.296-.898-2.142-1.148-.383-.12-.29-.146-.608 0-.251.105-.409.224-.542.422-.132.211-.185.541-.198.78 0 .276-.106.422-.145.62a1.92 1.92 0 0 0 .145 1.307l-.198-.766zm-11.38 58.825c-.37.964-.661 1.968-1.084 2.905-.45.99-.899 2.007-1.322 3.011-1.11 2.667-1.731 5.427-2.458 8.213-.754 2.931-1.243 5.916-1.547 8.913-.159 1.545-.397 3.037-.357 4.608.027 1.11.027 2.47.423 3.526.251.66.859 1.664 1.547 1.954.898.383 2.035-.37 2.789-.739 2.947-1.466 5.459-3.684 7.811-5.969 2.314-2.244 4.653-4.383 6.57-6.998.872-1.188 1.837-2.364 2.564-3.644.608-1.07 1.031-2.245 1.586-3.341.516-1.03.899-2.126 1.388-3.169.595-1.268 1.15-2.575 1.56-3.922.793-2.562 1.494-5.19.595-7.83-.767-2.245-2.644-3.975-4.97-4.476-1.269-.278-2.684-.647-3.979-.542a13 13 0 0 0-3.82.938c-1.031.422-2.075.924-3.014 1.518-.528.33-.885.793-1.308 1.242-.701.752-1.401 1.57-1.943 2.456-.278.448-.529.713-.873 1.109-.475.528-.674 1.333-.145.25zm-11.395 33.368c-1.533.581-2.802 1.135-4.111 2.099-1.56 1.162-3.027 2.351-4.15 3.962-.41.581-1.23 1.597-.608 2.284.529.607 1.401.555 2.115.528 1.057-.026 2.115-.211 3.093-.62.912-.383 1.731-.885 2.67-1.202.899-.304 2.128-.911 2.736-1.677.344-.436.542-1.043.872-1.518.265-.383.344-.674.291-1.162-.066-.542-.396-1.308-.819-1.691-.37-.343-1.097-.686-1.6-.62a3.6 3.6 0 0 0-.846.224c-.608.264-1.11 1.017.37-.607zm-1.929-8.873c-.318-1.149-.661-2.06-.569-3.209.093-1.043.08-1.928.622-2.879.224-.396.898-1.65 1.348-1.822.158-.053.621-.026.766-.013.78.106 1.256 1.056 1.415 1.769.251 1.083.079 2.351.079 3.46 0 .871-.106 1.664-.436 2.469-.264.647-.78.647-1.441.621-.648-.027-.912-.212-1.401-.581-.172-.132-.436-.185-.595-.33-.211-.185-.132-.449.212.528zm-1.349-45.714a13.5 13.5 0 0 0-.171 2.416c.29 0 .594.542.978.634.542.132 1.084-.198 1.507-.528.912-.726 1.163-2.113.964-3.195-.198-1.07-1.427-1.176-2.313-1.07-.291.04-.74.172-.965.383-.542.475-.581 1.043-.568 1.743l.582-.383zm-69.117 49.754c.489-.858.925-1.769 1.546-2.535.714-.845 1.52-1.743 2.327-2.483 1.017-.924 2.194-1.769 3.278-2.614 1.004-.779 2.035-1.545 3.12-2.219 1.89-1.175 3.832-1.954 5.92-2.68 1.706-.581 3.504-.779 5.275-.423 1.824.37 3.595 1.4 4.93 2.668 1.282 1.215 2.644 2.693 3.437 4.291 1.612 3.275.991 6.814-.12 10.141-.488 1.479-1.52 3.262-2.775 4.212-.7.542-1.56.898-2.419 1.096-.978.225-2.101.555-3.093.687-4.362.554-8.83.238-12.98-1.294-1.639-.608-3.251-1.347-4.824-2.113-1.243-.607-2.287-1.373-3.12-2.495-.621-.832-1.137-1.809-1.11-2.866.013-.475.172-.898.238-1.36.211 0 .383-.132.357-.039zm32.82 1.941a9.2 9.2 0 0 0-.582 2.456c.291.172.278.66.503.924.25.304.515.463.885.476.384.026.846.039 1.23-.013.594-.093.727-.317 1.044-.753.343-.489.436-.713.396-1.36-.026-.449-.158-.924-.436-1.294-.172-.238-.489-.608-.727-.779-.568-.41-1.004-.172-1.546.158l-.767.198zm71.431-37.606a6.9 6.9 0 0 1-1.653-1.849c.067-.29.053-.58-.026-.871-.106-.74-.251-1.347-.093-2.1.357-1.756 1.891-3.063 3.675-3.261 1.176-.132 2.882.819 3.49 1.77.661 1.003.925 2.363.978 3.538.039.977-.172 2.14-.767 2.945-.41.567-1.242.58-1.89.607a6 6 0 0 1-2.207-.343c-.542-.185-1.137-.568-1.494-.436z" opacity=".4" style="mix-blend-mode:multiply"/></g><path fill="url(#c)" fill-rule="evenodd" d="M32.285 130.862a72.6 72.6 0 0 1-18.149-22.791 71 71 0 0 1-6.212-17.654v-.067a73 73 0 0 1-1.547-14.934 72.1 72.1 0 0 1 21.93-51.853c13.045-12.676 30.85-20.48 50.479-20.48 1.586 0 3.146.053 4.692.145a73 73 0 0 1 14.276 2.364 72.2 72.2 0 0 0-22.51-3.566c-19.63 0-37.42 7.804-50.48 20.48a72.3 72.3 0 0 0-10.64 13.046C6.971 46.762 2.834 60.086 2.834 74.36c0 5.123.542 10.115 1.546 14.934v.066a71.6 71.6 0 0 0 6.213 17.654 72.6 72.6 0 0 0 18.148 22.791 72.3 72.3 0 0 0 27.573 14.38 72.3 72.3 0 0 1-24.03-13.337z" clip-rule="evenodd" style="mix-blend-mode:screen"/><path fill="#7d72b3" fill-rule="evenodd" d="M11.215 66.596s40.54 16.518 62.548 15.198c21.994-1.32 31.366-13.917 40.143-25.405 8.777-11.501 12.081-25.34 12.081-25.34s-16.668 32.127-37.34 40.63L76.75 74.084s6.2-4.622 10.522-9.31c4.322-4.687 21.003-11.514 22.563-17.007 1.559-5.48 1.374-14.498 4.071-20.255s5.393-10.524 5.393-10.524l-7.151-1.228-3.358 7.896s-.938 13.112-3.516 20.216c-2.564 7.104-27.665 26.554-33.309 29.815s-55.648-3.618-60.737-7.077z" clip-rule="evenodd" opacity=".4" style="mix-blend-mode:multiply"/><g fill-rule="evenodd" clip-rule="evenodd" style="mix-blend-mode:soft-light"><path fill="#7d72b3" d="M83.544 135.853c.146-.053 2.776-1.241 3.53-1.189.317.027.647.278.885.41.7.396 1.15.964 1.07 1.782-.105 1.162-1.387 2.681-2.775 3.183-1.731.62-3.542-.159-4.163-1.308-.622-1.162.951-3.274 2.696-3.314l-1.243.423z" opacity=".4" style="mix-blend-mode:multiply"/><path fill="#84deff" d="M49.628 63.889c-.952 1.624-3.358 4.621-2.63 6.945.303 1.004 1.017 2.034 1.466 2.985 1.23 2.588 3.688 5.189 6.755 3.314 3.436-2.1 1.943-5.929.489-8.728-.542-1.043-1.335-2.324-2.42-2.905-.58-.317-1.546-.647-2.193-.78-1.15-.224-.33-.963-1.48-.844z"/><path fill="#ffef84" d="M72.786 10.662a9.5 9.5 0 0 0-.066 2.522c.264-.053.462.198.753.185.317 0 .767-.224 1.018-.396.542-.37.82-1.123.806-1.743 0-.647-.066-1.189-.674-1.558-.727-.423-1.454-.12-1.837.58z"/><path fill="#84deff" d="M57.545 89.334c.132-.529.344-1.994.78-2.628.357-.528 1.031-.819 1.613-1.017 1.268-.422 2.577-.37 3.595.542 1.771 1.597 1.705 3.987.013 5.625-.767.74-1.824 1.492-2.934 1.545-.542.026-1.256.079-1.732-.185-.568-.33-1.018-.938-1.216-1.558-.317-1.03-.119-1.81.436-2.707l-.581.383zm-13.323-.766c0 .805-.463 2.694.687 3.076.555.185 1.15-.567 1.243-1.043.092-.475.04-1.215-.146-1.65-.277-.647-.859-1.11-1.4-.383zM13.331 74.492c.093 1.28.093 3.143.873 4.305.317.488.647.99 1.255 1.096.542.092.846-.225 1.163-.621.542-.713.622-1.188.582-2.086-.027-.793-.278-1.664-.634-2.377-.265-.515-.701-.898-1.11-1.294-.37-.357-.635-.436-1.164-.383-.7.08-.648.911-.767 1.545l-.198-.198zm107.331-5.982c.013-.118.159-2.258.555-2.746.172-.198.555-.33.78-.449.674-.33 1.401-.436 2.088-.106.992.476 1.772 1.836 1.573 2.932-.238 1.36-1.784 2.297-3.093 2.31-1.321.014-2.498-1.756-1.731-2.918l-.198.964zM46.23 85.69s.08-1.136.279-1.374c.079-.106.277-.172.396-.224.33-.172.7-.212 1.044-.053.49.237.886.91.793 1.465-.119.674-.885 1.15-1.546 1.162-.661 0-1.243-.871-.873-1.452l-.092.489zm32.978 13.204s.08-1.136.278-1.374c.08-.105.278-.171.397-.224.33-.158.7-.211 1.044-.053.489.238.885.911.793 1.466-.12.673-.886 1.149-1.547 1.162-.66 0-1.242-.872-.872-1.453zm22.247-58.311s.079-1.136.277-1.373c.079-.106.278-.172.397-.225.33-.171.7-.21 1.044-.052.489.237.885.91.793 1.465-.119.674-.886 1.149-1.547 1.162-.66 0-1.242-.871-.872-1.452l-.092.488zm-45.377 84.64s.079-1.135.277-1.373c.08-.106.278-.172.397-.224.33-.172.7-.212 1.044-.053.489.237.886.911.793 1.465-.119.674-.886 1.149-1.547 1.162-.66 0-1.242-.871-.872-1.452l-.092.488zm59.759-38.583c-1.098.687-1.772.99-2.433 2.007-.489.753-1.017 1.44-1.401 2.258-.304.647-.674 1.624-.621 2.35.145 1.902 2.511.225 3.186-.343.912-.779 1.784-1.835 1.85-3.063.027-.489.04-1.03-.145-1.48a13 13 0 0 0-.278-.62c-.225-.422-.41-.422-.158-1.109m23.171 8.292c.079-.845-.344 2.192-.172 2.324.264 0 .582.04.846 0 .37-.052.476-.25.767-.475.608-.462 1.044-.74 1.057-1.558.013-.687-.106-1.096-.78-1.294-.291-.093-.436-.211-.753-.119-.648.185-1.111.74-1.362 1.32l.384-.198z"/><path fill="#ffef84" d="M77.478 11.058c.053-.567-.224 1.48-.119 1.572.185 0 .397.026.569 0 .25-.04.317-.172.528-.317.41-.317.7-.502.727-1.057 0-.462-.066-.74-.528-.884-.199-.066-.291-.146-.516-.08-.436.133-.753.502-.925.898zm39.231 59.011c.053-.568-.224 1.478-.119 1.57.185 0 .397.027.569 0 .251-.039.317-.17.528-.316.41-.317.701-.502.714-1.056.013-.463-.066-.74-.529-.885-.198-.066-.29-.145-.515-.08-.436.133-.754.502-.925.899l.264-.132zm-41.372 56.303c.568 0-1.494-.079-1.573.053.013.185 0 .396.053.568.066.25.198.303.37.488.356.37.568.647 1.123.608.463-.04.727-.146.82-.608.04-.198.105-.304.026-.515-.172-.422-.568-.686-.991-.832l.158.251zM42.423 64.311c.053-.567-.225 1.48-.119 1.572.185 0 .397.026.569 0 .25-.04.317-.172.528-.317.41-.317.7-.502.714-1.056 0-.463-.066-.74-.529-.885-.198-.066-.29-.145-.515-.08-.436.133-.754.502-.925.898l.264-.132z"/><path fill="#84deff" d="M74.24 120.232c.08-.845-.343 2.192-.171 2.324.264 0 .581.04.845 0 .37-.053.476-.251.767-.475.608-.463 1.044-.74 1.058-1.559.013-.686-.106-1.095-.78-1.294-.291-.092-.437-.211-.754-.118-.647.184-1.11.739-1.361 1.32l.383-.198z"/></g><path fill="url(#d)" fill-rule="evenodd" d="M33.792 72.604c23.449 3.71 22.008 9.89 49.224 2.482 27.216-7.407 46.712-48.315 46.712-48.315s1.362-3.023.212-4.806c-.463-.713-4.032.766-4.032.766.622 13.125-17.778 40.247-38.543 48.05-2.221.832-4.455 1.123-6.543 1.598-.978-.488-3.384-2.707 7.983-10.405 13.377-9.058 19.404-12.438 18.162-21.866-1.243-9.415 10.667-24.349 10.667-24.349s.859-3.975-1.388-6.444c-2.895-3.182-9.279.053-9.279.053s-1.652 18.473-25.114 28.442c-23.45 9.983-36.482 5.018-45.457 2.298C27.42 37.375 24.75 22.533 24.75 22.533s-7.6-1.572-10.363 3.261c-2.023 3.552.912 7.976.912 7.976s14.143 5.123 26.885 10.009c12.743 4.885 37.064.502 45.748-3.671s8.684-10.84 15.637-16.915a35 35 0 0 1 8.182-5.335s-7.6 11.713-6.728 19.952-4.349 7.95-17.091 22.421c-8.935 10.154-16.747 13.363-20.607 14.38-9.808.885-18.717-.211-30.93-3.526C16.7 65.751 4.884 57.195 4.884 57.195s-1.718-.82-2.366 1.069c-.278.792 1.48 3.037 1.48 3.037s6.332 7.592 29.794 11.303" clip-rule="evenodd"/><path fill="url(#e)" fill-rule="evenodd" d="M50.275 141.927s-5.776-3.592-10.111-14.736c-4.35-11.145-3.768-10.405-11.87-17.43-8.103-7.012-22.207-13.917-22.207-13.917s-.951.33-.951.607c0 1.452 1.678 1.61 1.678 1.61s13.166 5.639 21.374 14.711c8.222 9.071 17.104 25.154 10.773 24.203 0 0 1.427 4.027 4.758 4.952s6.57 0 6.57 0z" clip-rule="evenodd"/><path fill="url(#f)" d="M107.918 88.04c2.697-2.866 5.948-6.735 19.113-6.814 13.179-.092 19.946 2.826 19.946 2.826s2.71-.766 3.001-4.278c.291-3.486-2.379-5.256-2.379-5.256-.133 1.096-1.468 8.332-12.65 4.041 0-.106 3.952-3.697 4.811-11 .873-7.407 3.516-17.904 3.516-17.904s1.56-2.602.542-4.688c-.33-.687-2.894-1.003-2.894-1.003 2.22 14.762-3.384 32.548-9.465 34.595-7.375.092-16.377 1.373-20.461 4.067-5.01 3.314-10.046 18.288-13.271 28.825-.806 2.615-2.459 5.453-4.574 8.292-8.062 1.941-5.511-7.724-9.001-10.695-3.463-2.958-10.138-1.373-14.474-2.971-4.335-1.598-5.498-5.044-10.138-5.586-4.626-.554-11.936 8.055-20.263 4.503S3.059 68.444 3.059 68.444.548 67.837.032 69.58c-.383 1.334 2.763 4.82 2.763 4.82s19.39 29.234 37.923 33.037c18.531 3.803 35.331.238 41.12 5.268 5.764 5.005 6.2 13.007 6.2 13.073-6.027 6.378-13.099 11.884-16.443 13.561-5.79 2.918-15.32 4.899-15.32 4.899 1.296 1.492 3.913 2.693 6.728 3.446 4.058 1.083 6.662-.964 6.662-.964s-2.353-2.047.714-4.608c7.825-6.51 13.376-9.349 21.492-11.264 4.918-1.162 6.385 1.07 7.085.357 7.561 2.416 13.562-3.248 20.065-8.464 6.49-5.189 14.844-5.955 14.844-5.955s4.322-.727 5.446-2.628c1.018-1.73-1.388-3.631-1.388-3.631s-3.688 1.505-10.627 5.017c-6.953 3.513-14.395 13.72-22.881 13.403-4.679-.172-3.701-4.899-4.137-5.572 0-.33.013-.674 0-1.004-.132-3.446-.86-6.562-.86-9.058 0-.647.04-1.241.173-1.783.78-3.684 5.604-20.598 8.301-23.464zm-14.765 31.717c-1.48 1.993-3.198 3.987-5.01 5.902zm6.504 5.123c.106.792.264 1.571.132 2.364-.04.409-.119.752-.516.884-.224.079-.489.106-.713.172-.37.092-.714.224-1.084.277-.569.079-1.19.013-1.758.013-.608 0-1.27.066-1.877-.013-.29-.039-.582-.105-.872-.158-.291-.04-.688-.066-.952-.212-.621-.356-.992-1.003-1.467-1.162.04-.554.013-1.043.25-1.531.067-.185.12-.37.172-.555.106-.317.225-.607.37-.911.331-.779.675-1.532 1.164-2.218.225-.357.463-.7.674-1.07.264-.396.608-.7.952-1.043.489-.489.965-.937 1.573-1.268.475-.264 1.242-.62 1.77-.422.556.185.78.898.992 1.386.159.357.198.727.304 1.109.12.476.33.898.45 1.387.118.528.119 1.083.224 1.624.093.449.159.885.225 1.334z"/><path fill="#ffab0e" fill-rule="evenodd" d="M17.203 24.21s3.265 6.708 11.672 12.755c0 0-2.79-9.731-4.799-13.772 0 0-2.749-2.601-6.873 1.017m44.03 20.467s5.71-2.298 7.482-1.44c0 0-5.473 1.505-7.482 1.44m19.113-5.282c1.031-.33 2.075-.634 3.08-1.03a20 20 0 0 0 2.578-1.215c1.057-.594 2.088-1.241 3.04-1.98.25-.186.528-.318.793-.49.304-.197.595-.448.885-.66.252-.198.463-.462.714-.673s.502-.422.754-.607c.436-.33.885-.7 1.282-1.083.198-.185.37-.383.581-.541.146-.12.252-.159.423-.225.066.132-.092.45-.145.568-.12.277-.304.489-.45.74-.343.58-.898.95-1.321 1.478-.278.344-.661.62-1.031.872-.516.356-1.11.66-1.666.937-.568.29-1.163.476-1.718.793-.529.303-1.044.54-1.6.792-.356.172-.7.422-1.03.62l-.873.515c-.436.264-.846.515-1.295.753-.238.132-.476.224-.714.357-.529.29-1.15.514-1.758.501-.225 0-.423.027-.635-.066-.092-.04-.264-.092-.277-.198.145 0 .278-.198.423-.158zm15.412-9.917a2.3 2.3 0 0 0-.7.542c0 .158-.093.343.185.33.29 0 .502-.198.687-.396.093-.106.291-.423.172-.581-.145-.185-.529.066-.648.171l.291-.066zm12.24-19.661c-.211.277-.515.607-.647.95-.106.265-.199.529-.291.793-.199.515-.304 1.043-.463 1.558-.291.95-.529 1.915-.899 2.839-.172.423-.383.819-.581 1.228-.106.211-.265.41-.37.634-.08.198-.199.356-.291.554-.08.185-.106.37-.225.529-.145.198-.225.383-.344.594-.092.172-.462.58-.356.805.119.014.224-.158.29-.224.212-.212.45-.383.661-.581.397-.383.754-.806 1.137-1.215.172-.172.278-.383.423-.568.211-.264.463-.475.674-.752.331-.45.701-.872 1.071-1.294.185-.212.317-.45.502-.674.172-.198.357-.37.529-.555.542-.594 1.123-1.175 1.652-1.795a15 15 0 0 0 1.176-1.558c.291-.423.542-.859.807-1.308.105-.184.33-.607.251-.831-.106-.278-.436-.397-.701-.436-.409-.066-.925-.066-1.321.026-.45.106-.833.277-1.256.45-.37.158-.688.435-1.044.607-.265.132-.556.25-.384.198zm3.767 8.675c-.119.251-.265.66-.45.898-.158.225-.317.436-.462.674-.251.422-.476.845-.727 1.267-.45.766-1.005 1.48-1.335 2.298q-.198.495-.436.95c-.172.33-.238.687-.357 1.03-.119.344-.159.687-.238 1.03-.066.278-.199.555-.119.845.277-.356.476-.752.727-1.135.172-.264.317-.541.555-.753s.436-.449.648-.686c.211-.238.423-.476.581-.753.146-.251.238-.515.41-.766.159-.224.278-.488.423-.726.172-.277.357-.555.463-.858.211-.595.423-1.215.581-1.823.079-.29.119-.673.066-.964-.039-.237-.409-.884-.37-.541zm-4.995 9.904c-.106.382-.265.818-.344 1.214-.027.106-.053.317.026.37.093.066.318-.026.384-.092.079-.08.119-.172.171-.265.119-.184.265-.488.199-.726-.066-.264-.304-.475-.516-.211l.066-.29zm-7.602 20.981c-.82.78-1.758 1.466-2.419 2.39-.066.093-.396.476-.317.634.093.185.476.066.595.013.476-.158.952-.422 1.388-.647.343-.171.66-.396.978-.594.74-.475 1.375-1.11 1.943-1.782.251-.291.516-.608.648-.964.039-.106.185-.383.158-.502-.119-.396-1.07.026-1.255.145-.225.145-.423.343-.622.515-.171.145-.33.25-.515.37-.145.105-.29.237-.436.343-.146.119-.251.37-.146.08m-3.7 3.749-.833.396c0 .133-.344.357-.172.529.093.092.397-.027.49-.066.197-.066.303-.212.449-.344.145-.145.132-.198.052-.383v-.145zM76.751 71.02a17 17 0 0 1-2.115 1.36c-.872.462-1.797.805-2.656 1.293-1.336.753-2.75 1.32-4.15 1.941-.226.093-2.274.898-1.508 1.32.357.186.714.146 1.11.16.318 0 .635.092.952.105h.978c1.68 0 3.45-.383 4.984-1.07.343-.145.766-.264 1.07-.475.185-.132.37-.33.542-.489.344-.316.582-.673.793-1.082.304-.594.502-1.136.476-1.81 0-.237-.08-.527-.251-.712-.132-.159-.304-.198-.225-.542M64.774 76.13c-.37-.185-.793-.476-1.203-.49-.145 0-.277.027-.423.054-.317.066-.806.105-1.057.343-.37.356.41.647.7.726.344.093.846.093 1.203.053.291-.04.886-.29.886-.66.026 0 .053 0 .08-.013h-.2zm22.208-4.635c1.56-.476 3.04-1.11 4.494-1.836a21 21 0 0 0 1.666-.937c.343-.212.7-.502 1.057-.674.145-.079 1.058-.607 1.176-.356.159.33-.82.977-.965 1.109-.37.33-.78.58-1.19.871-.343.238-.713.357-1.083.568-.476.278-.952.502-1.454.726-.37.159-.753.344-1.15.45-.304.079-.595.198-.899.264-.225.052-.45-.014-.674.04-.277.065-.806.197-.991-.212zm34.115 8.398c.754 0 1.666.079 2.446-.027.568-.079 1.136-.198 1.705-.25 1.123-.106 2.234-.397 3.37-.436.45-.014.899 0 1.349 0 .251 0 .594-.066.832 0 .106.026.397.171.463.25.278.291 0 .251-.172.357-.41.224-.714.41-1.189.515-.714.145-1.415.343-2.129.449-.502.066-.991-.013-1.493.066-.661.106-1.296.119-1.957.106h-1.625c-.41 0-.754-.08-1.15-.133-.344-.052-.542.027-.833-.145-.132-.079-.344-.277.383-.74zm18.242.726c.965.092 1.573.198 2.445.04.569-.106 1.15-.199 1.719-.291.819-.132 1.705-.528 2.405-.977.397-.251 1.19-.806 1.692-.66.397.105.846.594.873 1.016.039.542-.569.99-.939 1.281-.648.515-1.626.7-2.432.753-.991.053-1.943-.08-2.908-.29-.291-.067-.582-.16-.886-.225-.251-.053-.793 0-1.969-.647m2.18-35.731c-.066.66-.476 2.284.357 2.812.436.278.648-.462.661-.792 0-.489-.304-1.743-.872-1.875zM5.03 59.835c.687.885 1.19 1.796 2.154 2.35.555.317 1.097.7 1.718.885.582.172 1.322.37 1.93.238.33-.08.41.04.397-.383 0-.185-.146-.436-.251-.581-.199-.304-.503-.489-.74-.766-.278-.317-.437-.62-.767-.885-1.11-.871-2.142-1.584-3.49-2.02-.489-.158-.515-.211-.938.053-.344.211-.357.119-.397.528-.066.528.317.95.582 1.36l-.198-.766zm.582 14.275c1.123 1.795 2.405 3.419 3.767 5.043.965 1.149 1.546 2.588 2.643 3.645.185.171 2.102 1.822 2.089.871 0-.211-.555-1.07-.674-1.268a12.4 12.4 0 0 0-1.071-1.544c-.317-.383-.7-.766-.965-1.202-.29-.462-.542-.74-.912-1.149-.463-.515-.714-1.162-1.123-1.716-.384-.515-.767-1.004-1.137-1.519-.49-.7-1.005-1.479-1.798-1.782-.211-.08-.515-.304-.78-.106-.423.303-.079 1.347-.04.74zm69.684 33.934c1.612-.29 2.92-.541 4.52-.171.78.184 1.56.422 2.327.647.489.145 1.242.29 1.599.66.383.383.251 1.083-.093 1.426-.475.462-1.506.37-2.101.317-1.203-.119-2.353-.264-3.516-.608-.661-.198-1.573-.528-2.128-.963-.251-.199-.912-.753-.621-1.308zm22.207 8.676c-.82-.185-.886-1.638-.661-2.219.132-.33.33-.858.7-1.016s.503.105.82.224a10.5 10.5 0 0 1-1.256 2.047l.384.964zm30.494-.568c1.071-.7 1.811-1.189 2.987-1.545.595-.172 1.216-.251 1.811-.436.701-.211 1.401-.541 2.115-.687.264-.052.516-.039.767-.079.291-.053.145-.198.476-.013.608.33.33.779-.066 1.109-.754.634-1.388.885-2.353 1.109-.542.132-.965.436-1.494.595-.317.092-.648.145-.965.237-1.189.317-2.63.093-3.278-.29M30.7 113.643c.674 1.4 1.242 2.747 2.128 4.014.396.568.7 1.123 1.335 1.4.515.211.859.304.925-.396.04-.357-.264-.872-.463-1.228-.568-1.017-1.374-1.889-2.048-2.826-.265-.357-.635-.845-.965-1.122-.252-.199-.979-.423-.912.158m28.379 30.845c1.625-.343 3.053-.845 4.6-1.413.647-.237 1.281-.237 1.93-.369.065 0 .131-.132.224-.159.159-.039.423 0 .595 0s.912-.105 1.057 0c.608.449-.687 1.611-.965 1.902-1.057 1.109-2.815 1.73-4.375 1.571-.793-.079-1.507-.502-2.273-.594-.49-.053-1.573-.238-1.52-.938.052 0 .118-.026.753-.026zm27.995-16.386c-1.44.977-3.027 1.835-4.071 3.288-.714 1.003.594.792 1.163.581.476-.185.846-.357 1.269-.661.383-.264.581-.528.899-.845.224-.224.515-.409.727-.66s.29-.805.542-.977a2.5 2.5 0 0 0-.159-.33l-.383-.383zm-39.377-22.184c1.044-.449 2.088-.818 3.08-1.346.912-.489 1.784-.991 2.722-1.453 1.19-.594 2.485-1.426 3.86-1.452.516 0 .86-.264 1.348-.053.384.171.675.33.912.673.701 1.004-.687 1.968-1.454 2.483-.581.396-1.123.871-1.77 1.148-.768.317-1.587.476-2.367.753-1.282.475-2.643 1.004-4.018 1.175-.714.093-1.362-.171-1.93-.541-.29-.185-.581-.436-.767-.726-.171-.264-.29-.7.384-.674z" clip-rule="evenodd"/><path fill="url(#g)" fill-rule="evenodd" d="M97.49 59.796c3.516 8.384-4.256 19.634-17.355 25.114s-26.569 3.117-30.085-5.268c-3.515-8.385 4.257-19.635 17.356-25.115s26.568-3.116 30.084 5.269" clip-rule="evenodd" style="mix-blend-mode:screen"/><defs><radialGradient id="a" cx="0" cy="0" r="1" gradientTransform="matrix(116.306 0 0 116.185 30.38 40.544)" gradientUnits="userSpaceOnUse"><stop stop-color="#6365de"/><stop offset=".2" stop-color="#6262da"/><stop offset=".35" stop-color="#605ad1"/><stop offset=".49" stop-color="#5c4cc0"/><stop offset=".62" stop-color="#5739a9"/><stop offset=".74" stop-color="#51218b"/><stop offset=".86" stop-color="#490366"/><stop offset=".87" stop-color="#490063"/></radialGradient><radialGradient id="c" cx="0" cy="0" r="1" gradientTransform="matrix(95.3021 0 0 95.2036 22.318 25.147)" gradientUnits="userSpaceOnUse"><stop stop-color="#a3f1ff"/><stop offset="1"/></radialGradient><radialGradient id="e" cx="0" cy="0" r="1" gradientTransform="matrix(36.7726 0 0 36.7346 13.714 108.216)" gradientUnits="userSpaceOnUse"><stop stop-color="#ff340b"/><stop offset=".46" stop-color="#fe330d"/><stop offset=".69" stop-color="#fc3314"/><stop offset=".86" stop-color="#f93322"/><stop offset="1" stop-color="#f63333"/></radialGradient><radialGradient id="g" cx="0" cy="0" r="1" gradientTransform="matrix(23.7633 -9.935 6.37213 15.2099 73.56 70.33)" gradientUnits="userSpaceOnUse"><stop stop-color="#ff5b00"/><stop offset=".17" stop-color="#c44600"/><stop offset=".4" stop-color="#7f2d00"/><stop offset=".6" stop-color="#481900"/><stop offset=".78" stop-color="#210b00"/><stop offset=".92" stop-color="#080300"/><stop offset="1"/></radialGradient><linearGradient id="b" x1="2.822" x2="106.98" y1="54.527" y2="54.527" gradientUnits="userSpaceOnUse"><stop stop-color="#7dbeff"/><stop offset=".25" stop-color="#7bbbfd"/><stop offset=".43" stop-color="#78b1f6"/><stop offset=".59" stop-color="#71a1ec"/><stop offset=".74" stop-color="#688bdd"/><stop offset=".87" stop-color="#5d6eca"/><stop offset="1" stop-color="#504db5"/></linearGradient><linearGradient id="d" x1="2.492" x2="130.403" y1="43.237" y2="43.237" gradientUnits="userSpaceOnUse"><stop stop-color="#ff380b"/><stop offset=".46" stop-color="#fe370d"/><stop offset=".68" stop-color="#fc3614"/><stop offset=".86" stop-color="#f93522"/><stop offset="1" stop-color="#f63333"/></linearGradient><linearGradient id="f" x1=".019" x2="150.004" y1="95.962" y2="95.962" gradientUnits="userSpaceOnUse"><stop stop-color="#ff380b"/><stop offset=".46" stop-color="#fe370d"/><stop offset=".68" stop-color="#fc3614"/><stop offset=".86" stop-color="#f93522"/><stop offset="1" stop-color="#f63333"/></linearGradient></defs></svg>