<svg xmlns="http://www.w3.org/2000/svg" fill="none" viewBox="0 0 150 150"><g clip-path="url(#a)"><path fill="url(#b)" d="M149.976 75c0 1.441-.048 2.87-.121 4.286a73 73 0 0 1-.653 6.55c-.037.266-.061.496-.109.75a74.6 74.6 0 0 1-6.417 20.727c-8.535 17.845-23.898 31.78-42.736 38.426a75 75 0 0 1-24.952 4.25 75.6 75.6 0 0 1-15.351-1.574 37 37 0 0 1-1.937-.436c-.52-.109-1.03-.23-1.55-.375a78 78 0 0 1-6.416-1.962 74.4 74.4 0 0 1-14.819-7.239c-.109-.073-.23-.158-.363-.23a92 92 0 0 1-3.256-2.216 75.5 75.5 0 0 1-10.122-8.717 78 78 0 0 1-2.542-2.772A74.4 74.4 0 0 1 6.114 104.71a80 80 0 0 1-2.095-5.4 72 72 0 0 1-1.949-6.707 75.2 75.2 0 0 1 .073-35.35 71 71 0 0 1 2.203-7.362 74.7 74.7 0 0 1 15.666-25.835 70 70 0 0 1 6.574-6.271 72 72 0 0 1 9.201-6.659 73.5 73.5 0 0 1 19.94-8.571 59 59 0 0 1 5.036-1.15A75.4 75.4 0 0 1 74.988.047c2.155 0 4.286.097 6.38.267 3.136.266 6.211.714 9.226 1.368 10.145 2.118 19.515 6.32 27.699 12.106a76 76 0 0 1 13.063 11.768 74.6 74.6 0 0 1 14.117 23.826c.072.218.169.423.23.63 2.772 7.832 4.273 16.259 4.273 25.024z"/><path fill="url(#c)" d="M145.703 49.988c-14.007 6.768-11.816 10.363-28.995 49.613-13.681 31.283-43.971 44.443-57.07 48.814a52 52 0 0 1-1.938-.436c59.674-32.41 58.536-77.373 54.298-110.594C109.335 16.538 93.354 5.617 81.381.278a75 75 0 0 1 9.213 1.356c38.39 20.291 25.569 85.957 22.131 96.865-3.983 12.664 5.06-5.06 12.3-27.845 5.775-18.208 16.416-20.944 20.448-21.308.085.206.157.424.23.63z"/><path fill="url(#d)" d="M131.332 25.533c-3.184 7.724-4.795 21.997-5.957 32.106-1.453 12.664-.726-6.513-.726-24.237 0-7.094-2.906-13.971-6.38-19.649a75 75 0 0 1 13.05 11.768z"/><path fill="url(#e)" d="M126.829 107.192c-1.986 10.266.883 10.218 15.835.121-8.523 17.845-23.911 31.78-42.736 38.426 3.075-2.772 5.871-6.271 8.087-10.702 10.823-21.659 19.128-39.83 41.174-49.19-.036.255-.072.497-.109.751-7.372 4.105-20.69 12.53-22.251 20.594"/><path fill="url(#f)" d="M66.429 96.707c-.835 10.049-4.746 29.141-31.514 41.683a2 2 0 0 1-.35-.23c7.505-4.443 15.859-12.034 20.169-24.83 8.922-26.526 5.315-52.567-16.15-49.19 0 0-7.724 1.683-9.165 17.361-1.32 14.238 3.935 35.219-10.787 42.93a74.5 74.5 0 0 1-12.506-19.745c2.579.193 6.186-.509 9.806-4.371 6.744-7.227 8.68-12.784 9.88-20.496 1.21-7.724 2.166-11.102 3.62-15.194 1.44-4.104-5.061-10.375-13.742-.969C8.608 71.332 3.293 79.48 2.094 92.566A74.2 74.2 0 0 1 0 75a74.9 74.9 0 0 1 4.322-25.145c8.85-6.562 21.066-10.957 35.702-4.153C69.347 59.334 67.506 83.681 66.43 96.695z"/><path fill="url(#g)" d="M84.152 117.688c-5.448 13.329-16.09 22.966-27.99 29.928a76 76 0 0 1-6.417-1.974c16.041-12.058 29.903-31.489 30.303-62.676.762-58.341-41.235-60.86-60.049-58.922a70 70 0 0 1 6.574-6.284c39.843-3.184 55.896 31.453 55.896 31.453-3.1-32.918-17.64-43.353-26.755-46.683a69 69 0 0 1 5.036-1.162c34.48 19.71 39.576 76.768 23.39 116.32z"/><path fill="#fff" d="M148.631 60.848c.557 3.753.872 7.59.872 11.501s-.279 7.542-.811 11.199l-.109.774a76.9 76.9 0 0 1-6.622 21.381c-8.802 18.414-24.674 32.808-44.105 39.661a77.2 77.2 0 0 1-25.75 4.394c-1.66 0-3.306-.06-4.94-.157 2.579.266 5.182.4 7.833.4 8.74 0 17.143-1.502 24.952-4.25 18.825-6.646 34.213-20.581 42.736-38.426a74.4 74.4 0 0 0 6.416-20.714c.037-.243.073-.497.109-.751.509-3.547.787-7.167.787-10.848 0-4.842-.472-9.576-1.356-14.164z" opacity=".65" style="mix-blend-mode:color-dodge"/><path fill="url(#h)" d="M145.702 49.988a6 6 0 0 0-.23-.63 74.7 74.7 0 0 0-14.128-23.825 75.8 75.8 0 0 0-13.051-11.768A74.9 74.9 0 0 0 98.051 3.62a81 81 0 0 1 1.961 2.13 74.7 74.7 0 0 1 14.128 23.826c.085.206.158.424.23.63a74.8 74.8 0 0 1 4.286 25.024c0 3.68-.266 7.3-.787 10.848l-.109.75a74.3 74.3 0 0 1-6.416 20.715c-8.523 17.845-23.91 31.779-42.736 38.426-7.81 2.76-16.2 4.249-24.952 4.249-5.254 0-10.4-.544-15.351-1.573a52 52 0 0 1-1.937-.436 54 54 0 0 1-1.538-.376 81 81 0 0 1-4.237-1.247l.605.642a75 75 0 0 0 10.121 8.729 85 85 0 0 0 3.257 2.215c.12.085.242.158.351.23a73.7 73.7 0 0 0 14.818 7.24 72 72 0 0 0 6.417 1.974c.508.133 1.017.266 1.538.375.641.157 1.283.303 1.936.436a75.4 75.4 0 0 0 15.352 1.574c8.74 0 17.143-1.502 24.951-4.25 18.826-6.646 34.214-20.581 42.737-38.426a74.4 74.4 0 0 0 6.416-20.714l.109-.751c.509-3.547.787-7.167.787-10.848 0-8.777-1.501-17.191-4.286-25.024" style="mix-blend-mode:color-burn"/><path fill="#fff7f5" d="M149.976 75c0 1.441-.049 2.87-.122 4.298-17.336 20.363-73.983 3.354-108.378-18.039-14.89-9.261-28.353-8.535-39.346-4.031a73 73 0 0 1 2.203-7.373A74.7 74.7 0 0 1 20 24.032a70 70 0 0 1 6.574-6.284c8.341-7.07 18.245-12.348 29.14-15.23a70 70 0 0 1 5.05-1.162A75.5 75.5 0 0 1 74.986 0a75 75 0 0 1 6.393.278c3.135.267 6.21.715 9.213 1.356 10.133 2.131 19.516 6.332 27.687 12.12a75 75 0 0 1 13.051 11.767 74.7 74.7 0 0 1 14.129 23.825c.085.206.157.424.23.63A74.8 74.8 0 0 1 149.976 75" opacity=".5" style="mix-blend-mode:overlay"/><path fill="#fff" d="M45.193 50.92c-4.612 9.032-12.603 14.177-17.845 11.502-5.254-2.676-5.775-12.168-1.162-21.2 4.613-9.03 12.603-14.176 17.845-11.5 5.254 2.675 5.775 12.167 1.162 21.198m-.473 26.659c-1.707 2.494-4.261 3.717-5.714 2.724s-1.247-3.814.46-6.32c1.707-2.494 4.262-3.716 5.715-2.724 1.452.993 1.247 3.814-.46 6.32"/><path fill="#fff" d="M4.02 99.298a72 72 0 0 1-1.95-6.707 75.2 75.2 0 0 1 .073-35.351 71 71 0 0 1 2.203-7.36 74.7 74.7 0 0 1 15.666-25.836 70 70 0 0 1 6.574-6.271 72 72 0 0 1 9.201-6.66C17.421 26.55-3.148 54.432 4.031 99.324z" opacity=".5" style="mix-blend-mode:color-dodge"/></g><defs><linearGradient id="b" x1="2.99" x2="120.63" y1="18.063" y2="111.078" gradientUnits="userSpaceOnUse"><stop stop-color="#ff91a7"/><stop offset=".1" stop-color="#fb89a8"/><stop offset=".24" stop-color="#f274ae"/><stop offset=".42" stop-color="#e253b6"/><stop offset=".62" stop-color="#cd24c2"/><stop offset=".76" stop-color="#bd00cc"/><stop offset="1" stop-color="#8b00cc"/></linearGradient><linearGradient id="c" x1="101.696" x2="101.696" y1="148.415" y2=".29" gradientUnits="userSpaceOnUse"><stop stop-color="#e56ccb"/><stop offset=".57" stop-color="#f492dd"/><stop offset="1" stop-color="#ffabe9"/></linearGradient><linearGradient id="d" x1="118.281" x2="131.332" y1="37.748" y2="37.748" gradientUnits="userSpaceOnUse"><stop stop-color="#e56ccb"/><stop offset=".34" stop-color="#e268c8"/><stop offset=".64" stop-color="#db5dc1"/><stop offset=".93" stop-color="#cf4bb5"/><stop offset="1" stop-color="#cc46b2"/></linearGradient><linearGradient id="e" x1="99.94" x2="149.202" y1="115.8" y2="115.8" gradientUnits="userSpaceOnUse"><stop stop-color="#e56ccb"/><stop offset=".34" stop-color="#e268c8"/><stop offset=".64" stop-color="#db5dc1"/><stop offset=".93" stop-color="#cf4bb5"/><stop offset="1" stop-color="#cc46b2"/></linearGradient><linearGradient id="f" x1="33.463" x2="33.463" y1="138.39" y2="42.3" gradientUnits="userSpaceOnUse"><stop stop-color="#cc4db0"/><stop offset=".26" stop-color="#da6fc0"/><stop offset=".76" stop-color="#f4aedd"/><stop offset="1" stop-color="#ffc7e9"/></linearGradient><linearGradient id="g" x1="56.488" x2="56.488" y1="147.604" y2="1.368" gradientUnits="userSpaceOnUse"><stop stop-color="#cc4db0"/><stop offset=".26" stop-color="#da6fc0"/><stop offset=".76" stop-color="#f4aedd"/><stop offset="1" stop-color="#ffc7e9"/></linearGradient><linearGradient id="h" x1="20.569" x2="149.976" y1="76.816" y2="76.816" gradientUnits="userSpaceOnUse"><stop stop-color="#fff7f5"/><stop offset=".16" stop-color="#f8eef2"/><stop offset=".41" stop-color="#e7d8ed"/><stop offset=".73" stop-color="#cbb3e4"/><stop offset="1" stop-color="#ae8edb"/></linearGradient><clipPath id="a"><path fill="#fff" d="M0 0h150v150H0z"/></clipPath></defs></svg>