<svg width="140" height="140" viewBox="0 0 140 140" fill="none" xmlns="http://www.w3.org/2000/svg">
<path d="M139.979 70.0007C139.979 71.3453 139.933 72.6787 139.866 74.0007C139.753 76.0686 139.549 78.1025 139.255 80.1138C139.222 80.3624 139.199 80.5771 139.154 80.8144C138.092 87.6393 136.046 94.1365 133.165 100.159C125.199 116.815 110.86 129.82 93.2777 136.024C86.0008 138.589 78.1589 139.99 69.9893 139.99C65.0853 139.99 60.2943 139.482 55.6615 138.521C55.0626 138.408 54.4525 138.261 53.8536 138.114C53.3677 138.013 52.8931 137.9 52.4072 137.764C50.3846 137.244 48.3846 136.623 46.4185 135.934C41.5258 134.182 36.893 131.911 32.5879 129.176C32.4862 129.109 32.3732 129.029 32.2489 128.962C31.2319 128.306 30.215 127.606 29.2093 126.894C25.8307 124.464 22.6556 121.741 19.7629 118.758C18.9493 117.911 18.1471 117.041 17.39 116.171C12.5877 110.713 8.62155 104.509 5.70627 97.7298C4.99439 96.08 4.35032 94.4077 3.75145 92.6902C3.05087 90.6563 2.4407 88.5546 1.93222 86.4302C0.666673 81.1534 0 75.6731 0 70.0233C0 64.3735 0.700571 58.7464 2.00002 53.4356C2.56499 51.0966 3.25427 48.7915 4.05653 46.5655C7.2656 37.5258 12.2826 29.3337 18.6781 22.4523C20.5878 20.3732 22.6443 18.4183 24.8138 16.5991C27.5031 14.3166 30.3731 12.2262 33.4014 10.3844C39.119 6.8476 45.3676 4.13571 52.0118 2.38428C53.5598 1.9662 55.1304 1.59332 56.7124 1.31083C61.0062 0.485964 65.4469 0.0452881 69.9893 0.0452881C72.0006 0.0452881 73.9894 0.135686 75.9442 0.293879C78.8708 0.542469 81.7408 0.96054 84.5544 1.57072C94.0234 3.54813 102.769 7.46907 110.408 12.8703C114.894 16.0454 118.973 19.7404 122.6 23.8534C128.284 30.3167 132.792 37.8535 135.775 46.0909C135.843 46.2943 135.933 46.4864 135.99 46.6785C138.577 53.9893 139.979 61.8537 139.979 70.0346V70.0007Z" fill="url(#paint0_linear_2521_4147)"/>
<path d="M135.99 46.6558C122.916 52.9722 124.961 56.3282 108.927 92.9613C96.159 122.159 67.8875 134.442 55.6614 138.521C55.0513 138.397 54.4524 138.261 53.8535 138.114C109.549 107.865 108.487 65.8989 104.532 34.893C102.046 15.4352 87.1306 5.24298 75.9554 0.259888C78.882 0.508477 81.7408 0.926572 84.5544 1.52545C120.385 20.4635 108.419 81.7521 105.21 91.933C101.492 103.752 109.933 87.2098 116.69 65.9441C122.08 48.9496 132.012 46.3959 135.775 46.0569C135.854 46.249 135.922 46.4524 135.99 46.6445V46.6558Z" fill="url(#paint1_linear_2521_4147)"/>
<path d="M122.576 23.8307C119.604 31.0399 118.101 44.362 117.017 53.7971C115.661 65.6164 116.339 47.718 116.339 31.1754C116.339 24.5539 113.627 18.1358 110.384 12.8363C114.87 16.0115 118.96 19.7064 122.565 23.8195L122.576 23.8307Z" fill="url(#paint2_linear_2521_4147)"/>
<path d="M118.373 100.046C116.52 109.628 119.198 109.583 133.153 100.159C125.198 116.815 110.836 129.82 93.2656 136.024C96.1357 133.436 98.7459 130.171 100.814 126.035C110.916 105.82 118.667 88.8597 139.243 80.1251C139.21 80.3624 139.176 80.5884 139.142 80.8257C132.26 84.6562 119.831 92.5207 118.373 100.046Z" fill="url(#paint3_linear_2521_4147)"/>
<path d="M62.0006 90.2607C61.2209 99.6393 57.5711 117.459 32.5879 129.165C32.4749 129.108 32.3619 129.029 32.2602 128.95C39.2659 124.803 47.0626 117.719 51.0852 105.775C59.413 81.0177 56.0457 56.7124 36.0116 59.8649C36.0116 59.8649 28.8025 61.4356 27.4579 76.0685C26.2262 89.3567 31.1302 108.939 17.39 116.137C12.5877 110.679 8.63285 104.475 5.71757 97.7071C8.12437 97.8879 11.4916 97.2325 14.8702 93.6279C21.164 86.8821 22.972 81.6956 24.0906 74.4978C25.2206 67.2887 26.1132 64.1362 27.4692 60.3169C28.8138 56.4864 22.746 50.6332 14.6442 59.4129C8.03397 66.5769 3.07347 74.1814 1.95482 86.3962C0.677972 81.142 0 75.6617 0 70.0006C0 61.7745 1.42374 53.8649 4.03393 46.5315C12.2939 40.4071 23.6951 36.3054 37.3563 42.6557C64.7237 55.379 63.0062 78.1024 62.0006 90.2494V90.2607Z" fill="url(#paint4_linear_2521_4147)"/>
<path d="M78.5413 109.843C73.4565 122.284 63.5242 131.278 52.4167 137.775C50.3828 137.244 48.3828 136.634 46.428 135.933C61.3999 124.679 74.3379 106.543 74.7107 77.4357C75.4226 22.9833 36.2245 20.633 18.665 22.4409C20.586 20.3505 22.6312 18.3956 24.8007 16.5764C61.9875 13.6046 76.9706 45.9326 76.9706 45.9326C74.078 15.2092 60.5072 5.46897 51.9987 2.3616C53.5467 1.94352 55.106 1.58194 56.6993 1.27686C88.8803 19.6725 93.6375 72.9272 78.53 109.843H78.5413Z" fill="url(#paint5_linear_2521_4147)"/>
<g opacity="0.65" style="mix-blend-mode:color-dodge">
<path d="M138.723 56.7915C139.243 60.2944 139.537 63.8763 139.537 67.5261C139.537 71.1758 139.277 74.5657 138.78 77.9781C138.746 78.2267 138.712 78.464 138.678 78.7013C137.582 85.7409 135.469 92.4528 132.497 98.6563C124.282 115.843 109.469 129.278 91.3328 135.674C83.8186 138.329 75.7281 139.775 67.2987 139.775C65.7507 139.775 64.2139 139.719 62.6885 139.628C65.0953 139.877 67.5247 140.001 69.9993 140.001C78.1575 140.001 85.9994 138.6 93.2876 136.035C110.858 129.832 125.22 116.826 133.175 100.17C136.056 94.1591 138.102 87.6618 139.164 80.8369C139.198 80.6109 139.232 80.3736 139.265 80.1363C139.74 76.8256 140 73.447 140 70.012C140 65.4921 139.559 61.074 138.734 56.7915H138.723Z" fill="white"/>
</g>
<path d="M135.989 46.6559C135.933 46.4638 135.854 46.2604 135.774 46.0683C132.78 37.8196 128.272 30.2941 122.588 23.8308C118.972 19.7178 114.882 16.0228 110.407 12.8477C104.678 8.79115 98.3278 5.58207 91.5141 3.37866C92.1356 4.03404 92.7458 4.6894 93.3447 5.36737C99.0283 11.8307 103.537 19.3562 106.531 27.6049C106.61 27.797 106.678 28.0003 106.746 28.1924C109.334 35.4919 110.746 43.3564 110.746 51.5486C110.746 54.9836 110.497 58.3622 110.011 61.673C109.978 61.9103 109.944 62.1362 109.91 62.3735C108.848 69.1985 106.802 75.6957 103.921 81.707C95.9662 98.3626 81.6045 111.368 64.0337 117.572C56.7455 120.148 48.9149 121.538 40.7453 121.538C35.8413 121.538 31.039 121.029 26.4175 120.069C25.8074 119.945 25.2085 119.809 24.6096 119.662C24.1237 119.549 23.6491 119.436 23.1746 119.312C21.8412 118.962 20.5192 118.566 19.2197 118.148C19.4118 118.351 19.5926 118.544 19.7847 118.747C22.6774 121.741 25.8526 124.464 29.2311 126.894C30.2255 127.606 31.2424 128.295 32.2707 128.962C32.3837 129.041 32.4967 129.109 32.5984 129.176C36.9148 131.922 41.5476 134.193 46.429 135.934C48.3838 136.634 50.3838 137.256 52.4178 137.775C52.8923 137.9 53.3669 138.024 53.8528 138.126C54.4517 138.273 55.0506 138.408 55.6607 138.532C60.2822 139.493 65.0732 140.001 69.9885 140.001C78.1468 140.001 85.9887 138.6 93.2769 136.035C110.848 129.832 125.209 116.826 133.164 100.17C136.046 94.1591 138.091 87.6619 139.153 80.837C139.187 80.611 139.221 80.3737 139.255 80.1364C139.729 76.8256 139.989 73.4471 139.989 70.012C139.989 61.8199 138.588 53.9667 135.989 46.6559Z" fill="url(#paint6_linear_2521_4147)" style="mix-blend-mode:color-burn"/>
<g opacity="0.5" style="mix-blend-mode:overlay">
<path d="M139.977 70.0006C139.977 71.3453 139.932 72.6786 139.864 74.012C123.683 93.0178 70.8128 77.1419 38.7108 57.1757C24.8124 48.5315 12.2473 49.2095 1.9873 53.4129C2.55228 51.0739 3.24155 48.7801 4.04382 46.5315C7.25289 37.5032 12.2699 29.311 18.6654 22.4296C20.5863 20.3392 22.6316 18.3843 24.8011 16.5651C32.5864 9.96619 41.8295 5.0396 51.9991 2.35031C53.5471 1.93222 55.1177 1.57065 56.711 1.26556C61.0161 0.440694 65.4455 0 69.9879 0C71.9879 0 73.9879 0.0903915 75.9541 0.259885C78.8806 0.508474 81.7507 0.926569 84.553 1.52544C94.0107 3.51416 102.768 7.4351 110.395 12.8363C114.881 16.0114 118.971 19.7064 122.576 23.8194C128.26 30.2828 132.768 37.8083 135.763 46.0569C135.842 46.249 135.909 46.4524 135.977 46.6445C138.565 53.944 139.977 61.8085 139.977 70.0006Z" fill="#FFF7F5"/>
</g>
<path d="M42.1803 47.526C37.8752 55.9554 30.4175 60.7577 25.5248 58.2605C20.6208 55.7633 20.1349 46.9045 24.44 38.475C28.7452 30.0456 36.2029 25.2433 41.0956 27.7405C45.9995 30.2377 46.4854 39.0965 42.1803 47.526Z" fill="white"/>
<path d="M41.7388 72.4075C40.1456 74.7352 37.7614 75.8764 36.4055 74.9499C35.0495 74.0233 35.2416 71.3905 36.8348 69.0515C38.4281 66.7238 40.8123 65.5825 42.1682 66.5091C43.5242 67.4357 43.3321 70.0685 41.7388 72.4075Z" fill="white"/>
<g opacity="0.5" style="mix-blend-mode:color-dodge">
<path d="M3.75145 92.6789C3.05087 90.6449 2.4407 88.5432 1.93222 86.4189C0.666673 81.142 0 75.6618 0 70.012C0 64.3622 0.700571 58.735 2.00002 53.4243C2.56499 51.0853 3.25427 48.7802 4.05653 46.5541C7.2656 37.5145 12.2826 29.3224 18.6781 22.4409C20.5878 20.3618 22.6443 18.407 24.8138 16.5878C27.5031 14.3053 30.3731 12.2149 33.4014 10.373C16.26 24.78 -2.93788 50.8028 3.76275 92.7015L3.75145 92.6789Z" fill="white"/>
</g>
<defs>
<linearGradient id="paint0_linear_2521_4147" x1="2.79098" y1="16.859" x2="112.589" y2="103.673" gradientUnits="userSpaceOnUse">
<stop stop-color="#FF91A7"/>
<stop offset="0.1" stop-color="#FB89A8"/>
<stop offset="0.24" stop-color="#F274AE"/>
<stop offset="0.42" stop-color="#E253B6"/>
<stop offset="0.62" stop-color="#CD24C2"/>
<stop offset="0.76" stop-color="#BD00CC"/>
<stop offset="1" stop-color="#8B00CC"/>
</linearGradient>
<linearGradient id="paint1_linear_2521_4147" x1="94.916" y1="138.521" x2="94.916" y2="0.271193" gradientUnits="userSpaceOnUse">
<stop stop-color="#E56CCB"/>
<stop offset="0.57" stop-color="#F492DD"/>
<stop offset="1" stop-color="#FFABE9"/>
</linearGradient>
<linearGradient id="paint2_linear_2521_4147" x1="110.395" y1="35.232" x2="122.576" y2="35.232" gradientUnits="userSpaceOnUse">
<stop stop-color="#E56CCB"/>
<stop offset="0.34" stop-color="#E268C8"/>
<stop offset="0.64" stop-color="#DB5DC1"/>
<stop offset="0.93" stop-color="#CF4BB5"/>
<stop offset="1" stop-color="#CC46B2"/>
</linearGradient>
<linearGradient id="paint3_linear_2521_4147" x1="93.2769" y1="108.08" x2="139.255" y2="108.08" gradientUnits="userSpaceOnUse">
<stop stop-color="#E56CCB"/>
<stop offset="0.34" stop-color="#E268C8"/>
<stop offset="0.64" stop-color="#DB5DC1"/>
<stop offset="0.93" stop-color="#CF4BB5"/>
<stop offset="1" stop-color="#CC46B2"/>
</linearGradient>
<linearGradient id="paint4_linear_2521_4147" x1="31.2319" y1="129.165" x2="31.2319" y2="39.4806" gradientUnits="userSpaceOnUse">
<stop stop-color="#CC4DB0"/>
<stop offset="0.26" stop-color="#DA6FC0"/>
<stop offset="0.76" stop-color="#F4AEDD"/>
<stop offset="1" stop-color="#FFC7E9"/>
</linearGradient>
<linearGradient id="paint5_linear_2521_4147" x1="52.7218" y1="137.764" x2="52.7218" y2="1.27686" gradientUnits="userSpaceOnUse">
<stop stop-color="#CC4DB0"/>
<stop offset="0.26" stop-color="#DA6FC0"/>
<stop offset="0.76" stop-color="#F4AEDD"/>
<stop offset="1" stop-color="#FFC7E9"/>
</linearGradient>
<linearGradient id="paint6_linear_2521_4147" x1="19.1971" y1="71.6957" x2="139.978" y2="71.6957" gradientUnits="userSpaceOnUse">
<stop stop-color="#FFF7F5"/>
<stop offset="0.16" stop-color="#F8EEF2"/>
<stop offset="0.41" stop-color="#E7D8ED"/>
<stop offset="0.73" stop-color="#CBB3E4"/>
<stop offset="1" stop-color="#AE8EDB"/>
</linearGradient>
</defs>
</svg>
