<svg xmlns="http://www.w3.org/2000/svg" fill="none" viewBox="0 0 150 150"><g fill-rule="evenodd" clip-path="url(#a)" clip-rule="evenodd"><path fill="url(#b)" d="M150 75.02c0 21.688-9.196 41.216-23.919 54.889a74.8 74.8 0 0 1-24.47 15.232C93.332 148.284 84.373 150 74.993 150c-3.327 0-6.628-.223-9.837-.642-14.475-1.899-27.653-7.923-38.316-16.869-7.754-6.496-14.186-14.524-18.797-23.64a75 75 0 0 1-6.445-18.296v-.066A76.2 76.2 0 0 1 0 75.007c0-14.8 4.297-28.604 11.698-40.235a75 75 0 0 1 11.016-13.529C36.233 8.107 54.664.013 75.007.013c1.637 0 3.248.052 4.86.157a74.4 74.4 0 0 1 24.141 5.671 69 69 0 0 1 3.878 1.755 74.8 74.8 0 0 1 19.623 13.87C141.394 35.06 150 54.026 150 75.006z"/><path fill="url(#c)" d="M35.38 124.736c-6.287 0-17.867-9.155-23.356-20.968C5.147 89.034 5.094 73.54 8.41 70.685c.956-.839 2.24-1.258 3.812-1.258 1.022 0 2.161.184 3.406.537 7.977 2.305 18.967 13.307 23.722 24.308 4.664 10.779 3.275 19.345 1.965 24.583-1.192 4.82-3.877 5.855-5.92 5.868z"/><path fill="url(#d)" d="M40.056 118.554c-.746 3.012-2.226 4.859-4.676 4.872-5.423 0-16.767-8.605-22.177-20.209C6.3 88.431 6.679 73.88 9.26 71.667c1.297-1.127 3.445-1.192 6.013-.459 8.056 2.332 20.186 12.704 22.819 23.379 2.24 9.076 3.34 18.453 1.964 23.967"/><path fill="url(#e)" d="M14.186 64.503c-.838.026-1.546-.275-2.07-.878-2.043-2.41.944-10.7 2.267-13.7 2.122-4.793 4.218-7.255 6.222-7.334.747-.026 1.48.25 2.122.76h.026l.393.38c2.293 2.292 3.354 7.491 1.284 11.578-1.506 2.96-6.21 8.185-9.392 9.037-.289.078-.59.13-.865.144z"/><path fill="url(#f)" d="M23.604 54.824c-1.467 2.895-6.17 8.068-9.064 8.854-.734.21-1.35.104-1.769-.38-2.135-2.528 4.035-19.842 8.017-19.986.603-.013 1.192.275 1.703.812 1.912 1.899 3.091 6.771 1.1 10.687z"/><path fill="url(#g)" d="M120.251 122.797c-2.529 0-4.389-.995-5.253-2.789-1.664-3.497-.812-16.241 4.257-27.504 7.506-16.738 17.828-21.152 22.23-21.152.314 0 .602.027.864.053.17.026.315.052.459.105 1.139.275 2.135 1.204 2.868 2.724 2.961 6.168 1.258 21.374-3.576 31.917-4.519 9.81-15.129 16.646-21.836 16.646z"/><path fill="url(#h)" d="M140.895 105.614c-5.947 12.914-22.02 19.515-24.731 13.844-1.376-2.895-.825-15.088 4.27-26.404 7.637-17.013 18.09-20.863 21.719-20.34.079.014.157.027.236.053 5.135 1.27 4.362 20.143-1.481 32.86z"/><path fill="url(#i)" d="M139.834 70.16a3 3 0 0 1-1.545-.405c-3.105-1.86-5.162-14.053-3.026-17.865.589-1.06 1.375-1.401 1.925-1.506a4.5 4.5 0 0 1 .747-.065c3.497 0 7.021 4.112 8.2 9.574a9.07 9.07 0 0 1-2.646 8.591c-1.14 1.074-2.476 1.69-3.655 1.69z"/><path fill="url(#j)" d="M142.611 67.515c-1.27 1.192-2.751 1.663-3.654 1.113-2.489-1.493-4.402-12.835-2.568-16.122.262-.472.603-.786 1.022-.864 2.554-.511 6.235 2.894 7.44 8.5a7.74 7.74 0 0 1-2.253 7.36z"/><path fill="url(#k)" d="M79.696 149.057c-.459 0-.93 0-1.428-.026-7.69-.223-13.57-3.497-14.619-6.405-.393-1.087-.13-2.161.694-2.894 2.424-2.135 12.418-2.24 14.397-2.24 6.47 0 14.343.629 15.038 3.654.183.773.13 1.965-1.062 3.262-1.781 1.964-4.23 4.649-13.02 4.649"/><path fill="url(#l)" d="M91.76 143.517c-1.82 2.004-4.113 4.492-13.453 4.217-9.077-.275-15.287-5.095-13.099-7.02 2.947-2.606 26.5-2.75 27.312.734.157.681-.105 1.375-.76 2.082z"/><path fill="url(#m)" d="M116.02 76.107c-5.017 0-8.868-2.384-10.859-6.706-4.755-10.373-4.755-30.686-1.297-38.859.878-2.069 1.912-3.313 3.183-3.837a10.1 10.1 0 0 1 3.904-.786c4.427 0 9.025 2.96 13.295 8.579 6.982 9.194 11.855 24.111 10.008 30.699-.589 2.122-2.423 4.388-5.174 6.365-3.93 2.842-8.816 4.545-13.06 4.545"/><path fill="url(#n)" d="M133.01 64.843c-.524 1.886-2.28 3.93-4.69 5.658-6.563 4.754-17.88 7.256-21.981-1.65-4.637-10.098-4.61-29.953-1.27-37.798.694-1.624 1.506-2.75 2.476-3.13 14.147-5.855 28.202 27.071 25.465 36.933z"/><path fill="#ffff45" d="M40.058 118.554c-7.323 2.619-18.64-6.548-24.548-21.479-5.2-13.11-1.258-23.535-.236-25.867C23.33 73.54 35.46 83.912 38.093 94.587c2.24 9.076 3.34 18.453 1.965 23.967m51.703 24.963c-15.535 4.807-26.552-2.816-26.552-2.816 2.947-2.606 26.5-2.75 27.312.734.157.681-.105 1.375-.76 2.082m46.673-39.068c-10.584 17.288-22.255 14.996-22.255 14.996-1.376-2.895-.826-15.088 4.27-26.404 7.637-17.013 18.09-20.863 21.719-20.34.078.014.157.027.235.053 2.044 6.313 3.681 19.24-3.956 31.695zM128.32 70.501c-6.563 4.754-17.88 7.256-21.981-1.65-4.637-10.098-4.61-29.953-1.27-37.798 2.921-.393 8.331.59 14.619 9.81 8.645 12.665 11.553 22.396 8.632 29.651zm14.291-2.986c-1.27 1.192-2.751 1.663-3.654 1.113-2.489-1.493-4.402-12.835-2.568-16.122 1.965 1.126 4.873 3.484 5.659 7.714.498 2.659.616 5.186.563 7.282zM23.605 54.824c-1.467 2.894-6.17 8.068-9.065 8.854.183-1.153 2.384-14.604 7.951-19.541 1.913 1.899 3.092 6.771 1.1 10.687z"/><path fill="url(#o)" d="M113.793 92.727c-.746 1.781-1.572 3.287-2.724 4.833-.878 1.165-2.031 2.056-2.725 3.366-2.358 4.453-1.86 9.443-3.236 14.118-.746 2.554-2.685 4.584-3.432 7.151-.34 1.166-.157 2.227-.196 3.432-.053 1.401-.773 2.37-1.611 3.457-.917 1.192-2.201 2.122-3.603 2.685-1.126.458-2.358.275-3.563.275a28.4 28.4 0 0 1-7.899-1.113c-2.384-.694-4.597-1.794-6.995-2.476-1.65-.458-2.79-.314-4.44.027-1.402.288-2.987.131-4.428.104-2.528-.052-4.899 1.376-7.139 2.489-1.65.825-2.738 1.755-3.366 3.549-.747 2.043-.72 3.942-3.17 4.754-1.428.472-3.17-.026-4.585-.314-1.284-.275-2.686-.118-3.995-.105-2.568 0-4.952-.759-7.218-1.951-2.66-1.402-4.991-3.549-7.126-5.593-1.153-1.1-2.646-1.728-3.838-2.815-1.65-1.454-3.275-2.777-4.82-4.349-2.346-2.383-4.9-4.806-7.52-6.889-1.86-1.467-3.458-3.287-5.03-5.003-1.31-1.427-2.096-3.523-3.065-5.173-1.913-3.261-3.472-7.19-4.415-10.858-1.087-4.256-2.331-8.88-2.279-13.306.052-3.733-.485-7.348-.485-11.093-.327 7.111.04 13.018.72 18.571A76.2 76.2 0 0 1 .014 75.02c0-14.8 4.296-28.604 11.697-40.234a75 75 0 0 1 11.017-13.53C36.245 8.12 54.677.026 75.019.026c1.638 0 3.249.053 4.86.157a74.4 74.4 0 0 1 24.142 5.671c1.926 2.122 3.851 4.388 5.24 6.772.576.982 1.022 2.069 1.598 3.051.511.878 1.048 1.336.904 2.423-.092.642-.537 1.44-.799 2.043-.839 2.004-3.157 3.471-4.939 4.584-2.489 1.559-5.384 2.2-8.03 3.563-1.703.877-2.279 1.663-3.432 3.09-.59.734-1.362 1.297-1.873 2.083-1.44 2.226-2.214 5.37-2.109 7.99.184 5.028 4.087 8.682 4.991 13.463.812 4.125.223 8.5 1.533 12.547 1.454 4.531 5.436 8.25 9.169 10.87 1.546 1.087 3.065 2.004 4.441 3.314 1.27 1.218 3.065 1.925 3.982 3.444 1.506 2.528.092 5.226-.904 7.623z" opacity=".3" style="mix-blend-mode:soft-light"/><path fill="url(#p)" d="M107.886 7.61a7 7 0 0 0-.747.104c-.851.157-1.506.079-2.345-.157-.602-.17-1.021-.42-1.663-.524-.917-.144-1.756-.537-2.673-.655-.969-.13-1.794-.51-2.711-.838-.72-.262-1.087-.17-1.782 0-.694.183-1.165-.105-1.781-.367-.694-.3-1.376-.353-2.11-.497-1.898-.393-3.785-.996-5.671-1.48-1.166-.302-2.253-.302-3.445-.315-.943-.013-1.782.262-2.725.262-.629 0-1.153-.104-1.781-.196-.642-.118-1.284 0-1.926-.079-.943-.144-1.454-.288-2.423.013-.72.236-1.27.21-1.991.25-.8.038-1.69.248-2.476.431-1.402.328-2.934.59-4.388.564-.891 0-2.188-.25-3.026.052-.55.196-.826.786-1.192 1.166-.734.76-1.625 1.427-2.24 2.278-.616.852-1.297 1.716-1.245 2.79.053.93.485 2.004.891 2.855.42.904.563 1.716-.367 2.318-1.153.773-2.502 1.467-3.825 1.847-.89.262-1.676.42-2.423-.223-.275-.235-.446-.694-.786-.877-.354-.183-.72 0-1.087.118-.944.275-1.847.59-2.804.746-.59.092-1.087.406-1.663.511-.695.131-1.18-.38-1.9-.21-.995.236-2.004.656-3.039.708-.746.04-1.676-.288-2.305-.668-.367-.21-.459-.42-.878-.301-.34.078-.851.497-1.022.76-.248.353-.34.811-.589 1.165-.262.406-.51.799-.747 1.218-.432.838-.943 1.61-1.48 2.357-.393.524-.668 1.218-1.087 1.703-.223.262-.707.445-.983.642-.786.55-1.598 1.034-2.358 1.624-1.453 1.14-2.842 2.41-4.322 3.51-1.127.851-2.725 1.336-4.009 1.873-.812.327-1.637.563-2.45.903-.261.105-.746.223-.969.42-.288.248-.445.707-.707 1.034-.707.864-1.44 1.716-1.978 2.711-.327.577-.524 1.153-.733 1.781-.289.852-.747 1.624-1.022 2.476-.59 1.768-.708 3.615-1.35 5.37-.38 1.021-.93 1.964-1.388 2.894-.812 1.585-.93 3.47-1.153 5.226-.13 1.021-.078 2.213.105 3.208.197 1.074.144 2.2.131 3.3 0 1.166-.76 2.319-1.493 3.197-.681.825-1.703 1.126-2.463 1.86-.642.628-1.402 1.335-1.677 2.226-.118.393 0 .838-.078 1.244-.17.93-.406 1.794-.537 2.737-.144 1.153-.17 2.253-.17 3.419 0 .589-.04 1.178 0 1.768.026.563.235 1.074.275 1.637.026.393-.053.786 0 1.165.078.446.248.904.353 1.323.262 1.035.459 2.057.655 3.091.184.97.563 1.912.865 2.855.419 1.27.694 2.593.943 3.916.196.983.183 2.017.327 3.013.118.812.302 1.624.34 2.436.04 1.218-.261 2.449-.274 3.68 0 2.082.825 4.165 1.297 6.169.144.563.288 1.126.445 1.689A74.8 74.8 0 0 1 0 74.994c0-14.8 4.297-28.604 11.698-40.234a75 75 0 0 1 11.016-13.53C36.233 8.094 54.664 0 75.007 0c1.637 0 3.248.052 4.86.157C89.873.8 99.344 3.392 107.885 7.583z"/><path fill="url(#q)" d="M101.283 132.057c1.467-.877 2.908-1.82 4.401-2.646 1.611-.877 3.209-1.493 4.912-2.161 1.258-.484 1.389-.523 2.411.276.93.746 2.069.903 3.235.903 1.611.013 3.353.144 3.498 2.174.209 2.803-4.022 5.239-6.026 6.365-1.611.917-3.367 1.533-5.056 2.306-1.415.654-3.026 1.401-4.598 1.624-1.35.183-2.253-.446-3.131-1.454-1.048-1.205-.983-2.358-.983-3.864 0-1.742-.091-2.934 1.31-3.536z" opacity=".3" style="mix-blend-mode:soft-light"/><path fill="url(#r)" d="M123.644 27.216c1.126 2.226 1.926 5.225 3.628 7.085.904.982 1.599 1.153 2.856 1.14.616 0 1.755.235 2.332.026.812-.288.76-1.192.733-1.991-.104-2.96-2.122-5.697-3.969-7.832-1.205-1.388-3.222-3.065-5.187-2.685a6.92 6.92 0 0 0-.393 4.27z" opacity=".3" style="mix-blend-mode:soft-light"/><path fill="url(#s)" d="M30.508 133.59c-7.754-6.497-14.186-14.525-18.797-23.641a75 75 0 0 1-6.445-18.296v-.066a76.2 76.2 0 0 1-1.598-15.48c0-14.8 4.296-28.604 11.698-40.234a75 75 0 0 1 11.016-13.53C39.9 9.208 58.332 1.113 78.674 1.113c1.638 0 3.249.053 4.86.157a74.4 74.4 0 0 1 14.79 2.463C92.467 1.807 86.271.603 79.865.183a75 75 0 0 0-4.86-.157c-20.33 0-38.773 8.094-52.292 21.23a75 75 0 0 0-11.016 13.53C4.297 46.416 0 60.22 0 75.02c0 5.304.563 10.49 1.598 15.48v.066a73.7 73.7 0 0 0 6.445 18.296 75.4 75.4 0 0 0 18.798 23.64 74.9 74.9 0 0 0 28.556 14.918 74.7 74.7 0 0 1-24.889-13.83" style="mix-blend-mode:screen"/><path fill="#ffff45" d="M82.342 145.246c-.21.301-.55.55-.262.864.144.157.445.288.654.341.354.091.97.039 1.245-.184.275-.222.235-.51.065-.772-.34-.524-.772-.603-1.336-.367zM33.312 19.384c-.786.261-1.1.327-1.886.995-.63.524-1.31.995-1.926 1.572-.812.772-1.061 1.571-1.297 2.41-.236.811-.458 1.728-.13 2.174.17.235.693.222 1.086.117.577-.157 1.232-.576 1.847-.969.786-.497 1.494-1.257 2.083-2.122.406-.589.655-1.27.93-1.86.197-.418.275-.785.406-1.178.105-.34.118-.563.053-.799-.092-.34-.302-.367-1.153-.327zm8.867-1.362c-.315.261-1.022.76-.472 1.152.144.105.275.052.445.092.118.039.157.13.302.078.445-.17.275-1.454-.236-1.192zm2.333 4.648c.21-.117.419-.17.628-.183.053.276.302.826-.091 1.035-.328.184-.236-.406-.393-.55zm4.531.132c.419.17.838.34 1.257.524.13-.118.34-.092.498-.197.21-.13.393-.419.471-.655.118-.353-.065-.654-.222-.93-.105-.183-.21-.458-.38-.576-.197-.144-.577-.091-.786 0-.249.118-.432.38-.603.616-.157.223-.34.576-.353.851 0 .288.222.603.445.76l-.314-.393zm3.826 86.741c.419.171.838.341 1.257.524.131-.118.34-.091.498-.196.21-.131.393-.419.471-.655.118-.354-.065-.655-.222-.93-.105-.183-.21-.458-.38-.576-.197-.144-.576-.092-.786 0-.249.118-.432.38-.602.615-.158.223-.34.577-.354.852 0 .288.223.602.445.759l-.314-.393zM36.94 26.862a1.7 1.7 0 0 0-.445.472c.17.222.262.419.55.51.118.04.249.04.34-.052.119-.118.053-.249.092-.367.079-.288.158-.367 0-.628-.104-.158-.17-.223-.34-.223-.118 0-.38.04-.445.17l.248.131zm.97 6.718c-.027.08-.354.904.065.669.21-.118.13-.446 0-.537 0-.027.013-.053.026-.079l-.079-.04zm-6.262 11.448c-.288.366-.314.523-.445.903.118.118.354.17.51.17.25 0 .263-.091.263-.327 0-.196.092-.34.04-.524-.053-.183-.237-.38-.46-.262l.08.04zm9.588-17.354a.96.96 0 0 1 .302.55c-.223.052-.25-.17-.289-.34-.052-.276.079-.197.21-.42a.16.16 0 0 1 .079.014zM39.01 18.82a1.7 1.7 0 0 0-.445.472c.104.131.052.367.3.354.17 0 .315-.197.407-.34.105-.171.105-.302.118-.486 0-.091 0-.484-.17-.222l-.223.236zm28.725-4.597c.053-.21.092-.484.197-.668.026-.052.105-.104.144-.157.13-.183.092-.21.288-.21.236 0 .38.014.576.17.629.498-.969.891-1.034.407l-.17.471zm5.385 1.991c-.079.367-.314.864.026 1.1.288.21.904-.118 1.127-.327.406-.38.903-1.087.51-1.598-.222-.301-.877-.537-1.244-.498-.76.079-.982.982-1.087 1.716l.668-.38zm2.344-7.387c-.079-.628-.197-1.244.366-1.571.302-.184.852-.236 1.14-.026.21.157.393.445.51.654.197.315.145.315.04.603-.223.668-.38 1.1-1.048 1.1-.877 0-1.008-.681-1.021-1.52v.76zm8.07 10.989c.472-.131.89-.38 1.231-.747-.34-.21-1.1-.655-1.23 0v.76z"/><path fill="#ffc445" d="M55.802 119.549c.471-.131.89-.379 1.23-.746-.34-.21-1.1-.655-1.23 0v.76zm51.467 10.793c.471-.131.89-.38 1.231-.747-.341-.21-1.1-.655-1.231 0v.76z"/><path fill="#ffff45" d="M89.756 29.481c.472-.589 1.166-1.65 2.03-1.06.498.34.642 1.244.17 1.597-.445.328-.85.42-1.348.563-.38.105-.956-.144-.839-.72v-.38z"/><path fill="#ffc445" d="M56.431 43.377c.472-.59 1.166-1.65 2.03-1.06.498.34.642 1.244.17 1.597-.445.328-.85.42-1.349.563-.38.105-.956-.144-.838-.72v-.38zm55.305-24.622c.471-.59 1.166-1.65 2.03-1.06.498.34.642 1.243.17 1.597-.445.327-.851.419-1.349.563-.38.105-.956-.144-.838-.72v-.38zM80.743 69.86c.471-.59 1.165-1.65 2.03-1.061.498.34.642 1.244.17 1.597-.445.328-.851.42-1.349.564-.38.105-.956-.144-.838-.72v-.38z"/><path fill="#ffff45" d="M53.628 22.5c-.603.393-1.637.865-1.742 1.703-.066.511.17.8.628 1.022.393.183.97.196 1.362 0 .564-.275 1.206-.747 1.454-1.336.184-.432.157-.72-.052-1.153-.105-.222-.328-.497-.563-.59-.773-.274-1.245.499-1.82.84l.733-.498zm1.979-2.226c.327.118.615.301.838.55-.328.118-.681.38-1.022.249-.445-.157-.523-.576-.419-.995.053-.236.472-.63.708-.537.117.052.143.21.183.314.078.223.091.17-.026.406h-.25zM22.203 34.21c-.655.576-1.27 1.257-1.611 2.082-.17.419.13.432.51.366a31 31 0 0 0 2.2-.537c.433-.104 1.049-.34 1.35-.707.222-.275.327-.76.275-1.113-.066-.498-.42-.681-.865-.812-1.021-.288-2.33.393-2.71 1.336l.864-.616zm.485 3.444a3.24 3.24 0 0 1 1.454.38c-.131.157-.092.367-.157.55-.105.262-.354.537-.603.694-.406.249-1.06.34-1.506.183-1.35-.51.72-2.108 1.179-1.545l-.367-.249zm42.9-30.189c.497-.236.956-.55 1.506-.642.629-.104 1.205-.222 1.847-.222.314 0 1.035-.026.825.497-.223.564-1.44 1.1-1.925 1.336-.826.393-1.612.786-2.542.878-.471.052-1.257.078-1.52-.393-.222-.393-.117-.72.106-1.087.222-.38.471-.537.89-.707.197-.079 1.271-.367 1.323-.027l-.497.367zm-8.385.249c-.222.157-1.925 1.1-1.113 1.52.432.222 1.297.157 1.729-.027.393-.17.786-.432.55-.877-.498-.917-1.755-.393-2.397 0z"/><path fill="#ffd32f" d="M33.665 69.82c.131.694.275 1.467.877 1.925.63.485 1.35.288 1.965-.078.459-.275.89-.564 1.35-.838.261-.158.497-.197.497-.577 0-.406-.354-.943-.59-1.244-.275-.367-.838-.799-1.27-.956-.943-.354-2.737 0-2.711 1.283l-.118.498z"/><path fill="#ffba00" d="M87.398 70.567c.131.694.276 1.467.878 1.925.629.485 1.349.288 1.965-.079.458-.275.89-.563 1.349-.838.261-.157.497-.196.497-.576 0-.406-.353-.943-.59-1.244-.274-.367-.837-.8-1.27-.956-.943-.354-2.737 0-2.71 1.283l-.119.498z"/><path fill="#ffff59" d="M10.74 97.664s-.615 2.698 1.284 6.104c1.886 3.405 3.261 3.234 3.261 3.234s-1.624-6.338-4.544-9.338m122.464-36.986s-2.2 6.352-2.527 7.243c0 0 3.47-.982 2.527-7.243m11.791 1.992s-1.519 1.165-2.384 4.085c0 0 1.873.878 2.384-4.086m-24.168 58.806s7.1-4.61 11.2-4.938c0 0-4.65 5.71-11.2 4.938"/></g><defs><linearGradient id="c" x1="6.261" x2="42.585" y1="97.075" y2="97.075" gradientUnits="userSpaceOnUse"><stop offset=".01" stop-color="#ffa90b"/><stop offset=".37" stop-color="#ffa60d"/><stop offset=".64" stop-color="#ff9c16"/><stop offset=".87" stop-color="#ff8c25"/><stop offset="1" stop-color="#ff8031"/></linearGradient><linearGradient id="d" x1="7.544" x2="40.659" y1="97.075" y2="97.075" gradientUnits="userSpaceOnUse"><stop offset=".01" stop-color="#ffe00b"/><stop offset=".31" stop-color="#ffdd0c"/><stop offset=".52" stop-color="#ffd311"/><stop offset=".71" stop-color="#ffc31a"/><stop offset=".89" stop-color="#ffad26"/><stop offset="1" stop-color="#ff9b31"/></linearGradient><linearGradient id="e" x1="11.197" x2="25.665" y1="53.723" y2="53.263" gradientUnits="userSpaceOnUse"><stop offset=".01" stop-color="#ffa90b"/><stop offset=".37" stop-color="#ffa60d"/><stop offset=".64" stop-color="#ff9c16"/><stop offset=".87" stop-color="#ff8c25"/><stop offset="1" stop-color="#ff8031"/></linearGradient><linearGradient id="f" x1="12.087" x2="24.735" y1="53.695" y2="53.293" gradientUnits="userSpaceOnUse"><stop offset=".01" stop-color="#ffe00b"/><stop offset=".31" stop-color="#ffdd0c"/><stop offset=".52" stop-color="#ffd311"/><stop offset=".71" stop-color="#ffc31a"/><stop offset=".89" stop-color="#ffad26"/><stop offset="1" stop-color="#ff9b31"/></linearGradient><linearGradient id="g" x1="130.678" x2="130.678" y1="122.797" y2="71.352" gradientUnits="userSpaceOnUse"><stop offset=".01" stop-color="#ff8e0b"/><stop offset=".35" stop-color="#fd8b0d"/><stop offset=".59" stop-color="#f88114"/><stop offset=".81" stop-color="#f07120"/><stop offset="1" stop-color="#e65d31"/></linearGradient><linearGradient id="h" x1="115.522" x2="145.808" y1="97.075" y2="97.075" gradientUnits="userSpaceOnUse"><stop offset=".01" stop-color="#ffe00b"/><stop offset=".31" stop-color="#ffdd0c"/><stop offset=".52" stop-color="#ffd311"/><stop offset=".71" stop-color="#ffc31a"/><stop offset=".89" stop-color="#ffad26"/><stop offset="1" stop-color="#ff9b31"/></linearGradient><linearGradient id="i" x1="140.358" x2="140.358" y1="70.161" y2="50.306" gradientUnits="userSpaceOnUse"><stop offset=".01" stop-color="#ffa90b"/><stop offset=".37" stop-color="#ffa60d"/><stop offset=".64" stop-color="#ff9c16"/><stop offset=".87" stop-color="#ff8c25"/><stop offset="1" stop-color="#ff8031"/></linearGradient><linearGradient id="j" x1="140.345" x2="140.345" y1="68.851" y2="51.602" gradientUnits="userSpaceOnUse"><stop offset=".01" stop-color="#ffe00b"/><stop offset=".31" stop-color="#ffdd0c"/><stop offset=".52" stop-color="#ffd311"/><stop offset=".71" stop-color="#ffc31a"/><stop offset=".89" stop-color="#ffad26"/><stop offset="1" stop-color="#ff9b31"/></linearGradient><linearGradient id="k" x1="78.661" x2="78.661" y1="149.057" y2="137.492" gradientUnits="userSpaceOnUse"><stop offset=".01" stop-color="#ffa90b"/><stop offset=".37" stop-color="#ffa60d"/><stop offset=".64" stop-color="#ff9c16"/><stop offset=".87" stop-color="#ff8c25"/><stop offset="1" stop-color="#ff8031"/></linearGradient><linearGradient id="l" x1="78.661" x2="78.661" y1="147.747" y2="138.789" gradientUnits="userSpaceOnUse"><stop offset=".01" stop-color="#ffe00b"/><stop offset=".31" stop-color="#ffdd0c"/><stop offset=".52" stop-color="#ffd311"/><stop offset=".71" stop-color="#ffc31a"/><stop offset=".89" stop-color="#ffad26"/><stop offset="1" stop-color="#ff9b31"/></linearGradient><linearGradient id="m" x1="114.933" x2="121.415" y1="76.094" y2="27.215" gradientUnits="userSpaceOnUse"><stop offset=".01" stop-color="#ffa90b"/><stop offset=".37" stop-color="#ffa60d"/><stop offset=".64" stop-color="#ff9c16"/><stop offset=".87" stop-color="#ff8c25"/><stop offset="1" stop-color="#ff8031"/></linearGradient><linearGradient id="n" x1="115.103" x2="121.244" y1="74.797" y2="28.512" gradientUnits="userSpaceOnUse"><stop offset=".01" stop-color="#ffe00b"/><stop offset=".31" stop-color="#ffdd0c"/><stop offset=".52" stop-color="#ffd311"/><stop offset=".71" stop-color="#ffc31a"/><stop offset=".89" stop-color="#ffad26"/><stop offset="1" stop-color="#ff9b31"/></linearGradient><linearGradient id="o" x1="-.014" x2="115.339" y1="69.794" y2="69.794" gradientUnits="userSpaceOnUse"><stop offset=".01" stop-color="#ffe00b"/><stop offset=".31" stop-color="#ffdd0c"/><stop offset=".52" stop-color="#ffd311"/><stop offset=".71" stop-color="#ffc31a"/><stop offset=".89" stop-color="#ffad26"/><stop offset="1" stop-color="#ff9b31"/></linearGradient><linearGradient id="p" x1="-.013" x2="107.886" y1="54.444" y2="54.444" gradientUnits="userSpaceOnUse"><stop offset=".01" stop-color="#ffe00b"/><stop offset=".31" stop-color="#ffdd0c"/><stop offset=".52" stop-color="#ffd311"/><stop offset=".71" stop-color="#ffc31a"/><stop offset=".89" stop-color="#ffad26"/><stop offset="1" stop-color="#ff9b31"/></linearGradient><linearGradient id="q" x1="99.973" x2="119.753" y1="133.917" y2="133.917" gradientUnits="userSpaceOnUse"><stop offset=".01" stop-color="#ffe00b"/><stop offset=".31" stop-color="#ffdd0c"/><stop offset=".52" stop-color="#ffd311"/><stop offset=".71" stop-color="#ffc31a"/><stop offset=".89" stop-color="#ffad26"/><stop offset="1" stop-color="#ff9b31"/></linearGradient><linearGradient id="r" x1="123.461" x2="133.206" y1="29.219" y2="29.219" gradientUnits="userSpaceOnUse"><stop offset=".01" stop-color="#ffe00b"/><stop offset=".31" stop-color="#ffdd0c"/><stop offset=".52" stop-color="#ffd311"/><stop offset=".71" stop-color="#ffc31a"/><stop offset=".89" stop-color="#ffad26"/><stop offset="1" stop-color="#ff9b31"/></linearGradient><radialGradient id="b" cx="0" cy="0" r="1" gradientTransform="matrix(120.487 0 0 120.466 28.53 39.946)" gradientUnits="userSpaceOnUse"><stop stop-color="#ffb80b"/><stop offset=".26" stop-color="#feb50c"/><stop offset=".38" stop-color="#fdae10"/><stop offset=".48" stop-color="#fca017"/><stop offset=".57" stop-color="#f98e21"/><stop offset=".64" stop-color="#f7762e"/><stop offset=".66" stop-color="#f66d33"/><stop offset=".72" stop-color="#ef6735"/><stop offset=".81" stop-color="#db583d"/><stop offset=".91" stop-color="#bc4049"/><stop offset=".98" stop-color="#a02a54"/></radialGradient><radialGradient id="s" cx="0" cy="0" r="1" gradientTransform="matrix(98.7294 0 0 98.7121 20.173 23.968)" gradientUnits="userSpaceOnUse"><stop stop-color="#ffffd9"/><stop offset="1"/></radialGradient><clipPath id="a"><path fill="#fff" d="M0 0h150v150H0z"/></clipPath></defs></svg>