<svg width="140" height="140" viewBox="0 0 140 140" fill="none" xmlns="http://www.w3.org/2000/svg">
<path fill-rule="evenodd" clip-rule="evenodd" d="M140 70.0183C140 90.261 131.417 108.487 117.675 121.249C111.11 127.373 103.371 132.226 94.8371 135.465C87.1103 138.399 78.7477 140 69.9939 140C66.8885 140 63.8075 139.792 60.8122 139.401C47.3024 137.629 35.0031 132.006 25.0511 123.657C17.8133 117.594 11.8103 110.1 7.50677 101.593C4.80482 96.2507 2.76308 90.5177 1.49157 84.5158C1.49157 84.5036 1.49157 84.4791 1.49157 84.4547C0.52572 79.7974 0 74.9568 0 70.0061C0 56.1931 4.01014 43.3092 10.9178 32.4544C13.8521 27.846 17.2998 23.6165 21.1999 19.8271C33.8171 7.56655 51.0191 0.012207 70.0061 0.012207C71.5344 0.012207 73.0382 0.0610966 74.542 0.158888C82.5011 0.67229 90.0812 2.50587 97.0745 5.45183C98.2971 5.96523 99.5075 6.50307 100.693 7.08982C107.491 10.4025 113.665 14.7909 119.008 20.0349C131.968 32.7233 140 50.4234 140 70.0061V70.0183Z" fill="url(#paint0_radial_2521_4160)"/>
<path fill-rule="evenodd" clip-rule="evenodd" d="M33.0216 116.42C27.1532 116.42 16.3454 107.876 11.2227 96.8497C4.80403 83.0978 4.75512 68.637 7.8483 65.9722C8.7408 65.1899 9.93895 64.7987 11.4061 64.7987C12.3597 64.7987 13.4234 64.9698 14.5848 65.2999C22.0305 67.4513 32.2881 77.7193 36.7261 87.9874C41.0786 98.0476 39.7826 106.042 38.56 110.932C37.4475 115.43 34.9411 116.396 33.0339 116.408L33.0216 116.42Z" fill="url(#paint1_linear_2521_4160)"/>
<path fill-rule="evenodd" clip-rule="evenodd" d="M37.3861 110.65C36.6892 113.462 35.3076 115.185 33.0214 115.198C27.9598 115.198 17.3721 107.167 12.3227 96.3362C5.87964 82.5355 6.23421 68.9548 8.64273 66.8889C9.8531 65.8377 11.8582 65.7766 14.2545 66.4611C21.7735 68.637 33.0947 78.3183 35.5522 88.2807C37.6428 96.7519 38.6698 105.504 37.3861 110.65Z" fill="url(#paint2_linear_2521_4160)"/>
<path fill-rule="evenodd" clip-rule="evenodd" d="M13.2402 60.2025C12.4578 60.2269 11.7976 59.9458 11.3085 59.3835C9.40127 57.1343 12.1888 49.3966 13.4236 46.5973C15.4042 42.1234 17.3604 39.8253 19.231 39.752C19.9279 39.7275 20.6125 39.9842 21.2116 40.461H21.236L21.6028 40.8154C23.7424 42.9546 24.7327 47.8075 22.801 51.6214C21.395 54.3839 17.0058 59.2613 14.0349 60.0558C13.766 60.1292 13.4848 60.1781 13.228 60.1903L13.2402 60.2025Z" fill="url(#paint3_linear_2521_4160)"/>
<path fill-rule="evenodd" clip-rule="evenodd" d="M22.0307 51.1691C20.6614 53.8706 16.2723 58.699 13.5704 59.4325C12.8857 59.6281 12.3111 59.5303 11.9198 59.078C9.92699 56.7188 15.6854 40.5588 19.4021 40.4243C19.9645 40.4121 20.5147 40.681 20.9915 41.1822C22.7765 42.9547 23.8769 47.502 22.0185 51.1569L22.0307 51.1691Z" fill="url(#paint4_linear_2521_4160)"/>
<path fill-rule="evenodd" clip-rule="evenodd" d="M112.234 114.611C109.874 114.611 108.138 113.682 107.331 112.007C105.778 108.743 106.573 96.8497 111.305 86.3371C118.31 70.715 127.944 66.5956 132.052 66.5956C132.345 66.5956 132.614 66.62 132.859 66.6445C133.018 66.6689 133.152 66.6934 133.287 66.7423C134.351 66.999 135.28 67.8669 135.964 69.2848C138.727 75.0423 137.138 89.2342 132.627 99.0744C128.409 108.23 118.506 114.611 112.246 114.611H112.234Z" fill="url(#paint5_linear_2521_4160)"/>
<path fill-rule="evenodd" clip-rule="evenodd" d="M131.502 98.5732C125.952 110.626 110.95 116.787 108.42 111.494C107.136 108.792 107.649 97.412 112.405 86.8506C119.533 70.9717 129.289 67.3779 132.676 67.8669C132.749 67.8791 132.823 67.8913 132.896 67.9158C137.689 69.1015 136.967 86.7161 131.514 98.5855L131.502 98.5732Z" fill="url(#paint6_linear_2521_4160)"/>
<path fill-rule="evenodd" clip-rule="evenodd" d="M130.512 65.4833C129.974 65.4833 129.485 65.3488 129.069 65.1043C126.172 63.3686 124.252 51.9881 126.245 48.431C126.795 47.4409 127.529 47.123 128.042 47.0252C128.263 46.9886 128.495 46.9641 128.739 46.9641C132.004 46.9641 135.292 50.8024 136.393 55.8998C137.163 59.4325 135.623 62.354 133.923 63.9186C132.859 64.921 131.612 65.4955 130.512 65.4955V65.4833Z" fill="url(#paint7_linear_2521_4160)"/>
<path fill-rule="evenodd" clip-rule="evenodd" d="M133.104 63.014C131.918 64.1264 130.536 64.5665 129.693 64.0531C127.37 62.6595 125.585 52.0737 127.297 49.0055C127.541 48.5654 127.859 48.272 128.25 48.1987C130.634 47.722 134.07 50.9002 135.195 56.132C135.843 59.0779 134.62 61.5961 133.092 63.0018L133.104 63.014Z" fill="url(#paint8_linear_2521_4160)"/>
<path fill-rule="evenodd" clip-rule="evenodd" d="M74.3826 139.12C73.9547 139.12 73.5145 139.12 73.0499 139.095C65.8733 138.888 60.3838 135.832 59.4057 133.118C59.0389 132.103 59.2835 131.101 60.0537 130.416C62.3155 128.424 71.644 128.326 73.4901 128.326C79.5297 128.326 86.8776 128.913 87.5255 131.737C87.6967 132.458 87.6478 133.57 86.5352 134.78C84.8725 136.614 82.5862 139.12 74.3826 139.12Z" fill="url(#paint9_linear_2521_4160)"/>
<path fill-rule="evenodd" clip-rule="evenodd" d="M85.6435 133.949C83.9441 135.819 81.8045 138.142 73.0874 137.885C64.6147 137.629 58.8196 133.13 60.8614 131.333C63.6122 128.901 85.5946 128.766 86.3526 132.018C86.4993 132.653 86.2548 133.301 85.6435 133.961V133.949Z" fill="url(#paint10_linear_2521_4160)"/>
<path fill-rule="evenodd" clip-rule="evenodd" d="M108.286 71.033C103.603 71.033 100.009 68.8083 98.1502 64.7744C93.7121 55.0931 93.7121 36.1339 96.9398 28.5062C97.7589 26.5748 98.7248 25.4135 99.9107 24.9246C101.084 24.4356 102.319 24.1912 103.554 24.1912C107.686 24.1912 111.978 26.9537 115.963 32.1978C122.48 40.7789 127.028 54.7019 125.304 60.8505C124.754 62.8308 123.042 64.9455 120.475 66.7913C116.807 69.4439 112.247 71.033 108.286 71.033Z" fill="url(#paint11_linear_2521_4160)"/>
<path fill-rule="evenodd" clip-rule="evenodd" d="M124.142 60.5203C123.653 62.2805 122.015 64.1874 119.765 65.801C113.64 70.2383 103.077 72.573 99.2498 64.2608C94.9218 54.8362 94.9462 36.3048 98.0639 28.9827C98.7118 27.4669 99.4699 26.4157 100.375 26.0612C113.579 20.5971 126.697 51.3279 124.142 60.5325V60.5203Z" fill="url(#paint12_linear_2521_4160)"/>
<path fill-rule="evenodd" clip-rule="evenodd" d="M37.3873 110.65C30.553 113.095 19.9897 104.539 14.4758 90.6033C9.62205 78.3672 13.3021 68.637 14.2557 66.4612C21.7747 68.637 33.096 78.3183 35.5534 88.2808C37.6441 96.7519 38.6711 105.504 37.3873 110.65Z" fill="#FFFF45"/>
<path fill-rule="evenodd" clip-rule="evenodd" d="M85.6434 133.949C71.1434 138.435 60.8613 131.321 60.8613 131.321C63.6122 128.888 85.5945 128.754 86.3526 132.006C86.4993 132.641 86.2547 133.289 85.6434 133.949Z" fill="#FFFF45"/>
<path fill-rule="evenodd" clip-rule="evenodd" d="M129.205 97.4855C119.327 113.621 108.433 111.482 108.433 111.482C107.15 108.78 107.663 97.3999 112.419 86.8385C119.547 70.9597 129.303 67.3658 132.69 67.8548C132.763 67.867 132.836 67.8792 132.91 67.9037C134.817 73.7956 136.345 85.8605 129.217 97.4855H129.205Z" fill="#FFFF45"/>
<path fill-rule="evenodd" clip-rule="evenodd" d="M119.765 65.8011C113.64 70.2383 103.077 72.5731 99.2498 64.2609C94.9218 54.8363 94.9462 36.3049 98.0639 28.9828C100.79 28.6161 105.84 29.5329 111.708 38.1385C119.777 49.9589 122.491 59.0413 119.765 65.8133V65.8011Z" fill="#FFFF45"/>
<path fill-rule="evenodd" clip-rule="evenodd" d="M133.104 63.0141C131.918 64.1264 130.536 64.5665 129.693 64.0531C127.37 62.6596 125.585 52.0737 127.297 49.0055C129.13 50.0567 131.845 52.2571 132.578 56.2054C133.043 58.6868 133.153 61.046 133.104 63.0018V63.0141Z" fill="#FFFF45"/>
<path fill-rule="evenodd" clip-rule="evenodd" d="M22.0307 51.169C20.6614 53.8705 16.2723 58.6989 13.5703 59.4324C13.7415 58.3567 15.7954 45.8027 20.9915 41.1943C22.7765 42.9668 23.8768 47.5141 22.0185 51.169H22.0307Z" fill="#FFFF45"/>
<path opacity="0.3" fill-rule="evenodd" clip-rule="evenodd" d="M106.207 86.5451C105.51 88.2075 104.74 89.6133 103.664 91.0557C102.845 92.1436 101.769 92.9748 101.121 94.1972C98.9201 98.3533 99.3847 103.011 98.101 107.375C97.4041 109.758 95.5947 111.653 94.8978 114.049C94.5799 115.137 94.7511 116.127 94.7144 117.251C94.6655 118.559 93.9931 119.464 93.2106 120.479C92.3548 121.591 91.1566 122.459 89.8484 122.984C88.797 123.412 87.6478 123.241 86.523 123.241C84.0044 123.241 81.5837 122.899 79.1507 122.202C76.9255 121.554 74.8593 120.527 72.622 119.892C71.0815 119.464 70.0178 119.598 68.4774 119.916C67.1692 120.185 65.6898 120.038 64.345 120.014C61.9854 119.965 59.7725 121.298 57.6818 122.337C56.1413 123.107 55.1266 123.975 54.5397 125.649C53.8428 127.556 53.8673 129.329 51.581 130.087C50.2484 130.527 48.6223 130.062 47.3019 129.793C46.1038 129.536 44.7956 129.683 43.573 129.695C41.1767 129.695 38.9516 128.986 36.8365 127.874C34.3546 126.566 32.1784 124.561 30.1855 122.654C29.1096 121.628 27.7159 121.041 26.6033 120.026C25.0628 118.669 23.5468 117.435 22.1041 115.968C19.9157 113.743 17.5316 111.482 15.0864 109.538C13.3503 108.169 11.8587 106.47 10.3916 104.869C9.16901 103.536 8.43545 101.58 7.53072 100.04C5.74573 96.9965 4.29082 93.3293 3.41055 89.9067C2.39579 85.9339 1.23433 81.6189 1.28323 77.4872C1.33214 74.0034 0.830878 70.6296 0.830878 67.1336C0.525228 73.7711 0.867541 79.2841 1.50329 84.467C0.537439 79.8097 0.0117188 74.9691 0.0117188 70.0184C0.0117188 56.2054 4.02186 43.3215 10.9296 32.4667C13.8638 27.8583 17.3115 23.6288 21.2116 19.8394C33.8289 7.5789 51.0309 0.0245361 70.0179 0.0245361C71.5461 0.0245361 73.0499 0.0734256 74.5537 0.171217C82.5128 0.684619 90.093 2.5182 97.0862 5.46415C98.8835 7.44442 100.681 9.55915 101.977 11.7839C102.515 12.7007 102.93 13.7153 103.468 14.6321C103.945 15.4511 104.446 15.8789 104.312 16.8935C104.226 17.4925 103.811 18.2381 103.566 18.8004C102.784 20.6707 100.62 22.0397 98.9568 23.0788C96.6339 24.5334 93.9319 25.1324 91.4623 26.4037C89.8729 27.2227 89.3349 27.9561 88.2591 29.2885C87.7089 29.973 86.9875 30.4986 86.5107 31.2321C85.1659 33.3101 84.4445 36.2439 84.5423 38.6886C84.7135 43.3826 88.3569 46.7931 89.2005 51.2548C89.9585 55.1053 89.4083 59.1881 90.6309 62.9653C91.988 67.1947 95.7047 70.6663 99.1891 73.1111C100.632 74.1256 102.05 74.9813 103.334 76.2037C104.52 77.3405 106.195 78.0006 107.05 79.4186C108.456 81.7778 107.136 84.2959 106.207 86.5329V86.5451Z" fill="url(#paint13_linear_2521_4160)" style="mix-blend-mode:soft-light"/>
<path fill-rule="evenodd" clip-rule="evenodd" d="M100.693 7.10207C100.461 7.12651 100.229 7.15096 99.9965 7.19986C99.2018 7.34655 98.5905 7.27321 97.8081 7.05318C97.2457 6.89427 96.8544 6.66202 96.2553 6.56423C95.3995 6.42977 94.6171 6.06305 93.7613 5.95304C92.8565 5.8308 92.0863 5.47631 91.2305 5.17071C90.558 4.92623 90.2157 5.0118 89.5677 5.17071C88.9197 5.34184 88.4796 5.0729 87.905 4.82843C87.257 4.54728 86.6213 4.49839 85.9366 4.36393C84.1638 3.99721 82.4033 3.43491 80.6428 2.98263C79.5546 2.70148 78.5399 2.70147 77.4273 2.68925C76.547 2.67702 75.7646 2.93374 74.8843 2.93374C74.2974 2.93374 73.8084 2.83594 73.2216 2.75037C72.6225 2.64036 72.0234 2.75037 71.4243 2.67703C70.5441 2.54257 70.0673 2.4081 69.1625 2.68925C68.4901 2.90928 67.9766 2.88483 67.3042 2.9215C66.5584 2.95818 65.727 3.15376 64.9935 3.32489C63.6853 3.63049 62.2548 3.87498 60.8977 3.85053C60.0664 3.85053 58.856 3.61827 58.0735 3.89942C57.56 4.08278 57.3033 4.63285 56.961 4.98734C56.2763 5.69633 55.4449 6.31975 54.8703 7.1143C54.2957 7.90885 53.66 8.71562 53.7089 9.71797C53.7578 10.5859 54.1612 11.5882 54.5402 12.3828C54.9315 13.2262 55.0659 13.9841 54.1979 14.5464C53.122 15.2676 51.8627 15.9155 50.6279 16.27C49.7965 16.5144 49.063 16.6611 48.3661 16.0622C48.1093 15.8421 47.9504 15.4143 47.6325 15.2432C47.3024 15.072 46.9601 15.2432 46.6178 15.3532C45.7375 15.6099 44.8939 15.9033 44.0014 16.0499C43.4512 16.1355 42.9866 16.4289 42.4487 16.5267C41.8007 16.6489 41.3484 16.1722 40.6759 16.3311C39.7468 16.5511 38.8053 16.9423 37.8395 16.9912C37.1426 17.0279 36.2746 16.7223 35.6877 16.3678C35.3454 16.1722 35.2598 15.9766 34.8686 16.0866C34.5507 16.16 34.0739 16.5511 33.915 16.7956C33.6827 17.1256 33.5971 17.5535 33.3648 17.8835C33.1202 18.2625 32.888 18.6292 32.6679 19.0203C32.2644 19.8027 31.7876 20.5239 31.2863 21.2206C30.9196 21.7096 30.6628 22.3575 30.2716 22.8097C30.0637 23.0542 29.6114 23.2254 29.3546 23.4087C28.6211 23.9221 27.8631 24.3744 27.154 24.9245C25.7969 25.9879 24.5009 27.1737 23.1194 28.2005C22.0679 28.995 20.5764 29.4473 19.3782 29.9485C18.6202 30.2541 17.85 30.4741 17.092 30.7919C16.8474 30.8897 16.3951 30.9997 16.1872 31.1831C15.9183 31.4154 15.7715 31.8432 15.527 32.1488C14.8668 32.9556 14.1822 33.7501 13.6809 34.6791C13.3753 35.217 13.1919 35.7548 12.9963 36.3416C12.7273 37.1361 12.2994 37.8573 12.0426 38.6519C11.4925 40.3021 11.3824 42.0257 10.7833 43.6637C10.4288 44.6171 9.91528 45.4973 9.48737 46.3652C8.72936 47.8442 8.61934 49.6045 8.4115 51.2425C8.28924 52.1959 8.33814 53.3083 8.50931 54.2373C8.6927 55.2397 8.64378 56.2909 8.63156 57.3177C8.63156 58.4057 7.92245 59.4814 7.23779 60.3004C6.60204 61.0705 5.64841 61.3516 4.9393 62.0361C4.34022 62.6229 3.63112 63.283 3.37437 64.1142C3.26434 64.4809 3.37437 64.8965 3.30102 65.2755C3.14208 66.1434 2.92201 66.9501 2.79975 67.8303C2.66526 68.906 2.64082 69.9328 2.64082 71.0207C2.64082 71.5708 2.60414 72.1208 2.64082 72.6709C2.66527 73.1965 2.86088 73.6733 2.89756 74.1989C2.92201 74.5656 2.84865 74.9323 2.89756 75.2868C2.97091 75.7024 3.12986 76.1303 3.22767 76.5214C3.47219 77.4871 3.65558 78.4406 3.83897 79.4063C4.01013 80.3108 4.36469 81.1909 4.64589 82.0711C5.03712 83.2568 5.29387 84.4914 5.52616 85.726C5.70955 86.6428 5.69732 87.6085 5.83181 88.5375C5.94184 89.2954 6.113 90.0533 6.14968 90.8111C6.18636 91.948 5.90517 93.097 5.89294 94.2461C5.89294 96.1896 6.66317 98.1332 7.10331 100.003C7.23779 100.529 7.37227 101.055 7.51899 101.58C2.71417 92.0824 0 81.3499 0 69.9939C0 56.1809 4.01014 43.297 10.9178 32.4422C13.8521 27.8338 17.2998 23.6043 21.1999 19.8149C33.8171 7.55436 51.0191 0 70.0061 0C71.5344 0 73.0382 0.0489082 74.542 0.146699C83.8826 0.745669 92.722 3.16599 100.693 7.07763V7.10207Z" fill="url(#paint14_linear_2521_4160)"/>
<path opacity="0.3" fill-rule="evenodd" clip-rule="evenodd" d="M94.5304 123.253C95.8997 122.434 97.2446 121.554 98.6384 120.784C100.142 119.965 101.634 119.391 103.223 118.767C104.397 118.315 104.519 118.278 105.473 119.024C106.341 119.721 107.404 119.867 108.493 119.867C109.996 119.879 111.622 120.002 111.757 121.896C111.952 124.512 108.003 126.786 106.133 127.837C104.629 128.693 102.991 129.267 101.414 129.989C100.093 130.6 98.5895 131.297 97.1223 131.504C95.8631 131.676 95.0195 131.089 94.2003 130.148C93.2222 129.023 93.2834 127.947 93.2834 126.541C93.2834 124.916 93.1978 123.803 94.506 123.241L94.5304 123.253Z" fill="url(#paint15_linear_2521_4160)" style="mix-blend-mode:soft-light"/>
<path opacity="0.3" fill-rule="evenodd" clip-rule="evenodd" d="M115.401 25.4012C116.452 27.4792 117.198 30.2785 118.788 32.0143C119.631 32.9311 120.279 33.09 121.453 33.0778C122.028 33.0778 123.091 33.2978 123.629 33.1022C124.387 32.8333 124.338 31.9899 124.314 31.2442C124.216 28.4816 122.333 25.9268 120.609 23.9343C119.485 22.6386 117.602 21.0739 115.768 21.4284C115.23 22.6875 115.095 24.081 115.401 25.4134V25.4012Z" fill="url(#paint16_linear_2521_4160)" style="mix-blend-mode:soft-light"/>
<path fill-rule="evenodd" clip-rule="evenodd" d="M28.4744 124.684C21.2366 118.621 15.2336 111.127 10.9301 102.619C8.22811 97.2777 6.18636 91.5447 4.91486 85.5428C4.91486 85.5428 4.91486 85.5061 4.91486 85.4816C3.94901 80.8243 3.42329 75.9837 3.42329 71.033C3.42329 57.22 7.43341 44.3361 14.3411 33.4813C17.2753 28.8729 20.7231 24.6434 24.6232 20.854C37.2404 8.59346 54.4424 1.03912 73.4294 1.03912C74.9576 1.03912 76.4615 1.08801 77.9653 1.1858C82.7089 1.4914 87.3304 2.27373 91.7684 3.48389C86.3034 1.68698 80.5205 0.562381 74.542 0.171217C73.0382 0.0734257 71.5344 0.0245361 70.0061 0.0245361C51.0313 0.0245361 33.8171 7.5789 21.1999 19.8394C17.2998 23.6288 13.8521 27.8583 10.9178 32.4667C4.01014 43.3215 0 56.2054 0 70.0184C0 74.9691 0.52572 79.8098 1.49157 84.467C1.49157 84.4915 1.49157 84.5159 1.49157 84.5282C2.75085 90.5423 4.79259 96.2631 7.50677 101.605C11.8225 110.101 17.8133 117.606 25.0511 123.669C32.7168 130.099 41.7763 134.903 51.7038 137.592C43.1089 134.793 35.2476 130.368 28.4744 124.684Z" fill="url(#paint17_radial_2521_4160)" style="mix-blend-mode:screen"/>
<path fill-rule="evenodd" clip-rule="evenodd" d="M76.8519 135.563C76.6563 135.844 76.3385 136.076 76.6074 136.369C76.7419 136.516 77.023 136.638 77.2186 136.687C77.5486 136.773 78.1232 136.724 78.3799 136.516C78.6366 136.308 78.5999 136.039 78.441 135.795C78.1232 135.306 77.7198 135.233 77.1941 135.453L76.8519 135.563Z" fill="#FFFF45"/>
<path fill-rule="evenodd" clip-rule="evenodd" d="M31.0911 18.0912C30.3576 18.3357 30.0641 18.3968 29.3306 19.0202C28.7437 19.5092 28.108 19.9493 27.5334 20.4871C26.7753 21.2083 26.543 21.954 26.323 22.7363C26.1029 23.4942 25.8951 24.3499 26.2007 24.7655C26.3597 24.9855 26.8487 24.9733 27.2155 24.8755C27.7534 24.7288 28.3647 24.3376 28.9393 23.9709C29.6729 23.5064 30.3331 22.7974 30.8833 21.9906C31.2623 21.4406 31.4946 20.8049 31.7513 20.2549C31.9347 19.8637 32.0081 19.5214 32.1303 19.1547C32.2281 18.8369 32.2404 18.6291 32.1792 18.409C32.0937 18.0912 31.898 18.0668 31.1033 18.1034L31.0911 18.0912Z" fill="#FFFF45"/>
<path fill-rule="evenodd" clip-rule="evenodd" d="M39.367 16.8201C39.0736 17.0645 38.4135 17.529 38.9269 17.8958C39.0614 17.9935 39.1836 17.9447 39.3425 17.9813C39.4525 18.018 39.4892 18.1036 39.6237 18.0547C40.0393 17.8958 39.8804 16.6978 39.4036 16.9423L39.367 16.8201Z" fill="#FFFF45"/>
<path fill-rule="evenodd" clip-rule="evenodd" d="M41.5439 21.1595C41.7395 21.0495 41.9351 21.0006 42.1307 20.9884C42.1796 21.2451 42.4118 21.7585 42.0451 21.9541C41.7395 22.1252 41.8251 21.5752 41.6784 21.4407L41.5439 21.1595Z" fill="#FFFF45"/>
<path fill-rule="evenodd" clip-rule="evenodd" d="M45.7731 21.2817C46.1643 21.4406 46.5554 21.5995 46.9466 21.7706C47.0688 21.6606 47.2644 21.685 47.4111 21.5873C47.6067 21.465 47.7778 21.1961 47.8512 20.9761C47.9612 20.646 47.79 20.3649 47.6433 20.1082C47.5456 19.937 47.4478 19.6803 47.2889 19.5703C47.1055 19.4359 46.751 19.4848 46.5554 19.5703C46.3232 19.6803 46.152 19.9248 45.9931 20.1448C45.8464 20.3527 45.6753 20.6827 45.6631 20.9394C45.6631 21.2083 45.8709 21.5017 46.0787 21.6484L45.7853 21.2817H45.7731Z" fill="#FFFF45"/>
<path fill-rule="evenodd" clip-rule="evenodd" d="M49.3444 102.241C49.7355 102.399 50.1267 102.558 50.5179 102.729C50.6401 102.619 50.8357 102.644 50.9824 102.546C51.178 102.424 51.3491 102.155 51.4224 101.935C51.5325 101.605 51.3613 101.324 51.2146 101.067C51.1168 100.896 51.0191 100.639 50.8602 100.529C50.6768 100.395 50.3223 100.444 50.1267 100.529C49.8945 100.639 49.7233 100.884 49.5644 101.104C49.4177 101.312 49.2466 101.642 49.2344 101.898C49.2344 102.167 49.4422 102.461 49.65 102.607L49.3566 102.241H49.3444Z" fill="#FFFF45"/>
<path fill-rule="evenodd" clip-rule="evenodd" d="M34.4781 25.0712C34.307 25.1934 34.1725 25.3401 34.0625 25.5112C34.2214 25.719 34.307 25.9024 34.5759 25.988C34.6859 26.0246 34.8081 26.0246 34.8937 25.9391C35.0037 25.829 34.9426 25.7068 34.9793 25.5968C35.0526 25.3279 35.126 25.2545 34.9793 25.01C34.8815 24.8634 34.8204 24.8022 34.6615 24.8022C34.5515 24.8022 34.307 24.8389 34.2459 24.9611L34.4781 25.0834V25.0712Z" fill="#FFFF45"/>
<path fill-rule="evenodd" clip-rule="evenodd" d="M35.3818 31.3419C35.3573 31.4153 35.0517 32.1854 35.4429 31.9653C35.6385 31.8553 35.5651 31.5497 35.4429 31.4642C35.4429 31.4397 35.4551 31.4153 35.4673 31.3908L35.394 31.3542L35.3818 31.3419Z" fill="#FFFF45"/>
<path fill-rule="evenodd" clip-rule="evenodd" d="M29.5387 42.0257C29.2697 42.368 29.2453 42.5146 29.123 42.8691C29.2331 42.9792 29.4531 43.028 29.5998 43.028C29.832 43.028 29.8443 42.9425 29.8443 42.7224C29.8443 42.5391 29.9298 42.4046 29.8809 42.2335C29.832 42.0624 29.6609 41.879 29.4531 41.989L29.5264 42.0257H29.5387Z" fill="#FFFF45"/>
<path fill-rule="evenodd" clip-rule="evenodd" d="M38.4873 25.829C38.634 25.9635 38.7318 26.1346 38.7685 26.3424C38.5607 26.3913 38.5362 26.1835 38.4995 26.0246C38.4506 25.7679 38.5729 25.8412 38.6951 25.6334C38.7196 25.6334 38.744 25.6334 38.7685 25.6457L38.4873 25.829Z" fill="#FFFF45"/>
<path fill-rule="evenodd" clip-rule="evenodd" d="M36.4088 17.5658C36.2376 17.6881 36.1032 17.8348 35.9932 18.0059C36.091 18.1281 36.0421 18.3482 36.2743 18.3359C36.4332 18.3359 36.5677 18.1526 36.6532 18.0181C36.751 17.8592 36.7511 17.737 36.7633 17.5658C36.7633 17.4803 36.7633 17.1135 36.6044 17.358L36.3966 17.5781L36.4088 17.5658Z" fill="#FFFF45"/>
<path fill-rule="evenodd" clip-rule="evenodd" d="M63.2197 13.275C63.2686 13.0794 63.3053 12.8227 63.4031 12.6516C63.4275 12.6027 63.5009 12.5538 63.5375 12.5049C63.6598 12.3338 63.6231 12.3093 63.8065 12.3093C64.0265 12.3093 64.161 12.3215 64.3443 12.4682C64.9311 12.9327 63.4397 13.2995 63.3786 12.8472L63.2197 13.2872V13.275Z" fill="#FFFF45"/>
<path fill-rule="evenodd" clip-rule="evenodd" d="M68.2455 15.1331C68.1722 15.4754 67.9521 15.9399 68.2699 16.1599C68.5389 16.3555 69.1134 16.0499 69.3212 15.8543C69.7001 15.4999 70.1646 14.8398 69.7979 14.363C69.5901 14.0819 68.9789 13.8619 68.6367 13.8985C67.9277 13.9719 67.7199 14.8153 67.6221 15.4999L68.2455 15.1454V15.1331Z" fill="#FFFF45"/>
<path fill-rule="evenodd" clip-rule="evenodd" d="M70.4328 8.23894C70.3594 7.65219 70.2494 7.07767 70.775 6.77208C71.0562 6.60094 71.5696 6.55204 71.8385 6.74762C72.0341 6.89431 72.2052 7.16324 72.3153 7.35882C72.4986 7.65219 72.4497 7.6522 72.3519 7.92112C72.1441 8.54454 71.9974 8.94793 71.374 8.94793C70.555 8.94793 70.4328 8.31228 70.4206 7.52995V8.23894H70.4328Z" fill="#FFFF45"/>
<path fill-rule="evenodd" clip-rule="evenodd" d="M77.9648 18.4946C78.4049 18.3724 78.7961 18.1401 79.1139 17.7978C78.7961 17.6022 78.0871 17.1866 77.9648 17.7978V18.5068V18.4946Z" fill="#FFFF45"/>
<path fill-rule="evenodd" clip-rule="evenodd" d="M52.082 111.579C52.5221 111.457 52.9132 111.225 53.2311 110.883C52.9132 110.687 52.2043 110.271 52.082 110.883V111.592V111.579Z" fill="#FFC445"/>
<path fill-rule="evenodd" clip-rule="evenodd" d="M100.117 121.652C100.557 121.53 100.948 121.298 101.266 120.955C100.948 120.76 100.239 120.344 100.117 120.955V121.664V121.652Z" fill="#FFC445"/>
<path fill-rule="evenodd" clip-rule="evenodd" d="M83.7729 27.5159C84.2129 26.9659 84.8608 25.9757 85.6676 26.5258C86.1321 26.8436 86.2665 27.6871 85.8265 28.0171C85.4108 28.3227 85.0319 28.4083 84.5674 28.5427C84.2129 28.6405 83.6751 28.4083 83.7851 27.8704V27.5159H83.7729Z" fill="#FFFF45"/>
<path fill-rule="evenodd" clip-rule="evenodd" d="M52.6693 40.4854C53.1094 39.9354 53.7573 38.9452 54.564 39.4953C55.0286 39.8131 55.163 40.6566 54.7229 40.9866C54.3073 41.2922 53.9284 41.3778 53.4639 41.5122C53.1094 41.61 52.5715 41.3778 52.6816 40.8399V40.4854H52.6693Z" fill="#FFC445"/>
<path fill-rule="evenodd" clip-rule="evenodd" d="M104.287 17.5046C104.727 16.9545 105.374 15.9644 106.181 16.5144C106.646 16.8323 106.78 17.6757 106.34 18.0058C105.925 18.3114 105.546 18.3969 105.081 18.5314C104.727 18.6292 104.189 18.3969 104.299 17.8591V17.5046H104.287Z" fill="#FFC445"/>
<path fill-rule="evenodd" clip-rule="evenodd" d="M75.3598 65.2022C75.7998 64.6521 76.4477 63.662 77.2545 64.2121C77.719 64.5299 77.8535 65.3733 77.4134 65.7034C76.9978 66.009 76.6188 66.0946 76.1543 66.229C75.7998 66.3268 75.262 66.0946 75.372 65.5567V65.2022H75.3598Z" fill="#FFC445"/>
<path fill-rule="evenodd" clip-rule="evenodd" d="M50.0528 21.0006C49.4905 21.3673 48.5248 21.8074 48.4271 22.5897C48.3659 23.0664 48.586 23.3353 49.0138 23.5431C49.3805 23.7143 49.9184 23.7265 50.2851 23.5431C50.8107 23.2864 51.4097 22.8464 51.6419 22.2963C51.8131 21.8929 51.7886 21.624 51.593 21.2206C51.4952 21.0128 51.2874 20.7561 51.0674 20.6705C50.3462 20.4138 49.9061 21.135 49.3683 21.4529L50.0528 20.9883V21.0006Z" fill="#FFFF45"/>
<path fill-rule="evenodd" clip-rule="evenodd" d="M51.8997 18.9225C52.2053 19.0325 52.4742 19.2036 52.682 19.4359C52.3764 19.5459 52.0464 19.7904 51.7286 19.6681C51.313 19.5214 51.2396 19.1303 51.3374 18.7391C51.3863 18.5191 51.7775 18.1524 51.9975 18.2379C52.1075 18.2868 52.132 18.4335 52.1686 18.5313C52.242 18.7391 52.2542 18.6902 52.1442 18.9102H51.9119L51.8997 18.9225Z" fill="#FFFF45"/>
<path fill-rule="evenodd" clip-rule="evenodd" d="M20.7228 31.9287C20.1117 32.4666 19.5371 33.1022 19.2193 33.8723C19.0604 34.2635 19.3416 34.2757 19.696 34.2146C20.3806 34.0801 21.0773 33.8968 21.7496 33.7134C22.153 33.6156 22.7276 33.3956 23.0087 33.0533C23.2165 32.7966 23.3143 32.3443 23.2654 32.0143C23.2043 31.5498 22.8742 31.3787 22.4586 31.2564C21.5052 30.9875 20.2828 31.6231 19.9283 32.5032L20.7351 31.9287H20.7228Z" fill="#FFFF45"/>
<path fill-rule="evenodd" clip-rule="evenodd" d="M21.1751 35.1437C21.664 35.1559 22.1163 35.2781 22.5319 35.4982C22.4097 35.6449 22.4463 35.8404 22.3852 36.0116C22.2874 36.2561 22.0552 36.5128 21.8229 36.6594C21.444 36.8917 20.8328 36.9773 20.4172 36.8306C19.1581 36.3538 21.0895 34.8625 21.5173 35.3882L21.1751 35.1559V35.1437Z" fill="#FFFF45"/>
<path fill-rule="evenodd" clip-rule="evenodd" d="M61.2146 6.96749C61.6792 6.74746 62.1071 6.4541 62.6206 6.36853C63.2074 6.27074 63.7454 6.16072 64.3445 6.16072C64.6379 6.16072 65.3103 6.13626 65.1147 6.62522C64.9069 7.15085 63.7698 7.65203 63.3175 7.87206C62.5472 8.23878 61.8137 8.60549 60.9456 8.69106C60.5055 8.73995 59.7719 8.7644 59.5274 8.32434C59.3196 7.95762 59.4174 7.65204 59.6252 7.30977C59.8331 6.95528 60.0654 6.80858 60.4566 6.64967C60.64 6.57633 61.6425 6.3074 61.6914 6.62522L61.2268 6.96749H61.2146Z" fill="#FFFF45"/>
<path fill-rule="evenodd" clip-rule="evenodd" d="M53.3899 7.19983C53.1821 7.34652 51.593 8.22664 52.3508 8.6178C52.7542 8.82561 53.561 8.76448 53.9644 8.59335C54.3311 8.43444 54.6978 8.18996 54.4778 7.77435C54.0133 6.91868 52.8398 7.40764 52.2408 7.77435L53.3899 7.19983Z" fill="#FFFF45"/>
<path fill-rule="evenodd" clip-rule="evenodd" d="M31.4209 65.1653C31.5431 65.8132 31.6776 66.5344 32.2399 66.9622C32.8266 67.4145 33.499 67.2312 34.0735 66.8889C34.5013 66.6322 34.9047 66.3633 35.3325 66.1066C35.577 65.9599 35.797 65.9232 35.797 65.5687C35.797 65.1898 35.467 64.6886 35.247 64.4074C34.9903 64.0652 34.4646 63.6618 34.0613 63.5151C33.1811 63.1851 31.5065 63.5151 31.5309 64.713L31.4209 65.1776V65.1653Z" fill="#FFD32F"/>
<path fill-rule="evenodd" clip-rule="evenodd" d="M81.5723 65.8622C81.6945 66.5101 81.829 67.2313 82.3913 67.6591C82.978 68.1114 83.6503 67.9281 84.2248 67.5858C84.6527 67.3291 85.0561 67.0602 85.4839 66.8035C85.7284 66.6568 85.9484 66.6201 85.9484 66.2656C85.9484 65.8867 85.6184 65.3855 85.3983 65.1044C85.1416 64.7621 84.616 64.3587 84.2126 64.212C83.3325 63.882 81.6578 64.212 81.6823 65.41L81.5723 65.8745V65.8622Z" fill="#FFBA00"/>
<path fill-rule="evenodd" clip-rule="evenodd" d="M10.0244 91.1533C10.0244 91.1533 9.44991 93.6714 11.2224 96.8496C12.9826 100.028 14.2661 99.8689 14.2661 99.8689C14.2661 99.8689 12.7503 93.9526 10.0244 91.1533Z" fill="#FFFF59"/>
<path fill-rule="evenodd" clip-rule="evenodd" d="M124.325 56.6331C124.325 56.6331 122.271 62.5616 121.966 63.3929C121.966 63.3929 125.205 62.4761 124.325 56.6331Z" fill="#FFFF59"/>
<path fill-rule="evenodd" clip-rule="evenodd" d="M135.329 58.4911C135.329 58.4911 133.911 59.579 133.104 62.3049C133.104 62.3049 134.852 63.1239 135.329 58.4911Z" fill="#FFFF59"/>
<path fill-rule="evenodd" clip-rule="evenodd" d="M112.772 113.376C112.772 113.376 119.399 109.074 123.226 108.768C123.226 108.768 118.885 114.098 112.772 113.376Z" fill="#FFFF59"/>
<defs>
<radialGradient id="paint0_radial_2521_4160" cx="0" cy="0" r="1" gradientUnits="userSpaceOnUse" gradientTransform="translate(26.6282 37.2828) scale(112.455 112.435)">
<stop stop-color="#FFB80B"/>
<stop offset="0.26" stop-color="#FEB50C"/>
<stop offset="0.38" stop-color="#FDAE10"/>
<stop offset="0.48" stop-color="#FCA017"/>
<stop offset="0.57" stop-color="#F98E21"/>
<stop offset="0.64" stop-color="#F7762E"/>
<stop offset="0.66" stop-color="#F66D33"/>
<stop offset="0.72" stop-color="#EF6735"/>
<stop offset="0.81" stop-color="#DB583D"/>
<stop offset="0.91" stop-color="#BC4049"/>
<stop offset="0.98" stop-color="#A02A54"/>
</radialGradient>
<linearGradient id="paint1_linear_2521_4160" x1="5.84324" y1="90.6033" x2="39.7459" y2="90.6033" gradientUnits="userSpaceOnUse">
<stop offset="0.01" stop-color="#FFA90B"/>
<stop offset="0.37" stop-color="#FFA60D"/>
<stop offset="0.64" stop-color="#FF9C16"/>
<stop offset="0.87" stop-color="#FF8C25"/>
<stop offset="1" stop-color="#FF8031"/>
</linearGradient>
<linearGradient id="paint2_linear_2521_4160" x1="7.04112" y1="90.6032" x2="37.9485" y2="90.6032" gradientUnits="userSpaceOnUse">
<stop offset="0.01" stop-color="#FFE00B"/>
<stop offset="0.31" stop-color="#FFDD0C"/>
<stop offset="0.52" stop-color="#FFD311"/>
<stop offset="0.71" stop-color="#FFC31A"/>
<stop offset="0.89" stop-color="#FFAD26"/>
<stop offset="1" stop-color="#FF9B31"/>
</linearGradient>
<linearGradient id="paint3_linear_2521_4160" x1="10.4506" y1="50.1416" x2="23.9535" y2="49.7125" gradientUnits="userSpaceOnUse">
<stop offset="0.01" stop-color="#FFA90B"/>
<stop offset="0.37" stop-color="#FFA60D"/>
<stop offset="0.64" stop-color="#FF9C16"/>
<stop offset="0.87" stop-color="#FF8C25"/>
<stop offset="1" stop-color="#FF8031"/>
</linearGradient>
<linearGradient id="paint4_linear_2521_4160" x1="11.2816" y1="50.1153" x2="23.0859" y2="49.7402" gradientUnits="userSpaceOnUse">
<stop offset="0.01" stop-color="#FFE00B"/>
<stop offset="0.31" stop-color="#FFDD0C"/>
<stop offset="0.52" stop-color="#FFD311"/>
<stop offset="0.71" stop-color="#FFC31A"/>
<stop offset="0.89" stop-color="#FFAD26"/>
<stop offset="1" stop-color="#FF9B31"/>
</linearGradient>
<linearGradient id="paint5_linear_2521_4160" x1="121.966" y1="114.611" x2="121.966" y2="66.5956" gradientUnits="userSpaceOnUse">
<stop offset="0.01" stop-color="#FF8E0B"/>
<stop offset="0.35" stop-color="#FD8B0D"/>
<stop offset="0.59" stop-color="#F88114"/>
<stop offset="0.81" stop-color="#F07120"/>
<stop offset="1" stop-color="#E65D31"/>
</linearGradient>
<linearGradient id="paint6_linear_2521_4160" x1="107.821" y1="90.6033" x2="136.087" y2="90.6033" gradientUnits="userSpaceOnUse">
<stop offset="0.01" stop-color="#FFE00B"/>
<stop offset="0.31" stop-color="#FFDD0C"/>
<stop offset="0.52" stop-color="#FFD311"/>
<stop offset="0.71" stop-color="#FFC31A"/>
<stop offset="0.89" stop-color="#FFAD26"/>
<stop offset="1" stop-color="#FF9B31"/>
</linearGradient>
<linearGradient id="paint7_linear_2521_4160" x1="131.001" y1="65.4833" x2="131.001" y2="46.9519" gradientUnits="userSpaceOnUse">
<stop offset="0.01" stop-color="#FFA90B"/>
<stop offset="0.37" stop-color="#FFA60D"/>
<stop offset="0.64" stop-color="#FF9C16"/>
<stop offset="0.87" stop-color="#FF8C25"/>
<stop offset="1" stop-color="#FF8031"/>
</linearGradient>
<linearGradient id="paint8_linear_2521_4160" x1="130.989" y1="64.2609" x2="130.989" y2="48.162" gradientUnits="userSpaceOnUse">
<stop offset="0.01" stop-color="#FFE00B"/>
<stop offset="0.31" stop-color="#FFDD0C"/>
<stop offset="0.52" stop-color="#FFD311"/>
<stop offset="0.71" stop-color="#FFC31A"/>
<stop offset="0.89" stop-color="#FFAD26"/>
<stop offset="1" stop-color="#FF9B31"/>
</linearGradient>
<linearGradient id="paint9_linear_2521_4160" x1="73.4167" y1="139.12" x2="73.4167" y2="128.326" gradientUnits="userSpaceOnUse">
<stop offset="0.01" stop-color="#FFA90B"/>
<stop offset="0.37" stop-color="#FFA60D"/>
<stop offset="0.64" stop-color="#FF9C16"/>
<stop offset="0.87" stop-color="#FF8C25"/>
<stop offset="1" stop-color="#FF8031"/>
</linearGradient>
<linearGradient id="paint10_linear_2521_4160" x1="73.4175" y1="137.897" x2="73.4175" y2="129.536" gradientUnits="userSpaceOnUse">
<stop offset="0.01" stop-color="#FFE00B"/>
<stop offset="0.31" stop-color="#FFDD0C"/>
<stop offset="0.52" stop-color="#FFD311"/>
<stop offset="0.71" stop-color="#FFC31A"/>
<stop offset="0.89" stop-color="#FFAD26"/>
<stop offset="1" stop-color="#FF9B31"/>
</linearGradient>
<linearGradient id="paint11_linear_2521_4160" x1="107.271" y1="71.0208" x2="113.321" y2="25.401" gradientUnits="userSpaceOnUse">
<stop offset="0.01" stop-color="#FFA90B"/>
<stop offset="0.37" stop-color="#FFA60D"/>
<stop offset="0.64" stop-color="#FF9C16"/>
<stop offset="0.87" stop-color="#FF8C25"/>
<stop offset="1" stop-color="#FF8031"/>
</linearGradient>
<linearGradient id="paint12_linear_2521_4160" x1="107.429" y1="69.8104" x2="113.161" y2="26.611" gradientUnits="userSpaceOnUse">
<stop offset="0.01" stop-color="#FFE00B"/>
<stop offset="0.31" stop-color="#FFDD0C"/>
<stop offset="0.52" stop-color="#FFD311"/>
<stop offset="0.71" stop-color="#FFC31A"/>
<stop offset="0.89" stop-color="#FFAD26"/>
<stop offset="1" stop-color="#FF9B31"/>
</linearGradient>
<linearGradient id="paint13_linear_2521_4160" x1="-0.0127333" y1="65.1411" x2="107.649" y2="65.1411" gradientUnits="userSpaceOnUse">
<stop offset="0.01" stop-color="#FFE00B"/>
<stop offset="0.31" stop-color="#FFDD0C"/>
<stop offset="0.52" stop-color="#FFD311"/>
<stop offset="0.71" stop-color="#FFC31A"/>
<stop offset="0.89" stop-color="#FFAD26"/>
<stop offset="1" stop-color="#FF9B31"/>
</linearGradient>
<linearGradient id="paint14_linear_2521_4160" x1="-0.012226" y1="50.8146" x2="100.693" y2="50.8146" gradientUnits="userSpaceOnUse">
<stop offset="0.01" stop-color="#FFE00B"/>
<stop offset="0.31" stop-color="#FFDD0C"/>
<stop offset="0.52" stop-color="#FFD311"/>
<stop offset="0.71" stop-color="#FFC31A"/>
<stop offset="0.89" stop-color="#FFAD26"/>
<stop offset="1" stop-color="#FF9B31"/>
</linearGradient>
<linearGradient id="paint15_linear_2521_4160" x1="93.3078" y1="124.989" x2="111.769" y2="124.989" gradientUnits="userSpaceOnUse">
<stop offset="0.01" stop-color="#FFE00B"/>
<stop offset="0.31" stop-color="#FFDD0C"/>
<stop offset="0.52" stop-color="#FFD311"/>
<stop offset="0.71" stop-color="#FFC31A"/>
<stop offset="0.89" stop-color="#FFAD26"/>
<stop offset="1" stop-color="#FF9B31"/>
</linearGradient>
<linearGradient id="paint16_linear_2521_4160" x1="115.23" y1="27.2714" x2="124.326" y2="27.2714" gradientUnits="userSpaceOnUse">
<stop offset="0.01" stop-color="#FFE00B"/>
<stop offset="0.31" stop-color="#FFDD0C"/>
<stop offset="0.52" stop-color="#FFD311"/>
<stop offset="0.71" stop-color="#FFC31A"/>
<stop offset="0.89" stop-color="#FFAD26"/>
<stop offset="1" stop-color="#FF9B31"/>
</linearGradient>
<radialGradient id="paint17_radial_2521_4160" cx="0" cy="0" r="1" gradientUnits="userSpaceOnUse" gradientTransform="translate(18.828 22.3698) scale(92.1474 92.1313)">
<stop stop-color="#FFFFD9"/>
<stop offset="1"/>
</radialGradient>
</defs>
</svg>
