<svg width="24" height="24" viewBox="0 0 24 24" fill="none" xmlns="http://www.w3.org/2000/svg">
<g id="Icons / Sport / Basketball" data-node-id="164:24">
<path id="Vector" data-node-id="164:21" d="M12 21C16.9706 21 21 16.9706 21 12C21 7.02944 16.9706 3 12 3C7.02944 3 3 7.02944 3 12C3 16.9706 7.02944 21 12 21Z" stroke="#121212" stroke-width="1.5" stroke-linecap="round" stroke-linejoin="round"/>
<path id="Vector_2" data-node-id="164:22" d="M5.625 5.6475C6.45861 6.48185 7.11954 7.47237 7.56996 8.5624C8.02039 9.65243 8.25148 10.8206 8.25 12C8.25148 13.1794 8.02039 14.3476 7.56996 15.4376C7.11954 16.5276 6.45861 17.5182 5.625 18.3525M18.375 5.6475C16.6942 7.33439 15.7504 9.61866 15.7504 12C15.7504 14.3813 16.6942 16.6656 18.375 18.3525M3 12H21M12 3V21" stroke="#121212" stroke-width="1.5" stroke-linecap="round" stroke-linejoin="round"/>
</g>
</svg>