<svg width="24" height="24" viewBox="0 0 24 24" fill="none" xmlns="http://www.w3.org/2000/svg">
<g id="Icons / Misc / Books" data-node-id="164:35">
<path id="Vector" data-node-id="164:27" d="M9.75 3.75H5.25C4.83579 3.75 4.5 4.08579 4.5 4.5V19.5C4.5 19.9142 4.83579 20.25 5.25 20.25H9.75C10.1642 20.25 10.5 19.9142 10.5 19.5V4.5C10.5 4.08579 10.1642 3.75 9.75 3.75Z" stroke="#121212" stroke-width="1.5" stroke-linecap="round" stroke-linejoin="round"/>
<path id="Vector_2" data-node-id="164:28" d="M20.4066 19.2909L16.0181 20.2284C15.9214 20.249 15.8216 20.2503 15.7243 20.2321C15.6271 20.2139 15.5345 20.1767 15.4517 20.1226C15.3689 20.0685 15.2977 19.9986 15.242 19.9168C15.1864 19.8351 15.1475 19.7431 15.1275 19.6462L12.0169 4.85625C11.975 4.66087 12.0122 4.45688 12.1202 4.28879C12.2282 4.1207 12.3983 4.00217 12.5934 3.95906L16.9819 3.02156C17.0786 3.00098 17.1784 2.99974 17.2757 3.01789C17.3729 3.03605 17.4655 3.07326 17.5483 3.12737C17.6311 3.18148 17.7023 3.25142 17.758 3.33318C17.8136 3.41494 17.8525 3.50689 17.8725 3.60375L20.9831 18.3937C21.025 18.5891 20.9878 18.7931 20.8798 18.9612C20.7718 19.1293 20.6017 19.2478 20.4066 19.2909Z" stroke="#121212" stroke-width="1.5" stroke-linecap="round" stroke-linejoin="round"/>
<path id="Vector_3" data-node-id="164:29" d="M4.5 6.75H10.5" stroke="#121212" stroke-width="1.5" stroke-linecap="round" stroke-linejoin="round"/>
<path id="Vector_4" data-node-id="164:30" d="M4.5 17.25H10.5" stroke="#121212" stroke-width="1.5" stroke-linecap="round" stroke-linejoin="round"/>
<path id="Vector_5" data-node-id="164:31" d="M12.4838 7.07625L18.3385 5.81812" stroke="#121212" stroke-width="1.5" stroke-linecap="round" stroke-linejoin="round"/>
<path id="Vector_6" data-node-id="164:32" d="M13.1053 10.035L18.9609 8.77687" stroke="#121212" stroke-width="1.5" stroke-linecap="round" stroke-linejoin="round"/>
<path id="Vector_7" data-node-id="164:33" d="M14.6616 17.4319L20.5162 16.1738" stroke="#121212" stroke-width="1.5" stroke-linecap="round" stroke-linejoin="round"/>
</g>
</svg>