<svg width="24" height="24" viewBox="0 0 24 24" fill="none" xmlns="http://www.w3.org/2000/svg">
<g id="Icons / Logo / Dribbble" data-node-id="226:1725" clip-path="url(#clip0_226_1725)">
<path id="Vector" data-node-id="226:1720" d="M12 21C16.9706 21 21 16.9706 21 12C21 7.02944 16.9706 3 12 3C7.02944 3 3 7.02944 3 12C3 16.9706 7.02944 21 12 21Z" stroke="black" stroke-width="1.5" stroke-linecap="round" stroke-linejoin="round"/>
<path id="Vector_2" data-node-id="226:1721" d="M6.65625 19.2441C7.99157 17.0323 9.87573 15.2032 12.126 13.934C14.3764 12.6648 16.9164 11.9986 19.5 12C20.0053 12 20.5059 12.0253 21 12.0741" stroke="black" stroke-width="1.5" stroke-linecap="round" stroke-linejoin="round"/>
<path id="Vector_3" data-node-id="226:1722" d="M17.625 4.97719C16.2199 6.70424 14.4473 8.09616 12.4363 9.05156C10.4252 10.007 8.22644 10.5018 6 10.5C5.05123 10.5002 4.10455 10.4111 3.1725 10.2338" stroke="black" stroke-width="1.5" stroke-linecap="round" stroke-linejoin="round"/>
<path id="Vector_4" data-node-id="226:1723" d="M8.05594 3.90844C10.3116 5.23161 12.1819 7.12182 13.4811 9.39136C14.7804 11.6609 15.4633 14.2308 15.4622 16.8459C15.463 18.0714 15.3141 19.2923 15.0188 20.4816" stroke="black" stroke-width="1.5" stroke-linecap="round" stroke-linejoin="round"/>
</g>
<defs>
<clipPath id="clip0_226_1725">
<rect width="24" height="24" fill="white"/>
</clipPath>
</defs>
</svg>