<svg width="24" height="24" viewBox="0 0 24 24" fill="none" xmlns="http://www.w3.org/2000/svg">
<g id="Icons / Communication / At" data-node-id="226:1731" clip-path="url(#clip0_226_1731)">
<path id="Vector" data-node-id="226:1728" d="M12 15.75C14.0711 15.75 15.75 14.0711 15.75 12C15.75 9.92893 14.0711 8.25 12 8.25C9.92893 8.25 8.25 9.92893 8.25 12C8.25 14.0711 9.92893 15.75 12 15.75Z" stroke="black" stroke-width="1.5" stroke-linecap="round" stroke-linejoin="round"/>
<path id="Vector_2" data-node-id="226:1729" d="M17.25 19.5C15.8241 20.4478 13.8403 21 12 21C10.22 21 8.47991 20.4722 6.99987 19.4832C5.51983 18.4943 4.36628 17.0887 3.68509 15.4441C3.0039 13.7996 2.82567 11.99 3.17294 10.2442C3.5202 8.49835 4.37737 6.89471 5.63604 5.63604C6.89472 4.37736 8.49836 3.5202 10.2442 3.17293C11.99 2.82566 13.7996 3.00389 15.4442 3.68508C17.0887 4.36627 18.4943 5.51982 19.4832 6.99986C20.4722 8.47991 21 10.22 21 12C21 14.0709 20.25 15.75 18.375 15.75C16.5 15.75 15.75 14.0709 15.75 12V8.25" stroke="black" stroke-width="1.5" stroke-linecap="round" stroke-linejoin="round"/>
</g>
<defs>
<clipPath id="clip0_226_1731">
<rect width="24" height="24" fill="white"/>
</clipPath>
</defs>
</svg>