<svg width="24" height="24" viewBox="0 0 24 24" fill="none" xmlns="http://www.w3.org/2000/svg">
<g id="Icons / Logo / Figma" data-node-id="226:1704" clip-path="url(#clip0_226_1704)">
<path id="Vector" data-node-id="226:1698" d="M15.75 15C17.4069 15 18.75 13.6569 18.75 12C18.75 10.3431 17.4069 9 15.75 9C14.0931 9 12.75 10.3431 12.75 12C12.75 13.6569 14.0931 15 15.75 15Z" stroke="black" stroke-width="1.5" stroke-linecap="round" stroke-linejoin="round"/>
<path id="Vector_2" data-node-id="226:1699" d="M12.75 9H15.75C16.5456 9 17.3087 8.68393 17.8713 8.12132C18.4339 7.55871 18.75 6.79565 18.75 6C18.75 5.20435 18.4339 4.44129 17.8713 3.87868C17.3087 3.31607 16.5456 3 15.75 3H12.75" stroke="black" stroke-width="1.5" stroke-linecap="round" stroke-linejoin="round"/>
<path id="Vector_3" data-node-id="226:1700" d="M12.75 3H9C8.20435 3 7.44129 3.31607 6.87868 3.87868C6.31607 4.44129 6 5.20435 6 6C6 6.79565 6.31607 7.55871 6.87868 8.12132C7.44129 8.68393 8.20435 9 9 9H12.75V3Z" stroke="black" stroke-width="1.5" stroke-linecap="round" stroke-linejoin="round"/>
<path id="Vector_4" data-node-id="226:1701" d="M12.75 9H9C8.20435 9 7.44129 9.31607 6.87868 9.87868C6.31607 10.4413 6 11.2044 6 12C6 12.7956 6.31607 13.5587 6.87868 14.1213C7.44129 14.6839 8.20435 15 9 15H12.75V9Z" stroke="black" stroke-width="1.5" stroke-linecap="round" stroke-linejoin="round"/>
<path id="Vector_5" data-node-id="226:1702" d="M12.75 15H9.375C8.70749 15 8.05497 15.1979 7.49995 15.5688C6.94494 15.9396 6.51235 16.4667 6.25691 17.0834C6.00146 17.7001 5.93463 18.3787 6.06485 19.0334C6.19508 19.6881 6.51651 20.2895 6.98852 20.7615C7.46052 21.2335 8.06189 21.5549 8.71657 21.6852C9.37126 21.8154 10.0499 21.7485 10.6666 21.4931C11.2833 21.2376 11.8104 20.8051 12.1812 20.2501C12.5521 19.695 12.75 19.0425 12.75 18.375V15Z" stroke="black" stroke-width="1.5" stroke-linecap="round" stroke-linejoin="round"/>
</g>
<defs>
<clipPath id="clip0_226_1704">
<rect width="24" height="24" fill="white"/>
</clipPath>
</defs>
</svg>