<svg width="24" height="24" viewBox="0 0 24 24" fill="none" xmlns="http://www.w3.org/2000/svg">
<g id="Icons / Queue / Plug" data-node-id="156:1998">
<path id="Vector" data-node-id="156:1999" d="M12.0744 7.54905L7.54783 12.0756C6.81559 12.8079 6.81559 13.9951 7.54783 14.7273L9.2714 16.4509C10.0036 17.1831 11.1908 17.1831 11.923 16.4509L16.4496 11.9243C17.1819 11.192 17.1819 10.0049 16.4496 9.27263L14.7261 7.54905C13.9938 6.81682 12.8066 6.81682 12.0744 7.54905Z" stroke="#121212" stroke-width="1.5" stroke-linecap="round" stroke-linejoin="round"/>
<path id="Vector_2" data-node-id="156:2000" d="M8.875 8.875L15.125 15.125" stroke="#121212" stroke-width="1.5" stroke-linecap="round" stroke-linejoin="round"/>
<path id="Vector_3" data-node-id="156:2001" d="M20.1264 3.875L15.5905 8.41094" stroke="#121212" stroke-width="1.5" stroke-linecap="round" stroke-linejoin="round"/>
<path id="Vector_4" data-node-id="156:2002" d="M8.41094 15.5891L3.875 20.125" stroke="#121212" stroke-width="1.5" stroke-linecap="round" stroke-linejoin="round"/>
<path id="Vector_5" data-node-id="156:2003" d="M9.85309 4.80842L10.1471 6.19173" stroke="#121212" stroke-width="1.5" stroke-linecap="round" stroke-linejoin="round"/>
<path id="Vector_6" data-node-id="156:2004" d="M4.29669 9.92611L5.70316 10.0739" stroke="#121212" stroke-width="1.5" stroke-linecap="round" stroke-linejoin="round"/>
<path id="Vector_7" data-node-id="156:2005" d="M17.7391 14.3894L19.1359 14.6106" stroke="#121212" stroke-width="1.5" stroke-linecap="round" stroke-linejoin="round"/>
<path id="Vector_8" data-node-id="156:2006" d="M14.1447 17.8314L14.6051 19.1686" stroke="#121212" stroke-width="1.5" stroke-linecap="round" stroke-linejoin="round"/>
</g>
</svg>