<svg width="24" height="24" viewBox="0 0 24 24" fill="none" xmlns="http://www.w3.org/2000/svg">
<g id="Icons / Queue / Cursor" data-node-id="156:1980">
<path id="Vector" data-node-id="156:1981" d="M9.5 2.25V3.25" stroke="black" stroke-width="1.5" stroke-linecap="round" stroke-linejoin="round"/>
<path id="Vector_2" data-node-id="156:1982" d="M2.25 9.5H3.25" stroke="black" stroke-width="1.5" stroke-linecap="round" stroke-linejoin="round"/>
<path id="Vector_3" data-node-id="156:1983" d="M12 4.5L12.625 3.25" stroke="black" stroke-width="1.5" stroke-linecap="round" stroke-linejoin="round"/>
<path id="Vector_4" data-node-id="156:1984" d="M4.5 12L3.25 12.625" stroke="black" stroke-width="1.5" stroke-linecap="round" stroke-linejoin="round"/>
<path id="Vector_5" data-node-id="156:1985" d="M14.6836 12.8086C14.6115 12.7366 14.558 12.6481 14.5279 12.5507C14.4978 12.4533 14.492 12.3501 14.5109 12.2499C14.5299 12.1498 14.573 12.0558 14.6366 11.9761C14.7002 11.8965 14.7823 11.8336 14.8758 11.793L18.5016 10.4008C18.6155 10.349 18.7113 10.2643 18.7765 10.1575C18.8417 10.0507 18.8734 9.92686 18.8674 9.80189C18.8614 9.67692 18.8181 9.55661 18.743 9.45655C18.6678 9.35648 18.5644 9.28127 18.4461 9.24063L5.94064 5.15703C5.83205 5.12359 5.71639 5.12039 5.60612 5.14777C5.49584 5.17515 5.39512 5.23207 5.31477 5.31241C5.23443 5.39276 5.17751 5.49348 5.15013 5.60376C5.12275 5.71404 5.12595 5.82969 5.15939 5.93828L9.24064 18.4461C9.28128 18.5644 9.3565 18.6678 9.45656 18.7429C9.55663 18.818 9.67693 18.8614 9.8019 18.8674C9.92687 18.8733 10.0508 18.8417 10.1575 18.7765C10.2643 18.7112 10.3491 18.6155 10.4008 18.5016L11.793 14.8758C11.8336 14.7823 11.8965 14.7002 11.9762 14.6366C12.0558 14.573 12.1498 14.5299 12.2499 14.5109C12.3501 14.492 12.4533 14.4978 12.5507 14.5279C12.6481 14.558 12.7366 14.6114 12.8086 14.6836L16.8172 18.6922C16.9344 18.8093 17.0933 18.8751 17.259 18.8751C17.4247 18.8751 17.5836 18.8093 17.7008 18.6922L18.6922 17.7031C18.8093 17.5859 18.8751 17.427 18.8751 17.2613C18.8751 17.0956 18.8093 16.9367 18.6922 16.8195L14.6836 12.8086Z" stroke="black" stroke-width="1.5" stroke-linecap="round" stroke-linejoin="round"/>
</g>
</svg>